<ttFont>
    <TTGlyph name=".notdef" xMin="50" yMin="-260" xMax="575" yMax="970">
      <contour>
        <pt x="50" y="970" on="1"/>
        <pt x="575" y="970" on="1"/>
        <pt x="575" y="-260" on="1"/>
        <pt x="50" y="-260" on="1"/>
      </contour>
      <contour>
        <pt x="485" y="-178" on="1"/>
        <pt x="485" y="779" on="1"/>
        <pt x="174" y="-178" on="1"/>
      </contour>
      <contour>
        <pt x="140" y="-70" on="1"/>
        <pt x="450" y="887" on="1"/>
        <pt x="140" y="887" on="1"/>
      </contour>
    </TTGlyph>
    <TTGlyph name="A" xMin="-24" yMin="0" xMax="753" yMax="790">
      <contour>
        <pt x="461" y="283" on="1"/>
        <pt x="219" y="283" on="1"/>
        <pt x="165" y="132" on="1"/>
        <pt x="154" y="101" on="0"/>
        <pt x="154" y="85" on="1"/>
        <pt x="154" y="58" on="0"/>
        <pt x="206" y="31" on="0"/>
        <pt x="257" y="23" on="1"/>
        <pt x="257" y="0" on="1"/>
        <pt x="-24" y="0" on="1"/>
        <pt x="-24" y="23" on="1"/>
        <pt x="16" y="29" on="0"/>
        <pt x="64" y="45" on="0"/>
        <pt x="94" y="71" on="0"/>
        <pt x="112" y="108" on="0"/>
        <pt x="121" y="134" on="1"/>
        <pt x="315" y="677" on="1"/>
        <pt x="289" y="736" on="1"/>
        <pt x="387" y="790" on="1"/>
        <pt x="651" y="84" on="1"/>
        <pt x="657" y="67" on="0"/>
        <pt x="671" y="45" on="0"/>
        <pt x="693" y="31" on="0"/>
        <pt x="727" y="25" on="0"/>
        <pt x="753" y="23" on="1"/>
        <pt x="753" y="0" on="1"/>
        <pt x="435" y="0" on="1"/>
        <pt x="435" y="23" on="1"/>
        <pt x="469" y="24" on="0"/>
        <pt x="510" y="29" on="0"/>
        <pt x="532" y="37" on="0"/>
        <pt x="538" y="48" on="0"/>
        <pt x="538" y="56" on="1"/>
        <pt x="538" y="63" on="0"/>
        <pt x="534" y="82" on="0"/>
        <pt x="527" y="100" on="1"/>
      </contour>
      <contour>
        <pt x="337" y="614" on="1"/>
        <pt x="233" y="323" on="1"/>
        <pt x="446" y="323" on="1"/>
        <pt x="341" y="614" on="1"/>
      </contour>
    </TTGlyph>
    <TTGlyph name="AE" xMin="-22" yMin="0" xMax="975" yMax="770">
      <contour>
        <pt x="-22" y="23" on="1"/>
        <pt x="18" y="29" on="0"/>
        <pt x="71" y="45" on="0"/>
        <pt x="107" y="70" on="0"/>
        <pt x="133" y="107" on="0"/>
        <pt x="147" y="134" on="1"/>
        <pt x="461" y="730" on="1"/>
        <pt x="376" y="747" on="1"/>
        <pt x="376" y="770" on="1"/>
        <pt x="942" y="770" on="1"/>
        <pt x="959" y="550" on="1"/>
        <pt x="935" y="550" on="1"/>
        <pt x="923" y="593" on="0"/>
        <pt x="888" y="687" on="0"/>
        <pt x="863" y="730" on="1"/>
        <pt x="576" y="730" on="1"/>
        <pt x="576" y="407" on="1"/>
        <pt x="755" y="407" on="1"/>
        <pt x="769" y="437" on="0"/>
        <pt x="787" y="497" on="0"/>
        <pt x="792" y="527" on="1"/>
        <pt x="816" y="527" on="1"/>
        <pt x="816" y="247" on="1"/>
        <pt x="792" y="247" on="1"/>
        <pt x="783" y="309" on="0"/>
        <pt x="755" y="367" on="1"/>
        <pt x="576" y="367" on="1"/>
        <pt x="576" y="40" on="1"/>
        <pt x="858" y="40" on="1"/>
        <pt x="888" y="89" on="0"/>
        <pt x="925" y="185" on="0"/>
        <pt x="942" y="234" on="1"/>
        <pt x="975" y="234" on="1"/>
        <pt x="938" y="0" on="1"/>
        <pt x="386" y="0" on="1"/>
        <pt x="386" y="23" on="1"/>
        <pt x="471" y="42" on="1"/>
        <pt x="471" y="292" on="1"/>
        <pt x="273" y="292" on="1"/>
        <pt x="190" y="132" on="1"/>
        <pt x="169" y="93" on="0"/>
        <pt x="169" y="72" on="1"/>
        <pt x="169" y="51" on="0"/>
        <pt x="211" y="31" on="0"/>
        <pt x="258" y="23" on="1"/>
        <pt x="258" y="0" on="1"/>
        <pt x="-22" y="0" on="1"/>
      </contour>
      <contour>
        <pt x="470" y="332" on="1"/>
        <pt x="470" y="667" on="1"/>
        <pt x="466" y="667" on="1"/>
        <pt x="294" y="332" on="1"/>
      </contour>
    </TTGlyph>
    <TTGlyph name="AEacute" xMin="-22" yMin="0" xMax="975" yMax="960">
      <contour>
        <pt x="-22" y="23" on="1"/>
        <pt x="18" y="29" on="0"/>
        <pt x="71" y="45" on="0"/>
        <pt x="107" y="70" on="0"/>
        <pt x="133" y="107" on="0"/>
        <pt x="147" y="134" on="1"/>
        <pt x="461" y="730" on="1"/>
        <pt x="376" y="747" on="1"/>
        <pt x="376" y="770" on="1"/>
        <pt x="942" y="770" on="1"/>
        <pt x="959" y="550" on="1"/>
        <pt x="935" y="550" on="1"/>
        <pt x="923" y="593" on="0"/>
        <pt x="888" y="687" on="0"/>
        <pt x="863" y="730" on="1"/>
        <pt x="576" y="730" on="1"/>
        <pt x="576" y="407" on="1"/>
        <pt x="755" y="407" on="1"/>
        <pt x="769" y="437" on="0"/>
        <pt x="787" y="497" on="0"/>
        <pt x="792" y="527" on="1"/>
        <pt x="816" y="527" on="1"/>
        <pt x="816" y="247" on="1"/>
        <pt x="792" y="247" on="1"/>
        <pt x="783" y="309" on="0"/>
        <pt x="755" y="367" on="1"/>
        <pt x="576" y="367" on="1"/>
        <pt x="576" y="40" on="1"/>
        <pt x="858" y="40" on="1"/>
        <pt x="888" y="89" on="0"/>
        <pt x="925" y="185" on="0"/>
        <pt x="942" y="234" on="1"/>
        <pt x="975" y="234" on="1"/>
        <pt x="938" y="0" on="1"/>
        <pt x="386" y="0" on="1"/>
        <pt x="386" y="23" on="1"/>
        <pt x="471" y="42" on="1"/>
        <pt x="471" y="292" on="1"/>
        <pt x="273" y="292" on="1"/>
        <pt x="190" y="132" on="1"/>
        <pt x="169" y="93" on="0"/>
        <pt x="169" y="72" on="1"/>
        <pt x="169" y="51" on="0"/>
        <pt x="211" y="31" on="0"/>
        <pt x="258" y="23" on="1"/>
        <pt x="258" y="0" on="1"/>
        <pt x="-22" y="0" on="1"/>
      </contour>
      <contour>
        <pt x="470" y="332" on="1"/>
        <pt x="470" y="667" on="1"/>
        <pt x="466" y="667" on="1"/>
        <pt x="294" y="332" on="1"/>
      </contour>
      <contour>
        <pt x="572" y="837" on="1"/>
        <pt x="716" y="944" on="1"/>
        <pt x="738" y="960" on="0"/>
        <pt x="760" y="960" on="1"/>
        <pt x="777" y="960" on="0"/>
        <pt x="803" y="936" on="0"/>
        <pt x="803" y="917" on="1"/>
        <pt x="803" y="900" on="0"/>
        <pt x="774" y="871" on="0"/>
        <pt x="735" y="860" on="1"/>
        <pt x="583" y="816" on="1"/>
      </contour>
    </TTGlyph>
    <TTGlyph name="Aacute" xMin="-24" yMin="0" xMax="753" yMax="960">
      <contour>
        <pt x="461" y="283" on="1"/>
        <pt x="219" y="283" on="1"/>
        <pt x="165" y="132" on="1"/>
        <pt x="154" y="101" on="0"/>
        <pt x="154" y="85" on="1"/>
        <pt x="154" y="58" on="0"/>
        <pt x="206" y="31" on="0"/>
        <pt x="257" y="23" on="1"/>
        <pt x="257" y="0" on="1"/>
        <pt x="-24" y="0" on="1"/>
        <pt x="-24" y="23" on="1"/>
        <pt x="16" y="29" on="0"/>
        <pt x="64" y="45" on="0"/>
        <pt x="94" y="71" on="0"/>
        <pt x="112" y="108" on="0"/>
        <pt x="121" y="134" on="1"/>
        <pt x="315" y="677" on="1"/>
        <pt x="289" y="736" on="1"/>
        <pt x="387" y="790" on="1"/>
        <pt x="651" y="84" on="1"/>
        <pt x="657" y="67" on="0"/>
        <pt x="671" y="45" on="0"/>
        <pt x="693" y="31" on="0"/>
        <pt x="727" y="25" on="0"/>
        <pt x="753" y="23" on="1"/>
        <pt x="753" y="0" on="1"/>
        <pt x="435" y="0" on="1"/>
        <pt x="435" y="23" on="1"/>
        <pt x="469" y="24" on="0"/>
        <pt x="510" y="29" on="0"/>
        <pt x="532" y="37" on="0"/>
        <pt x="538" y="48" on="0"/>
        <pt x="538" y="56" on="1"/>
        <pt x="538" y="63" on="0"/>
        <pt x="534" y="82" on="0"/>
        <pt x="527" y="100" on="1"/>
      </contour>
      <contour>
        <pt x="337" y="614" on="1"/>
        <pt x="233" y="323" on="1"/>
        <pt x="446" y="323" on="1"/>
        <pt x="341" y="614" on="1"/>
      </contour>
      <contour>
        <pt x="265" y="837" on="1"/>
        <pt x="409" y="944" on="1"/>
        <pt x="431" y="960" on="0"/>
        <pt x="453" y="960" on="1"/>
        <pt x="470" y="960" on="0"/>
        <pt x="496" y="936" on="0"/>
        <pt x="496" y="917" on="1"/>
        <pt x="496" y="900" on="0"/>
        <pt x="467" y="871" on="0"/>
        <pt x="428" y="860" on="1"/>
        <pt x="276" y="816" on="1"/>
      </contour>
    </TTGlyph>
    <TTGlyph name="Abreve" xMin="-24" yMin="0" xMax="753" yMax="959">
      <contour>
        <pt x="461" y="283" on="1"/>
        <pt x="219" y="283" on="1"/>
        <pt x="165" y="132" on="1"/>
        <pt x="154" y="101" on="0"/>
        <pt x="154" y="85" on="1"/>
        <pt x="154" y="58" on="0"/>
        <pt x="206" y="31" on="0"/>
        <pt x="257" y="23" on="1"/>
        <pt x="257" y="0" on="1"/>
        <pt x="-24" y="0" on="1"/>
        <pt x="-24" y="23" on="1"/>
        <pt x="16" y="29" on="0"/>
        <pt x="64" y="45" on="0"/>
        <pt x="94" y="71" on="0"/>
        <pt x="112" y="108" on="0"/>
        <pt x="121" y="134" on="1"/>
        <pt x="315" y="677" on="1"/>
        <pt x="289" y="736" on="1"/>
        <pt x="387" y="790" on="1"/>
        <pt x="651" y="84" on="1"/>
        <pt x="657" y="67" on="0"/>
        <pt x="671" y="45" on="0"/>
        <pt x="693" y="31" on="0"/>
        <pt x="727" y="25" on="0"/>
        <pt x="753" y="23" on="1"/>
        <pt x="753" y="0" on="1"/>
        <pt x="435" y="0" on="1"/>
        <pt x="435" y="23" on="1"/>
        <pt x="469" y="24" on="0"/>
        <pt x="510" y="29" on="0"/>
        <pt x="532" y="37" on="0"/>
        <pt x="538" y="48" on="0"/>
        <pt x="538" y="56" on="1"/>
        <pt x="538" y="63" on="0"/>
        <pt x="534" y="82" on="0"/>
        <pt x="527" y="100" on="1"/>
      </contour>
      <contour>
        <pt x="337" y="614" on="1"/>
        <pt x="233" y="323" on="1"/>
        <pt x="446" y="323" on="1"/>
        <pt x="341" y="614" on="1"/>
      </contour>
      <contour>
        <pt x="238" y="959" on="1"/>
        <pt x="250" y="930" on="0"/>
        <pt x="309" y="904" on="0"/>
        <pt x="344" y="904" on="1"/>
        <pt x="377" y="904" on="0"/>
        <pt x="436" y="930" on="0"/>
        <pt x="453" y="959" on="1"/>
        <pt x="487" y="959" on="1"/>
        <pt x="475" y="916" on="0"/>
        <pt x="438" y="865" on="0"/>
        <pt x="397" y="838" on="0"/>
        <pt x="356" y="830" on="0"/>
        <pt x="340" y="830" on="1"/>
        <pt x="318" y="830" on="0"/>
        <pt x="273" y="843" on="0"/>
        <pt x="235" y="873" on="0"/>
        <pt x="207" y="923" on="0"/>
        <pt x="203" y="959" on="1"/>
      </contour>
    </TTGlyph>
    <TTGlyph name="Acircumflex" xMin="-24" yMin="0" xMax="753" yMax="960">
      <contour>
        <pt x="461" y="283" on="1"/>
        <pt x="219" y="283" on="1"/>
        <pt x="165" y="132" on="1"/>
        <pt x="154" y="101" on="0"/>
        <pt x="154" y="85" on="1"/>
        <pt x="154" y="58" on="0"/>
        <pt x="206" y="31" on="0"/>
        <pt x="257" y="23" on="1"/>
        <pt x="257" y="0" on="1"/>
        <pt x="-24" y="0" on="1"/>
        <pt x="-24" y="23" on="1"/>
        <pt x="16" y="29" on="0"/>
        <pt x="64" y="45" on="0"/>
        <pt x="94" y="71" on="0"/>
        <pt x="112" y="108" on="0"/>
        <pt x="121" y="134" on="1"/>
        <pt x="315" y="677" on="1"/>
        <pt x="289" y="736" on="1"/>
        <pt x="387" y="790" on="1"/>
        <pt x="651" y="84" on="1"/>
        <pt x="657" y="67" on="0"/>
        <pt x="671" y="45" on="0"/>
        <pt x="693" y="31" on="0"/>
        <pt x="727" y="25" on="0"/>
        <pt x="753" y="23" on="1"/>
        <pt x="753" y="0" on="1"/>
        <pt x="435" y="0" on="1"/>
        <pt x="435" y="23" on="1"/>
        <pt x="469" y="24" on="0"/>
        <pt x="510" y="29" on="0"/>
        <pt x="532" y="37" on="0"/>
        <pt x="538" y="48" on="0"/>
        <pt x="538" y="56" on="1"/>
        <pt x="538" y="63" on="0"/>
        <pt x="534" y="82" on="0"/>
        <pt x="527" y="100" on="1"/>
      </contour>
      <contour>
        <pt x="337" y="614" on="1"/>
        <pt x="233" y="323" on="1"/>
        <pt x="446" y="323" on="1"/>
        <pt x="341" y="614" on="1"/>
      </contour>
      <contour>
        <pt x="354" y="960" on="1"/>
        <pt x="371" y="960" on="0"/>
        <pt x="395" y="947" on="0"/>
        <pt x="409" y="933" on="1"/>
        <pt x="502" y="837" on="1"/>
        <pt x="483" y="820" on="1"/>
        <pt x="354" y="878" on="1"/>
        <pt x="227" y="820" on="1"/>
        <pt x="207" y="837" on="1"/>
        <pt x="301" y="933" on="1"/>
        <pt x="314" y="946" on="0"/>
        <pt x="335" y="960" on="0"/>
      </contour>
    </TTGlyph>
    <TTGlyph name="Adieresis" xMin="-24" yMin="0" xMax="753" yMax="940">
      <contour>
        <pt x="461" y="283" on="1"/>
        <pt x="219" y="283" on="1"/>
        <pt x="165" y="132" on="1"/>
        <pt x="154" y="101" on="0"/>
        <pt x="154" y="85" on="1"/>
        <pt x="154" y="58" on="0"/>
        <pt x="206" y="31" on="0"/>
        <pt x="257" y="23" on="1"/>
        <pt x="257" y="0" on="1"/>
        <pt x="-24" y="0" on="1"/>
        <pt x="-24" y="23" on="1"/>
        <pt x="16" y="29" on="0"/>
        <pt x="64" y="45" on="0"/>
        <pt x="94" y="71" on="0"/>
        <pt x="112" y="108" on="0"/>
        <pt x="121" y="134" on="1"/>
        <pt x="315" y="677" on="1"/>
        <pt x="289" y="736" on="1"/>
        <pt x="387" y="790" on="1"/>
        <pt x="651" y="84" on="1"/>
        <pt x="657" y="67" on="0"/>
        <pt x="671" y="45" on="0"/>
        <pt x="693" y="31" on="0"/>
        <pt x="727" y="25" on="0"/>
        <pt x="753" y="23" on="1"/>
        <pt x="753" y="0" on="1"/>
        <pt x="435" y="0" on="1"/>
        <pt x="435" y="23" on="1"/>
        <pt x="469" y="24" on="0"/>
        <pt x="510" y="29" on="0"/>
        <pt x="532" y="37" on="0"/>
        <pt x="538" y="48" on="0"/>
        <pt x="538" y="56" on="1"/>
        <pt x="538" y="63" on="0"/>
        <pt x="534" y="82" on="0"/>
        <pt x="527" y="100" on="1"/>
      </contour>
      <contour>
        <pt x="337" y="614" on="1"/>
        <pt x="233" y="323" on="1"/>
        <pt x="446" y="323" on="1"/>
        <pt x="341" y="614" on="1"/>
      </contour>
      <contour>
        <pt x="217" y="885" on="1"/>
        <pt x="217" y="909" on="0"/>
        <pt x="247" y="940" on="0"/>
        <pt x="272" y="940" on="1"/>
        <pt x="298" y="940" on="0"/>
        <pt x="327" y="909" on="0"/>
        <pt x="327" y="885" on="1"/>
        <pt x="327" y="862" on="0"/>
        <pt x="298" y="830" on="0"/>
        <pt x="272" y="830" on="1"/>
        <pt x="247" y="830" on="0"/>
        <pt x="217" y="862" on="0"/>
      </contour>
      <contour>
        <pt x="404" y="885" on="1"/>
        <pt x="404" y="909" on="0"/>
        <pt x="434" y="940" on="0"/>
        <pt x="459" y="940" on="1"/>
        <pt x="485" y="940" on="0"/>
        <pt x="514" y="909" on="0"/>
        <pt x="514" y="885" on="1"/>
        <pt x="514" y="862" on="0"/>
        <pt x="485" y="830" on="0"/>
        <pt x="459" y="830" on="1"/>
        <pt x="434" y="830" on="0"/>
        <pt x="404" y="862" on="0"/>
      </contour>
    </TTGlyph>
    <TTGlyph name="Agrave" xMin="-24" yMin="0" xMax="753" yMax="960">
      <contour>
        <pt x="461" y="283" on="1"/>
        <pt x="219" y="283" on="1"/>
        <pt x="165" y="132" on="1"/>
        <pt x="154" y="101" on="0"/>
        <pt x="154" y="85" on="1"/>
        <pt x="154" y="58" on="0"/>
        <pt x="206" y="31" on="0"/>
        <pt x="257" y="23" on="1"/>
        <pt x="257" y="0" on="1"/>
        <pt x="-24" y="0" on="1"/>
        <pt x="-24" y="23" on="1"/>
        <pt x="16" y="29" on="0"/>
        <pt x="64" y="45" on="0"/>
        <pt x="94" y="71" on="0"/>
        <pt x="112" y="108" on="0"/>
        <pt x="121" y="134" on="1"/>
        <pt x="315" y="677" on="1"/>
        <pt x="289" y="736" on="1"/>
        <pt x="387" y="790" on="1"/>
        <pt x="651" y="84" on="1"/>
        <pt x="657" y="67" on="0"/>
        <pt x="671" y="45" on="0"/>
        <pt x="693" y="31" on="0"/>
        <pt x="727" y="25" on="0"/>
        <pt x="753" y="23" on="1"/>
        <pt x="753" y="0" on="1"/>
        <pt x="435" y="0" on="1"/>
        <pt x="435" y="23" on="1"/>
        <pt x="469" y="24" on="0"/>
        <pt x="510" y="29" on="0"/>
        <pt x="532" y="37" on="0"/>
        <pt x="538" y="48" on="0"/>
        <pt x="538" y="56" on="1"/>
        <pt x="538" y="63" on="0"/>
        <pt x="534" y="82" on="0"/>
        <pt x="527" y="100" on="1"/>
      </contour>
      <contour>
        <pt x="337" y="614" on="1"/>
        <pt x="233" y="323" on="1"/>
        <pt x="446" y="323" on="1"/>
        <pt x="341" y="614" on="1"/>
      </contour>
      <contour>
        <pt x="427" y="816" on="1"/>
        <pt x="275" y="860" on="1"/>
        <pt x="236" y="871" on="0"/>
        <pt x="207" y="900" on="0"/>
        <pt x="207" y="917" on="1"/>
        <pt x="207" y="936" on="0"/>
        <pt x="233" y="960" on="0"/>
        <pt x="250" y="960" on="1"/>
        <pt x="272" y="960" on="0"/>
        <pt x="294" y="944" on="1"/>
        <pt x="438" y="837" on="1"/>
      </contour>
    </TTGlyph>
    <TTGlyph name="Amacron" xMin="-24" yMin="0" xMax="753" yMax="948">
      <contour>
        <pt x="461" y="283" on="1"/>
        <pt x="219" y="283" on="1"/>
        <pt x="165" y="132" on="1"/>
        <pt x="154" y="101" on="0"/>
        <pt x="154" y="85" on="1"/>
        <pt x="154" y="58" on="0"/>
        <pt x="206" y="31" on="0"/>
        <pt x="257" y="23" on="1"/>
        <pt x="257" y="0" on="1"/>
        <pt x="-24" y="0" on="1"/>
        <pt x="-24" y="23" on="1"/>
        <pt x="16" y="29" on="0"/>
        <pt x="64" y="45" on="0"/>
        <pt x="94" y="71" on="0"/>
        <pt x="112" y="108" on="0"/>
        <pt x="121" y="134" on="1"/>
        <pt x="315" y="677" on="1"/>
        <pt x="289" y="736" on="1"/>
        <pt x="387" y="790" on="1"/>
        <pt x="651" y="84" on="1"/>
        <pt x="657" y="67" on="0"/>
        <pt x="671" y="45" on="0"/>
        <pt x="693" y="31" on="0"/>
        <pt x="727" y="25" on="0"/>
        <pt x="753" y="23" on="1"/>
        <pt x="753" y="0" on="1"/>
        <pt x="435" y="0" on="1"/>
        <pt x="435" y="23" on="1"/>
        <pt x="469" y="24" on="0"/>
        <pt x="510" y="29" on="0"/>
        <pt x="532" y="37" on="0"/>
        <pt x="538" y="48" on="0"/>
        <pt x="538" y="56" on="1"/>
        <pt x="538" y="63" on="0"/>
        <pt x="534" y="82" on="0"/>
        <pt x="527" y="100" on="1"/>
      </contour>
      <contour>
        <pt x="337" y="614" on="1"/>
        <pt x="233" y="323" on="1"/>
        <pt x="446" y="323" on="1"/>
        <pt x="341" y="614" on="1"/>
      </contour>
      <contour>
        <pt x="196" y="877" on="1"/>
        <pt x="196" y="948" on="1"/>
        <pt x="483" y="948" on="1"/>
        <pt x="483" y="877" on="1"/>
      </contour>
    </TTGlyph>
    <TTGlyph name="Aogonek" xMin="-24" yMin="-256" xMax="753" yMax="790">
      <contour>
        <pt x="686" y="-202" on="1"/>
        <pt x="639" y="-256" on="0"/>
        <pt x="576" y="-256" on="1"/>
        <pt x="529" y="-256" on="0"/>
        <pt x="474" y="-209" on="0"/>
        <pt x="474" y="-168" on="1"/>
        <pt x="474" y="-129" on="0"/>
        <pt x="534" y="-41" on="0"/>
        <pt x="588" y="0" on="1"/>
        <pt x="435" y="0" on="1"/>
        <pt x="435" y="23" on="1"/>
        <pt x="469" y="24" on="0"/>
        <pt x="510" y="29" on="0"/>
        <pt x="532" y="37" on="0"/>
        <pt x="538" y="48" on="0"/>
        <pt x="538" y="56" on="1"/>
        <pt x="538" y="63" on="0"/>
        <pt x="534" y="82" on="0"/>
        <pt x="527" y="100" on="1"/>
        <pt x="461" y="283" on="1"/>
        <pt x="219" y="283" on="1"/>
        <pt x="165" y="132" on="1"/>
        <pt x="154" y="101" on="0"/>
        <pt x="154" y="85" on="1"/>
        <pt x="154" y="58" on="0"/>
        <pt x="206" y="31" on="0"/>
        <pt x="257" y="23" on="1"/>
        <pt x="257" y="0" on="1"/>
        <pt x="-24" y="0" on="1"/>
        <pt x="-24" y="23" on="1"/>
        <pt x="16" y="29" on="0"/>
        <pt x="64" y="45" on="0"/>
        <pt x="94" y="71" on="0"/>
        <pt x="112" y="108" on="0"/>
        <pt x="121" y="134" on="1"/>
        <pt x="315" y="677" on="1"/>
        <pt x="289" y="736" on="1"/>
        <pt x="387" y="790" on="1"/>
        <pt x="651" y="84" on="1"/>
        <pt x="657" y="67" on="0"/>
        <pt x="671" y="45" on="0"/>
        <pt x="693" y="31" on="0"/>
        <pt x="727" y="25" on="0"/>
        <pt x="753" y="23" on="1"/>
        <pt x="753" y="0" on="1"/>
        <pt x="631" y="0" on="1"/>
        <pt x="562" y="-83" on="0"/>
        <pt x="562" y="-144" on="1"/>
        <pt x="562" y="-201" on="0"/>
        <pt x="615" y="-201" on="1"/>
        <pt x="629" y="-201" on="0"/>
        <pt x="654" y="-191" on="0"/>
        <pt x="671" y="-180" on="1"/>
      </contour>
      <contour>
        <pt x="337" y="614" on="1"/>
        <pt x="233" y="323" on="1"/>
        <pt x="446" y="323" on="1"/>
        <pt x="341" y="614" on="1"/>
      </contour>
    </TTGlyph>
    <TTGlyph name="Aring" xMin="-24" yMin="0" xMax="753" yMax="970">
      <contour>
        <pt x="461" y="283" on="1"/>
        <pt x="219" y="283" on="1"/>
        <pt x="165" y="132" on="1"/>
        <pt x="154" y="101" on="0"/>
        <pt x="154" y="85" on="1"/>
        <pt x="154" y="58" on="0"/>
        <pt x="206" y="31" on="0"/>
        <pt x="257" y="23" on="1"/>
        <pt x="257" y="0" on="1"/>
        <pt x="-24" y="0" on="1"/>
        <pt x="-24" y="23" on="1"/>
        <pt x="16" y="29" on="0"/>
        <pt x="64" y="45" on="0"/>
        <pt x="94" y="71" on="0"/>
        <pt x="112" y="108" on="0"/>
        <pt x="121" y="134" on="1"/>
        <pt x="315" y="677" on="1"/>
        <pt x="289" y="736" on="1"/>
        <pt x="387" y="790" on="1"/>
        <pt x="651" y="84" on="1"/>
        <pt x="657" y="67" on="0"/>
        <pt x="671" y="45" on="0"/>
        <pt x="693" y="31" on="0"/>
        <pt x="727" y="25" on="0"/>
        <pt x="753" y="23" on="1"/>
        <pt x="753" y="0" on="1"/>
        <pt x="435" y="0" on="1"/>
        <pt x="435" y="23" on="1"/>
        <pt x="469" y="24" on="0"/>
        <pt x="510" y="29" on="0"/>
        <pt x="532" y="37" on="0"/>
        <pt x="538" y="48" on="0"/>
        <pt x="538" y="56" on="1"/>
        <pt x="538" y="63" on="0"/>
        <pt x="534" y="82" on="0"/>
        <pt x="527" y="100" on="1"/>
      </contour>
      <contour>
        <pt x="337" y="614" on="1"/>
        <pt x="233" y="323" on="1"/>
        <pt x="446" y="323" on="1"/>
        <pt x="341" y="614" on="1"/>
      </contour>
      <contour>
        <pt x="345" y="830" on="1"/>
        <pt x="313" y="830" on="0"/>
        <pt x="275" y="870" on="0"/>
        <pt x="275" y="900" on="1"/>
        <pt x="275" y="930" on="0"/>
        <pt x="315" y="970" on="0"/>
        <pt x="345" y="970" on="1"/>
        <pt x="375" y="970" on="0"/>
        <pt x="415" y="930" on="0"/>
        <pt x="415" y="900" on="1"/>
        <pt x="415" y="870" on="0"/>
        <pt x="375" y="830" on="0"/>
      </contour>
      <contour>
        <pt x="310" y="900" on="1"/>
        <pt x="310" y="884" on="0"/>
        <pt x="329" y="865" on="0"/>
        <pt x="345" y="865" on="1"/>
        <pt x="361" y="865" on="0"/>
        <pt x="380" y="884" on="0"/>
        <pt x="380" y="900" on="1"/>
        <pt x="380" y="916" on="0"/>
        <pt x="361" y="935" on="0"/>
        <pt x="345" y="935" on="1"/>
        <pt x="329" y="935" on="0"/>
        <pt x="310" y="916" on="0"/>
      </contour>
    </TTGlyph>
    <TTGlyph name="Aringacute" xMin="-24" yMin="0" xMax="753" yMax="970">
      <contour>
        <pt x="234" y="846" on="1"/>
        <pt x="277" y="878" on="1"/>
        <pt x="274" y="888" on="0"/>
        <pt x="274" y="900" on="1"/>
        <pt x="274" y="930" on="0"/>
        <pt x="314" y="970" on="0"/>
        <pt x="344" y="970" on="1"/>
        <pt x="367" y="970" on="0"/>
        <pt x="385" y="958" on="1"/>
        <pt x="394" y="963" on="0"/>
        <pt x="411" y="969" on="0"/>
        <pt x="422" y="969" on="1"/>
        <pt x="437" y="969" on="0"/>
        <pt x="466" y="952" on="0"/>
        <pt x="466" y="934" on="1"/>
        <pt x="466" y="919" on="0"/>
        <pt x="446" y="892" on="0"/>
        <pt x="412" y="882" on="1"/>
        <pt x="406" y="859" on="0"/>
        <pt x="370" y="830" on="0"/>
        <pt x="344" y="830" on="1"/>
        <pt x="318" y="830" on="0"/>
        <pt x="302" y="842" on="1"/>
        <pt x="245" y="825" on="1"/>
      </contour>
      <contour>
        <pt x="344" y="865" on="1"/>
        <pt x="360" y="865" on="0"/>
        <pt x="379" y="884" on="0"/>
        <pt x="379" y="900" on="1"/>
        <pt x="379" y="916" on="0"/>
        <pt x="360" y="935" on="0"/>
        <pt x="344" y="935" on="1"/>
        <pt x="328" y="935" on="0"/>
        <pt x="309" y="916" on="0"/>
        <pt x="309" y="900" on="1"/>
        <pt x="309" y="884" on="0"/>
        <pt x="328" y="865" on="0"/>
      </contour>
      <contour>
        <pt x="461" y="283" on="1"/>
        <pt x="219" y="283" on="1"/>
        <pt x="165" y="132" on="1"/>
        <pt x="154" y="101" on="0"/>
        <pt x="154" y="85" on="1"/>
        <pt x="154" y="58" on="0"/>
        <pt x="206" y="31" on="0"/>
        <pt x="257" y="23" on="1"/>
        <pt x="257" y="0" on="1"/>
        <pt x="-24" y="0" on="1"/>
        <pt x="-24" y="23" on="1"/>
        <pt x="16" y="29" on="0"/>
        <pt x="64" y="45" on="0"/>
        <pt x="94" y="71" on="0"/>
        <pt x="112" y="108" on="0"/>
        <pt x="121" y="134" on="1"/>
        <pt x="315" y="677" on="1"/>
        <pt x="289" y="736" on="1"/>
        <pt x="387" y="790" on="1"/>
        <pt x="651" y="84" on="1"/>
        <pt x="657" y="67" on="0"/>
        <pt x="671" y="45" on="0"/>
        <pt x="693" y="31" on="0"/>
        <pt x="727" y="25" on="0"/>
        <pt x="753" y="23" on="1"/>
        <pt x="753" y="0" on="1"/>
        <pt x="435" y="0" on="1"/>
        <pt x="435" y="23" on="1"/>
        <pt x="469" y="24" on="0"/>
        <pt x="510" y="29" on="0"/>
        <pt x="532" y="37" on="0"/>
        <pt x="538" y="48" on="0"/>
        <pt x="538" y="56" on="1"/>
        <pt x="538" y="63" on="0"/>
        <pt x="534" y="82" on="0"/>
        <pt x="527" y="100" on="1"/>
      </contour>
      <contour>
        <pt x="337" y="614" on="1"/>
        <pt x="233" y="323" on="1"/>
        <pt x="446" y="323" on="1"/>
        <pt x="341" y="614" on="1"/>
      </contour>
    </TTGlyph>
    <TTGlyph name="Atilde" xMin="-24" yMin="0" xMax="753" yMax="960">
      <contour>
        <pt x="461" y="283" on="1"/>
        <pt x="219" y="283" on="1"/>
        <pt x="165" y="132" on="1"/>
        <pt x="154" y="101" on="0"/>
        <pt x="154" y="85" on="1"/>
        <pt x="154" y="58" on="0"/>
        <pt x="206" y="31" on="0"/>
        <pt x="257" y="23" on="1"/>
        <pt x="257" y="0" on="1"/>
        <pt x="-24" y="0" on="1"/>
        <pt x="-24" y="23" on="1"/>
        <pt x="16" y="29" on="0"/>
        <pt x="64" y="45" on="0"/>
        <pt x="94" y="71" on="0"/>
        <pt x="112" y="108" on="0"/>
        <pt x="121" y="134" on="1"/>
        <pt x="315" y="677" on="1"/>
        <pt x="289" y="736" on="1"/>
        <pt x="387" y="790" on="1"/>
        <pt x="651" y="84" on="1"/>
        <pt x="657" y="67" on="0"/>
        <pt x="671" y="45" on="0"/>
        <pt x="693" y="31" on="0"/>
        <pt x="727" y="25" on="0"/>
        <pt x="753" y="23" on="1"/>
        <pt x="753" y="0" on="1"/>
        <pt x="435" y="0" on="1"/>
        <pt x="435" y="23" on="1"/>
        <pt x="469" y="24" on="0"/>
        <pt x="510" y="29" on="0"/>
        <pt x="532" y="37" on="0"/>
        <pt x="538" y="48" on="0"/>
        <pt x="538" y="56" on="1"/>
        <pt x="538" y="63" on="0"/>
        <pt x="534" y="82" on="0"/>
        <pt x="527" y="100" on="1"/>
      </contour>
      <contour>
        <pt x="337" y="614" on="1"/>
        <pt x="233" y="323" on="1"/>
        <pt x="446" y="323" on="1"/>
        <pt x="341" y="614" on="1"/>
      </contour>
      <contour>
        <pt x="200" y="843" on="1"/>
        <pt x="200" y="894" on="0"/>
        <pt x="247" y="957" on="0"/>
        <pt x="284" y="957" on="1"/>
        <pt x="301" y="957" on="0"/>
        <pt x="339" y="946" on="0"/>
        <pt x="378" y="933" on="0"/>
        <pt x="416" y="922" on="0"/>
        <pt x="433" y="922" on="1"/>
        <pt x="475" y="922" on="0"/>
        <pt x="483" y="960" on="1"/>
        <pt x="507" y="960" on="1"/>
        <pt x="507" y="908" on="0"/>
        <pt x="460" y="842" on="0"/>
        <pt x="423" y="842" on="1"/>
        <pt x="405" y="842" on="0"/>
        <pt x="368" y="854" on="0"/>
        <pt x="330" y="869" on="0"/>
        <pt x="293" y="881" on="0"/>
        <pt x="275" y="881" on="1"/>
        <pt x="229" y="881" on="0"/>
        <pt x="224" y="843" on="1"/>
      </contour>
    </TTGlyph>
    <TTGlyph name="B" xMin="49" yMin="0" xMax="645" yMax="770">
      <contour>
        <pt x="345" y="770" on="1"/>
        <pt x="414" y="770" on="0"/>
        <pt x="505" y="750" on="0"/>
        <pt x="536" y="729" on="1"/>
        <pt x="571" y="704" on="0"/>
        <pt x="611" y="628" on="0"/>
        <pt x="611" y="583" on="1"/>
        <pt x="611" y="517" on="0"/>
        <pt x="526" y="429" on="0"/>
        <pt x="446" y="412" on="1"/>
        <pt x="446" y="408" on="1"/>
        <pt x="491" y="403" on="0"/>
        <pt x="564" y="369" on="0"/>
        <pt x="617" y="315" on="0"/>
        <pt x="645" y="245" on="0"/>
        <pt x="645" y="204" on="1"/>
        <pt x="645" y="158" on="0"/>
        <pt x="610" y="78" on="0"/>
        <pt x="578" y="52" on="1"/>
        <pt x="543" y="24" on="0"/>
        <pt x="444" y="0" on="0"/>
        <pt x="362" y="0" on="1"/>
        <pt x="49" y="0" on="1"/>
        <pt x="49" y="23" on="1"/>
        <pt x="134" y="42" on="1"/>
        <pt x="134" y="728" on="1"/>
        <pt x="49" y="747" on="1"/>
        <pt x="49" y="770" on="1"/>
      </contour>
      <contour>
        <pt x="239" y="429" on="1"/>
        <pt x="301" y="429" on="1"/>
        <pt x="330" y="429" on="0"/>
        <pt x="368" y="430" on="0"/>
        <pt x="385" y="432" on="1"/>
        <pt x="440" y="438" on="0"/>
        <pt x="499" y="517" on="0"/>
        <pt x="499" y="586" on="1"/>
        <pt x="499" y="621" on="0"/>
        <pt x="482" y="670" on="0"/>
        <pt x="462" y="690" on="1"/>
        <pt x="440" y="713" on="0"/>
        <pt x="380" y="730" on="0"/>
        <pt x="325" y="730" on="1"/>
        <pt x="239" y="730" on="1"/>
      </contour>
      <contour>
        <pt x="239" y="389" on="1"/>
        <pt x="239" y="98" on="1"/>
        <pt x="239" y="63" on="0"/>
        <pt x="276" y="38" on="0"/>
        <pt x="327" y="38" on="1"/>
        <pt x="431" y="38" on="0"/>
        <pt x="529" y="122" on="0"/>
        <pt x="529" y="213" on="1"/>
        <pt x="529" y="304" on="0"/>
        <pt x="430" y="389" on="0"/>
        <pt x="324" y="389" on="1"/>
      </contour>
    </TTGlyph>
    <TTGlyph name="C" xMin="56" yMin="-10" xMax="708" yMax="780">
      <contour>
        <pt x="56" y="380" on="1"/>
        <pt x="56" y="468" on="0"/>
        <pt x="110" y="615" on="0"/>
        <pt x="207" y="721" on="0"/>
        <pt x="342" y="780" on="0"/>
        <pt x="422" y="780" on="1"/>
        <pt x="481" y="780" on="0"/>
        <pt x="592" y="748" on="0"/>
        <pt x="637" y="719" on="1"/>
        <pt x="641" y="719" on="1"/>
        <pt x="690" y="770" on="1"/>
        <pt x="708" y="770" on="1"/>
        <pt x="708" y="540" on="1"/>
        <pt x="678" y="540" on="1"/>
        <pt x="669" y="567" on="0"/>
        <pt x="648" y="611" on="0"/>
        <pt x="637" y="630" on="1"/>
        <pt x="602" y="687" on="0"/>
        <pt x="506" y="736" on="0"/>
        <pt x="439" y="736" on="1"/>
        <pt x="314" y="736" on="0"/>
        <pt x="182" y="555" on="0"/>
        <pt x="182" y="387" on="1"/>
        <pt x="182" y="219" on="0"/>
        <pt x="316" y="35" on="0"/>
        <pt x="440" y="35" on="1"/>
        <pt x="500" y="35" on="0"/>
        <pt x="596" y="82" on="0"/>
        <pt x="628" y="129" on="1"/>
        <pt x="666" y="182" on="0"/>
        <pt x="681" y="262" on="1"/>
        <pt x="708" y="262" on="1"/>
        <pt x="708" y="0" on="1"/>
        <pt x="684" y="0" on="1"/>
        <pt x="638" y="66" on="1"/>
        <pt x="584" y="26" on="0"/>
        <pt x="480" y="-10" on="0"/>
        <pt x="418" y="-10" on="1"/>
        <pt x="337" y="-10" on="0"/>
        <pt x="204" y="47" on="0"/>
        <pt x="109" y="150" on="0"/>
        <pt x="56" y="293" on="0"/>
      </contour>
    </TTGlyph>
    <TTGlyph name="Cacute" xMin="56" yMin="-10" xMax="708" yMax="960">
      <contour>
        <pt x="56" y="380" on="1"/>
        <pt x="56" y="468" on="0"/>
        <pt x="110" y="615" on="0"/>
        <pt x="207" y="721" on="0"/>
        <pt x="342" y="780" on="0"/>
        <pt x="422" y="780" on="1"/>
        <pt x="481" y="780" on="0"/>
        <pt x="592" y="748" on="0"/>
        <pt x="637" y="719" on="1"/>
        <pt x="641" y="719" on="1"/>
        <pt x="690" y="770" on="1"/>
        <pt x="708" y="770" on="1"/>
        <pt x="708" y="540" on="1"/>
        <pt x="678" y="540" on="1"/>
        <pt x="669" y="567" on="0"/>
        <pt x="648" y="611" on="0"/>
        <pt x="637" y="630" on="1"/>
        <pt x="602" y="687" on="0"/>
        <pt x="506" y="736" on="0"/>
        <pt x="439" y="736" on="1"/>
        <pt x="314" y="736" on="0"/>
        <pt x="182" y="555" on="0"/>
        <pt x="182" y="387" on="1"/>
        <pt x="182" y="219" on="0"/>
        <pt x="316" y="35" on="0"/>
        <pt x="440" y="35" on="1"/>
        <pt x="500" y="35" on="0"/>
        <pt x="596" y="82" on="0"/>
        <pt x="628" y="129" on="1"/>
        <pt x="666" y="182" on="0"/>
        <pt x="681" y="262" on="1"/>
        <pt x="708" y="262" on="1"/>
        <pt x="708" y="0" on="1"/>
        <pt x="684" y="0" on="1"/>
        <pt x="638" y="66" on="1"/>
        <pt x="584" y="26" on="0"/>
        <pt x="480" y="-10" on="0"/>
        <pt x="418" y="-10" on="1"/>
        <pt x="337" y="-10" on="0"/>
        <pt x="204" y="47" on="0"/>
        <pt x="109" y="150" on="0"/>
        <pt x="56" y="293" on="0"/>
      </contour>
      <contour>
        <pt x="320" y="837" on="1"/>
        <pt x="464" y="944" on="1"/>
        <pt x="486" y="960" on="0"/>
        <pt x="508" y="960" on="1"/>
        <pt x="525" y="960" on="0"/>
        <pt x="551" y="936" on="0"/>
        <pt x="551" y="917" on="1"/>
        <pt x="551" y="900" on="0"/>
        <pt x="522" y="871" on="0"/>
        <pt x="483" y="860" on="1"/>
        <pt x="331" y="816" on="1"/>
      </contour>
    </TTGlyph>
    <TTGlyph name="Ccaron" xMin="56" yMin="-10" xMax="708" yMax="970">
      <contour>
        <pt x="56" y="380" on="1"/>
        <pt x="56" y="468" on="0"/>
        <pt x="110" y="615" on="0"/>
        <pt x="207" y="721" on="0"/>
        <pt x="342" y="780" on="0"/>
        <pt x="422" y="780" on="1"/>
        <pt x="481" y="780" on="0"/>
        <pt x="592" y="748" on="0"/>
        <pt x="637" y="719" on="1"/>
        <pt x="641" y="719" on="1"/>
        <pt x="690" y="770" on="1"/>
        <pt x="708" y="770" on="1"/>
        <pt x="708" y="540" on="1"/>
        <pt x="678" y="540" on="1"/>
        <pt x="669" y="567" on="0"/>
        <pt x="648" y="611" on="0"/>
        <pt x="637" y="630" on="1"/>
        <pt x="602" y="687" on="0"/>
        <pt x="506" y="736" on="0"/>
        <pt x="439" y="736" on="1"/>
        <pt x="314" y="736" on="0"/>
        <pt x="182" y="555" on="0"/>
        <pt x="182" y="387" on="1"/>
        <pt x="182" y="219" on="0"/>
        <pt x="316" y="35" on="0"/>
        <pt x="440" y="35" on="1"/>
        <pt x="500" y="35" on="0"/>
        <pt x="596" y="82" on="0"/>
        <pt x="628" y="129" on="1"/>
        <pt x="666" y="182" on="0"/>
        <pt x="681" y="262" on="1"/>
        <pt x="708" y="262" on="1"/>
        <pt x="708" y="0" on="1"/>
        <pt x="684" y="0" on="1"/>
        <pt x="638" y="66" on="1"/>
        <pt x="584" y="26" on="0"/>
        <pt x="480" y="-10" on="0"/>
        <pt x="418" y="-10" on="1"/>
        <pt x="337" y="-10" on="0"/>
        <pt x="204" y="47" on="0"/>
        <pt x="109" y="150" on="0"/>
        <pt x="56" y="293" on="0"/>
      </contour>
      <contour>
        <pt x="441" y="830" on="1"/>
        <pt x="422" y="830" on="0"/>
        <pt x="401" y="844" on="0"/>
        <pt x="388" y="857" on="1"/>
        <pt x="294" y="953" on="1"/>
        <pt x="314" y="970" on="1"/>
        <pt x="441" y="912" on="1"/>
        <pt x="570" y="970" on="1"/>
        <pt x="589" y="953" on="1"/>
        <pt x="496" y="857" on="1"/>
        <pt x="482" y="843" on="0"/>
        <pt x="458" y="830" on="0"/>
      </contour>
    </TTGlyph>
    <TTGlyph name="Ccedilla" xMin="56" yMin="-257" xMax="708" yMax="780">
      <contour>
        <pt x="337" y="-203" on="1"/>
        <pt x="354" y="-213" on="0"/>
        <pt x="378" y="-220" on="0"/>
        <pt x="393" y="-220" on="1"/>
        <pt x="423" y="-220" on="0"/>
        <pt x="458" y="-191" on="0"/>
        <pt x="458" y="-168" on="1"/>
        <pt x="458" y="-125" on="0"/>
        <pt x="410" y="-125" on="1"/>
        <pt x="385" y="-125" on="0"/>
        <pt x="359" y="-133" on="1"/>
        <pt x="350" y="-124" on="1"/>
        <pt x="399" y="-9" on="1"/>
        <pt x="322" y="-6" on="0"/>
        <pt x="196" y="54" on="0"/>
        <pt x="106" y="156" on="0"/>
        <pt x="56" y="296" on="0"/>
        <pt x="56" y="380" on="1"/>
        <pt x="56" y="468" on="0"/>
        <pt x="110" y="615" on="0"/>
        <pt x="207" y="721" on="0"/>
        <pt x="342" y="780" on="0"/>
        <pt x="422" y="780" on="1"/>
        <pt x="481" y="780" on="0"/>
        <pt x="592" y="748" on="0"/>
        <pt x="637" y="719" on="1"/>
        <pt x="641" y="719" on="1"/>
        <pt x="690" y="770" on="1"/>
        <pt x="708" y="770" on="1"/>
        <pt x="708" y="540" on="1"/>
        <pt x="678" y="540" on="1"/>
        <pt x="669" y="567" on="0"/>
        <pt x="648" y="611" on="0"/>
        <pt x="637" y="630" on="1"/>
        <pt x="602" y="687" on="0"/>
        <pt x="506" y="736" on="0"/>
        <pt x="439" y="736" on="1"/>
        <pt x="314" y="736" on="0"/>
        <pt x="182" y="555" on="0"/>
        <pt x="182" y="387" on="1"/>
        <pt x="182" y="219" on="0"/>
        <pt x="316" y="35" on="0"/>
        <pt x="440" y="35" on="1"/>
        <pt x="500" y="35" on="0"/>
        <pt x="596" y="82" on="0"/>
        <pt x="628" y="129" on="1"/>
        <pt x="666" y="182" on="0"/>
        <pt x="681" y="262" on="1"/>
        <pt x="708" y="262" on="1"/>
        <pt x="708" y="0" on="1"/>
        <pt x="684" y="0" on="1"/>
        <pt x="638" y="66" on="1"/>
        <pt x="588" y="29" on="0"/>
        <pt x="492" y="-7" on="0"/>
        <pt x="436" y="-9" on="1"/>
        <pt x="418" y="-58" on="1"/>
        <pt x="472" y="-58" on="0"/>
        <pt x="533" y="-114" on="0"/>
        <pt x="533" y="-156" on="1"/>
        <pt x="533" y="-200" on="0"/>
        <pt x="462" y="-257" on="0"/>
        <pt x="401" y="-257" on="1"/>
        <pt x="378" y="-257" on="0"/>
        <pt x="336" y="-244" on="0"/>
        <pt x="323" y="-233" on="1"/>
      </contour>
    </TTGlyph>
    <TTGlyph name="Ccircumflex" xMin="56" yMin="-10" xMax="708" yMax="960">
      <contour>
        <pt x="56" y="380" on="1"/>
        <pt x="56" y="468" on="0"/>
        <pt x="110" y="615" on="0"/>
        <pt x="207" y="721" on="0"/>
        <pt x="342" y="780" on="0"/>
        <pt x="422" y="780" on="1"/>
        <pt x="481" y="780" on="0"/>
        <pt x="592" y="748" on="0"/>
        <pt x="637" y="719" on="1"/>
        <pt x="641" y="719" on="1"/>
        <pt x="690" y="770" on="1"/>
        <pt x="708" y="770" on="1"/>
        <pt x="708" y="540" on="1"/>
        <pt x="678" y="540" on="1"/>
        <pt x="669" y="567" on="0"/>
        <pt x="648" y="611" on="0"/>
        <pt x="637" y="630" on="1"/>
        <pt x="602" y="687" on="0"/>
        <pt x="506" y="736" on="0"/>
        <pt x="439" y="736" on="1"/>
        <pt x="314" y="736" on="0"/>
        <pt x="182" y="555" on="0"/>
        <pt x="182" y="387" on="1"/>
        <pt x="182" y="219" on="0"/>
        <pt x="316" y="35" on="0"/>
        <pt x="440" y="35" on="1"/>
        <pt x="500" y="35" on="0"/>
        <pt x="596" y="82" on="0"/>
        <pt x="628" y="129" on="1"/>
        <pt x="666" y="182" on="0"/>
        <pt x="681" y="262" on="1"/>
        <pt x="708" y="262" on="1"/>
        <pt x="708" y="0" on="1"/>
        <pt x="684" y="0" on="1"/>
        <pt x="638" y="66" on="1"/>
        <pt x="584" y="26" on="0"/>
        <pt x="480" y="-10" on="0"/>
        <pt x="418" y="-10" on="1"/>
        <pt x="337" y="-10" on="0"/>
        <pt x="204" y="47" on="0"/>
        <pt x="109" y="150" on="0"/>
        <pt x="56" y="293" on="0"/>
      </contour>
      <contour>
        <pt x="433" y="960" on="1"/>
        <pt x="450" y="960" on="0"/>
        <pt x="474" y="947" on="0"/>
        <pt x="488" y="933" on="1"/>
        <pt x="581" y="837" on="1"/>
        <pt x="562" y="820" on="1"/>
        <pt x="433" y="878" on="1"/>
        <pt x="306" y="820" on="1"/>
        <pt x="286" y="837" on="1"/>
        <pt x="380" y="933" on="1"/>
        <pt x="393" y="946" on="0"/>
        <pt x="414" y="960" on="0"/>
      </contour>
    </TTGlyph>
    <TTGlyph name="Cdotaccent" xMin="56" yMin="-10" xMax="708" yMax="959">
      <contour>
        <pt x="56" y="380" on="1"/>
        <pt x="56" y="468" on="0"/>
        <pt x="110" y="615" on="0"/>
        <pt x="207" y="721" on="0"/>
        <pt x="342" y="780" on="0"/>
        <pt x="422" y="780" on="1"/>
        <pt x="481" y="780" on="0"/>
        <pt x="592" y="748" on="0"/>
        <pt x="637" y="719" on="1"/>
        <pt x="641" y="719" on="1"/>
        <pt x="690" y="770" on="1"/>
        <pt x="708" y="770" on="1"/>
        <pt x="708" y="540" on="1"/>
        <pt x="678" y="540" on="1"/>
        <pt x="669" y="567" on="0"/>
        <pt x="648" y="611" on="0"/>
        <pt x="637" y="630" on="1"/>
        <pt x="602" y="687" on="0"/>
        <pt x="506" y="736" on="0"/>
        <pt x="439" y="736" on="1"/>
        <pt x="314" y="736" on="0"/>
        <pt x="182" y="555" on="0"/>
        <pt x="182" y="387" on="1"/>
        <pt x="182" y="219" on="0"/>
        <pt x="316" y="35" on="0"/>
        <pt x="440" y="35" on="1"/>
        <pt x="500" y="35" on="0"/>
        <pt x="596" y="82" on="0"/>
        <pt x="628" y="129" on="1"/>
        <pt x="666" y="182" on="0"/>
        <pt x="681" y="262" on="1"/>
        <pt x="708" y="262" on="1"/>
        <pt x="708" y="0" on="1"/>
        <pt x="684" y="0" on="1"/>
        <pt x="638" y="66" on="1"/>
        <pt x="584" y="26" on="0"/>
        <pt x="480" y="-10" on="0"/>
        <pt x="418" y="-10" on="1"/>
        <pt x="337" y="-10" on="0"/>
        <pt x="204" y="47" on="0"/>
        <pt x="109" y="150" on="0"/>
        <pt x="56" y="293" on="0"/>
      </contour>
      <contour>
        <pt x="377" y="894" on="1"/>
        <pt x="377" y="922" on="0"/>
        <pt x="412" y="959" on="0"/>
        <pt x="441" y="959" on="1"/>
        <pt x="471" y="959" on="0"/>
        <pt x="506" y="922" on="0"/>
        <pt x="506" y="894" on="1"/>
        <pt x="506" y="868" on="0"/>
        <pt x="471" y="830" on="0"/>
        <pt x="441" y="830" on="1"/>
        <pt x="412" y="830" on="0"/>
        <pt x="377" y="868" on="0"/>
      </contour>
    </TTGlyph>
    <TTGlyph name="D" xMin="49" yMin="0" xMax="753" yMax="770">
      <contour>
        <pt x="49" y="0" on="1"/>
        <pt x="49" y="23" on="1"/>
        <pt x="134" y="42" on="1"/>
        <pt x="134" y="728" on="1"/>
        <pt x="49" y="747" on="1"/>
        <pt x="49" y="770" on="1"/>
        <pt x="298" y="770" on="1"/>
        <pt x="358" y="770" on="0"/>
        <pt x="451" y="762" on="0"/>
        <pt x="526" y="745" on="0"/>
        <pt x="586" y="717" on="0"/>
        <pt x="612" y="697" on="1"/>
        <pt x="680" y="645" on="0"/>
        <pt x="753" y="482" on="0"/>
        <pt x="753" y="383" on="1"/>
        <pt x="753" y="281" on="0"/>
        <pt x="675" y="110" on="0"/>
        <pt x="605" y="59" on="1"/>
        <pt x="583" y="43" on="0"/>
        <pt x="537" y="21" on="0"/>
        <pt x="484" y="7" on="0"/>
        <pt x="421" y="0" on="0"/>
        <pt x="384" y="0" on="1"/>
      </contour>
      <contour>
        <pt x="343" y="38" on="1"/>
        <pt x="417" y="38" on="0"/>
        <pt x="510" y="75" on="0"/>
        <pt x="546" y="119" on="1"/>
        <pt x="586" y="169" on="0"/>
        <pt x="628" y="310" on="0"/>
        <pt x="628" y="395" on="1"/>
        <pt x="628" y="567" on="0"/>
        <pt x="543" y="657" on="1"/>
        <pt x="505" y="697" on="0"/>
        <pt x="402" y="730" on="0"/>
        <pt x="318" y="730" on="1"/>
        <pt x="239" y="730" on="1"/>
        <pt x="239" y="98" on="1"/>
        <pt x="239" y="63" on="0"/>
        <pt x="284" y="38" on="0"/>
      </contour>
    </TTGlyph>
    <TTGlyph name="Dcaron" xMin="49" yMin="0" xMax="753" yMax="960">
      <contour>
        <pt x="49" y="0" on="1"/>
        <pt x="49" y="23" on="1"/>
        <pt x="134" y="42" on="1"/>
        <pt x="134" y="728" on="1"/>
        <pt x="49" y="747" on="1"/>
        <pt x="49" y="770" on="1"/>
        <pt x="298" y="770" on="1"/>
        <pt x="358" y="770" on="0"/>
        <pt x="451" y="762" on="0"/>
        <pt x="526" y="745" on="0"/>
        <pt x="586" y="717" on="0"/>
        <pt x="612" y="697" on="1"/>
        <pt x="680" y="645" on="0"/>
        <pt x="753" y="482" on="0"/>
        <pt x="753" y="383" on="1"/>
        <pt x="753" y="281" on="0"/>
        <pt x="675" y="110" on="0"/>
        <pt x="605" y="59" on="1"/>
        <pt x="583" y="43" on="0"/>
        <pt x="537" y="21" on="0"/>
        <pt x="484" y="7" on="0"/>
        <pt x="421" y="0" on="0"/>
        <pt x="384" y="0" on="1"/>
      </contour>
      <contour>
        <pt x="343" y="38" on="1"/>
        <pt x="417" y="38" on="0"/>
        <pt x="510" y="75" on="0"/>
        <pt x="546" y="119" on="1"/>
        <pt x="586" y="169" on="0"/>
        <pt x="628" y="310" on="0"/>
        <pt x="628" y="395" on="1"/>
        <pt x="628" y="567" on="0"/>
        <pt x="543" y="657" on="1"/>
        <pt x="505" y="697" on="0"/>
        <pt x="402" y="730" on="0"/>
        <pt x="318" y="730" on="1"/>
        <pt x="239" y="730" on="1"/>
        <pt x="239" y="98" on="1"/>
        <pt x="239" y="63" on="0"/>
        <pt x="284" y="38" on="0"/>
      </contour>
      <contour>
        <pt x="384" y="820" on="1"/>
        <pt x="365" y="820" on="0"/>
        <pt x="344" y="834" on="0"/>
        <pt x="331" y="847" on="1"/>
        <pt x="237" y="943" on="1"/>
        <pt x="257" y="960" on="1"/>
        <pt x="384" y="902" on="1"/>
        <pt x="513" y="960" on="1"/>
        <pt x="532" y="943" on="1"/>
        <pt x="439" y="847" on="1"/>
        <pt x="425" y="833" on="0"/>
        <pt x="401" y="820" on="0"/>
      </contour>
    </TTGlyph>
    <TTGlyph name="Dcroat" xMin="50" yMin="0" xMax="754" yMax="770">
      <contour>
        <pt x="50" y="0" on="1"/>
        <pt x="50" y="23" on="1"/>
        <pt x="135" y="42" on="1"/>
        <pt x="135" y="364" on="1"/>
        <pt x="56" y="364" on="1"/>
        <pt x="56" y="429" on="1"/>
        <pt x="135" y="429" on="1"/>
        <pt x="135" y="728" on="1"/>
        <pt x="50" y="747" on="1"/>
        <pt x="50" y="770" on="1"/>
        <pt x="299" y="770" on="1"/>
        <pt x="359" y="770" on="0"/>
        <pt x="452" y="762" on="0"/>
        <pt x="527" y="745" on="0"/>
        <pt x="587" y="717" on="0"/>
        <pt x="613" y="697" on="1"/>
        <pt x="681" y="645" on="0"/>
        <pt x="754" y="482" on="0"/>
        <pt x="754" y="383" on="1"/>
        <pt x="754" y="281" on="0"/>
        <pt x="676" y="110" on="0"/>
        <pt x="606" y="59" on="1"/>
        <pt x="584" y="43" on="0"/>
        <pt x="538" y="21" on="0"/>
        <pt x="485" y="7" on="0"/>
        <pt x="422" y="0" on="0"/>
        <pt x="385" y="0" on="1"/>
      </contour>
      <contour>
        <pt x="344" y="38" on="1"/>
        <pt x="418" y="38" on="0"/>
        <pt x="511" y="75" on="0"/>
        <pt x="547" y="119" on="1"/>
        <pt x="587" y="169" on="0"/>
        <pt x="629" y="310" on="0"/>
        <pt x="629" y="395" on="1"/>
        <pt x="629" y="567" on="0"/>
        <pt x="544" y="657" on="1"/>
        <pt x="506" y="697" on="0"/>
        <pt x="403" y="730" on="0"/>
        <pt x="319" y="730" on="1"/>
        <pt x="240" y="730" on="1"/>
        <pt x="240" y="429" on="1"/>
        <pt x="363" y="429" on="1"/>
        <pt x="363" y="364" on="1"/>
        <pt x="240" y="364" on="1"/>
        <pt x="240" y="98" on="1"/>
        <pt x="240" y="63" on="0"/>
        <pt x="285" y="38" on="0"/>
      </contour>
    </TTGlyph>
    <TTGlyph name="Ddotbelow" xMin="49" yMin="-256" xMax="753" yMax="770">
      <contour>
        <pt x="49" y="0" on="1"/>
        <pt x="49" y="23" on="1"/>
        <pt x="134" y="42" on="1"/>
        <pt x="134" y="728" on="1"/>
        <pt x="49" y="747" on="1"/>
        <pt x="49" y="770" on="1"/>
        <pt x="298" y="770" on="1"/>
        <pt x="358" y="770" on="0"/>
        <pt x="451" y="762" on="0"/>
        <pt x="526" y="745" on="0"/>
        <pt x="586" y="717" on="0"/>
        <pt x="612" y="697" on="1"/>
        <pt x="680" y="645" on="0"/>
        <pt x="753" y="482" on="0"/>
        <pt x="753" y="383" on="1"/>
        <pt x="753" y="281" on="0"/>
        <pt x="675" y="110" on="0"/>
        <pt x="605" y="59" on="1"/>
        <pt x="583" y="43" on="0"/>
        <pt x="537" y="21" on="0"/>
        <pt x="484" y="7" on="0"/>
        <pt x="421" y="0" on="0"/>
        <pt x="384" y="0" on="1"/>
      </contour>
      <contour>
        <pt x="343" y="38" on="1"/>
        <pt x="417" y="38" on="0"/>
        <pt x="510" y="75" on="0"/>
        <pt x="546" y="119" on="1"/>
        <pt x="586" y="169" on="0"/>
        <pt x="628" y="310" on="0"/>
        <pt x="628" y="395" on="1"/>
        <pt x="628" y="567" on="0"/>
        <pt x="543" y="657" on="1"/>
        <pt x="505" y="697" on="0"/>
        <pt x="402" y="730" on="0"/>
        <pt x="318" y="730" on="1"/>
        <pt x="239" y="730" on="1"/>
        <pt x="239" y="98" on="1"/>
        <pt x="239" y="63" on="0"/>
        <pt x="284" y="38" on="0"/>
      </contour>
      <contour>
        <pt x="335" y="-192" on="1"/>
        <pt x="335" y="-164" on="0"/>
        <pt x="370" y="-127" on="0"/>
        <pt x="399" y="-127" on="1"/>
        <pt x="429" y="-127" on="0"/>
        <pt x="464" y="-164" on="0"/>
        <pt x="464" y="-192" on="1"/>
        <pt x="464" y="-218" on="0"/>
        <pt x="429" y="-256" on="0"/>
        <pt x="399" y="-256" on="1"/>
        <pt x="370" y="-256" on="0"/>
        <pt x="335" y="-218" on="0"/>
      </contour>
    </TTGlyph>
    <TTGlyph name="E" xMin="49" yMin="0" xMax="638" yMax="770">
      <contour>
        <pt x="239" y="730" on="1"/>
        <pt x="239" y="426" on="1"/>
        <pt x="418" y="426" on="1"/>
        <pt x="432" y="456" on="0"/>
        <pt x="450" y="516" on="0"/>
        <pt x="455" y="546" on="1"/>
        <pt x="479" y="546" on="1"/>
        <pt x="479" y="266" on="1"/>
        <pt x="455" y="266" on="1"/>
        <pt x="446" y="328" on="0"/>
        <pt x="418" y="386" on="1"/>
        <pt x="239" y="386" on="1"/>
        <pt x="239" y="40" on="1"/>
        <pt x="521" y="40" on="1"/>
        <pt x="551" y="89" on="0"/>
        <pt x="588" y="185" on="0"/>
        <pt x="605" y="234" on="1"/>
        <pt x="638" y="234" on="1"/>
        <pt x="601" y="0" on="1"/>
        <pt x="49" y="0" on="1"/>
        <pt x="49" y="23" on="1"/>
        <pt x="134" y="42" on="1"/>
        <pt x="134" y="728" on="1"/>
        <pt x="49" y="747" on="1"/>
        <pt x="49" y="770" on="1"/>
        <pt x="605" y="770" on="1"/>
        <pt x="622" y="550" on="1"/>
        <pt x="598" y="550" on="1"/>
        <pt x="586" y="593" on="0"/>
        <pt x="551" y="687" on="0"/>
        <pt x="526" y="730" on="1"/>
      </contour>
    </TTGlyph>
    <TTGlyph name="Eacute" xMin="49" yMin="0" xMax="638" yMax="960">
      <contour>
        <pt x="239" y="730" on="1"/>
        <pt x="239" y="426" on="1"/>
        <pt x="418" y="426" on="1"/>
        <pt x="432" y="456" on="0"/>
        <pt x="450" y="516" on="0"/>
        <pt x="455" y="546" on="1"/>
        <pt x="479" y="546" on="1"/>
        <pt x="479" y="266" on="1"/>
        <pt x="455" y="266" on="1"/>
        <pt x="446" y="328" on="0"/>
        <pt x="418" y="386" on="1"/>
        <pt x="239" y="386" on="1"/>
        <pt x="239" y="40" on="1"/>
        <pt x="521" y="40" on="1"/>
        <pt x="551" y="89" on="0"/>
        <pt x="588" y="185" on="0"/>
        <pt x="605" y="234" on="1"/>
        <pt x="638" y="234" on="1"/>
        <pt x="601" y="0" on="1"/>
        <pt x="49" y="0" on="1"/>
        <pt x="49" y="23" on="1"/>
        <pt x="134" y="42" on="1"/>
        <pt x="134" y="728" on="1"/>
        <pt x="49" y="747" on="1"/>
        <pt x="49" y="770" on="1"/>
        <pt x="605" y="770" on="1"/>
        <pt x="622" y="550" on="1"/>
        <pt x="598" y="550" on="1"/>
        <pt x="586" y="593" on="0"/>
        <pt x="551" y="687" on="0"/>
        <pt x="526" y="730" on="1"/>
      </contour>
      <contour>
        <pt x="254" y="837" on="1"/>
        <pt x="398" y="944" on="1"/>
        <pt x="420" y="960" on="0"/>
        <pt x="442" y="960" on="1"/>
        <pt x="459" y="960" on="0"/>
        <pt x="485" y="936" on="0"/>
        <pt x="485" y="917" on="1"/>
        <pt x="485" y="900" on="0"/>
        <pt x="456" y="871" on="0"/>
        <pt x="417" y="860" on="1"/>
        <pt x="265" y="816" on="1"/>
      </contour>
    </TTGlyph>
    <TTGlyph name="Ebreve" xMin="49" yMin="0" xMax="638" yMax="959">
      <contour>
        <pt x="239" y="730" on="1"/>
        <pt x="239" y="426" on="1"/>
        <pt x="418" y="426" on="1"/>
        <pt x="432" y="456" on="0"/>
        <pt x="450" y="516" on="0"/>
        <pt x="455" y="546" on="1"/>
        <pt x="479" y="546" on="1"/>
        <pt x="479" y="266" on="1"/>
        <pt x="455" y="266" on="1"/>
        <pt x="446" y="328" on="0"/>
        <pt x="418" y="386" on="1"/>
        <pt x="239" y="386" on="1"/>
        <pt x="239" y="40" on="1"/>
        <pt x="521" y="40" on="1"/>
        <pt x="551" y="89" on="0"/>
        <pt x="588" y="185" on="0"/>
        <pt x="605" y="234" on="1"/>
        <pt x="638" y="234" on="1"/>
        <pt x="601" y="0" on="1"/>
        <pt x="49" y="0" on="1"/>
        <pt x="49" y="23" on="1"/>
        <pt x="134" y="42" on="1"/>
        <pt x="134" y="728" on="1"/>
        <pt x="49" y="747" on="1"/>
        <pt x="49" y="770" on="1"/>
        <pt x="605" y="770" on="1"/>
        <pt x="622" y="550" on="1"/>
        <pt x="598" y="550" on="1"/>
        <pt x="586" y="593" on="0"/>
        <pt x="551" y="687" on="0"/>
        <pt x="526" y="730" on="1"/>
      </contour>
      <contour>
        <pt x="254" y="959" on="1"/>
        <pt x="266" y="930" on="0"/>
        <pt x="325" y="904" on="0"/>
        <pt x="360" y="904" on="1"/>
        <pt x="393" y="904" on="0"/>
        <pt x="452" y="930" on="0"/>
        <pt x="469" y="959" on="1"/>
        <pt x="503" y="959" on="1"/>
        <pt x="491" y="916" on="0"/>
        <pt x="454" y="865" on="0"/>
        <pt x="413" y="838" on="0"/>
        <pt x="372" y="830" on="0"/>
        <pt x="356" y="830" on="1"/>
        <pt x="334" y="830" on="0"/>
        <pt x="289" y="843" on="0"/>
        <pt x="251" y="873" on="0"/>
        <pt x="223" y="923" on="0"/>
        <pt x="219" y="959" on="1"/>
      </contour>
    </TTGlyph>
    <TTGlyph name="Ecaron" xMin="49" yMin="0" xMax="638" yMax="960">
      <contour>
        <pt x="239" y="730" on="1"/>
        <pt x="239" y="426" on="1"/>
        <pt x="418" y="426" on="1"/>
        <pt x="432" y="456" on="0"/>
        <pt x="450" y="516" on="0"/>
        <pt x="455" y="546" on="1"/>
        <pt x="479" y="546" on="1"/>
        <pt x="479" y="266" on="1"/>
        <pt x="455" y="266" on="1"/>
        <pt x="446" y="328" on="0"/>
        <pt x="418" y="386" on="1"/>
        <pt x="239" y="386" on="1"/>
        <pt x="239" y="40" on="1"/>
        <pt x="521" y="40" on="1"/>
        <pt x="551" y="89" on="0"/>
        <pt x="588" y="185" on="0"/>
        <pt x="605" y="234" on="1"/>
        <pt x="638" y="234" on="1"/>
        <pt x="601" y="0" on="1"/>
        <pt x="49" y="0" on="1"/>
        <pt x="49" y="23" on="1"/>
        <pt x="134" y="42" on="1"/>
        <pt x="134" y="728" on="1"/>
        <pt x="49" y="747" on="1"/>
        <pt x="49" y="770" on="1"/>
        <pt x="605" y="770" on="1"/>
        <pt x="622" y="550" on="1"/>
        <pt x="598" y="550" on="1"/>
        <pt x="586" y="593" on="0"/>
        <pt x="551" y="687" on="0"/>
        <pt x="526" y="730" on="1"/>
      </contour>
      <contour>
        <pt x="352" y="820" on="1"/>
        <pt x="333" y="820" on="0"/>
        <pt x="312" y="834" on="0"/>
        <pt x="299" y="847" on="1"/>
        <pt x="205" y="943" on="1"/>
        <pt x="225" y="960" on="1"/>
        <pt x="352" y="902" on="1"/>
        <pt x="481" y="960" on="1"/>
        <pt x="500" y="943" on="1"/>
        <pt x="407" y="847" on="1"/>
        <pt x="393" y="833" on="0"/>
        <pt x="369" y="820" on="0"/>
      </contour>
    </TTGlyph>
    <TTGlyph name="Ecircumflex" xMin="49" yMin="0" xMax="638" yMax="960">
      <contour>
        <pt x="239" y="730" on="1"/>
        <pt x="239" y="426" on="1"/>
        <pt x="418" y="426" on="1"/>
        <pt x="432" y="456" on="0"/>
        <pt x="450" y="516" on="0"/>
        <pt x="455" y="546" on="1"/>
        <pt x="479" y="546" on="1"/>
        <pt x="479" y="266" on="1"/>
        <pt x="455" y="266" on="1"/>
        <pt x="446" y="328" on="0"/>
        <pt x="418" y="386" on="1"/>
        <pt x="239" y="386" on="1"/>
        <pt x="239" y="40" on="1"/>
        <pt x="521" y="40" on="1"/>
        <pt x="551" y="89" on="0"/>
        <pt x="588" y="185" on="0"/>
        <pt x="605" y="234" on="1"/>
        <pt x="638" y="234" on="1"/>
        <pt x="601" y="0" on="1"/>
        <pt x="49" y="0" on="1"/>
        <pt x="49" y="23" on="1"/>
        <pt x="134" y="42" on="1"/>
        <pt x="134" y="728" on="1"/>
        <pt x="49" y="747" on="1"/>
        <pt x="49" y="770" on="1"/>
        <pt x="605" y="770" on="1"/>
        <pt x="622" y="550" on="1"/>
        <pt x="598" y="550" on="1"/>
        <pt x="586" y="593" on="0"/>
        <pt x="551" y="687" on="0"/>
        <pt x="526" y="730" on="1"/>
      </contour>
      <contour>
        <pt x="364" y="960" on="1"/>
        <pt x="381" y="960" on="0"/>
        <pt x="405" y="947" on="0"/>
        <pt x="419" y="933" on="1"/>
        <pt x="512" y="837" on="1"/>
        <pt x="493" y="820" on="1"/>
        <pt x="364" y="878" on="1"/>
        <pt x="237" y="820" on="1"/>
        <pt x="217" y="837" on="1"/>
        <pt x="311" y="933" on="1"/>
        <pt x="324" y="946" on="0"/>
        <pt x="345" y="960" on="0"/>
      </contour>
    </TTGlyph>
    <TTGlyph name="Edieresis" xMin="49" yMin="0" xMax="638" yMax="940">
      <contour>
        <pt x="239" y="730" on="1"/>
        <pt x="239" y="426" on="1"/>
        <pt x="418" y="426" on="1"/>
        <pt x="432" y="456" on="0"/>
        <pt x="450" y="516" on="0"/>
        <pt x="455" y="546" on="1"/>
        <pt x="479" y="546" on="1"/>
        <pt x="479" y="266" on="1"/>
        <pt x="455" y="266" on="1"/>
        <pt x="446" y="328" on="0"/>
        <pt x="418" y="386" on="1"/>
        <pt x="239" y="386" on="1"/>
        <pt x="239" y="40" on="1"/>
        <pt x="521" y="40" on="1"/>
        <pt x="551" y="89" on="0"/>
        <pt x="588" y="185" on="0"/>
        <pt x="605" y="234" on="1"/>
        <pt x="638" y="234" on="1"/>
        <pt x="601" y="0" on="1"/>
        <pt x="49" y="0" on="1"/>
        <pt x="49" y="23" on="1"/>
        <pt x="134" y="42" on="1"/>
        <pt x="134" y="728" on="1"/>
        <pt x="49" y="747" on="1"/>
        <pt x="49" y="770" on="1"/>
        <pt x="605" y="770" on="1"/>
        <pt x="622" y="550" on="1"/>
        <pt x="598" y="550" on="1"/>
        <pt x="586" y="593" on="0"/>
        <pt x="551" y="687" on="0"/>
        <pt x="526" y="730" on="1"/>
      </contour>
      <contour>
        <pt x="208" y="885" on="1"/>
        <pt x="208" y="909" on="0"/>
        <pt x="238" y="940" on="0"/>
        <pt x="263" y="940" on="1"/>
        <pt x="289" y="940" on="0"/>
        <pt x="318" y="909" on="0"/>
        <pt x="318" y="885" on="1"/>
        <pt x="318" y="862" on="0"/>
        <pt x="289" y="830" on="0"/>
        <pt x="263" y="830" on="1"/>
        <pt x="238" y="830" on="0"/>
        <pt x="208" y="862" on="0"/>
      </contour>
      <contour>
        <pt x="395" y="885" on="1"/>
        <pt x="395" y="909" on="0"/>
        <pt x="425" y="940" on="0"/>
        <pt x="450" y="940" on="1"/>
        <pt x="476" y="940" on="0"/>
        <pt x="505" y="909" on="0"/>
        <pt x="505" y="885" on="1"/>
        <pt x="505" y="862" on="0"/>
        <pt x="476" y="830" on="0"/>
        <pt x="450" y="830" on="1"/>
        <pt x="425" y="830" on="0"/>
        <pt x="395" y="862" on="0"/>
      </contour>
    </TTGlyph>
    <TTGlyph name="Edotaccent" xMin="49" yMin="0" xMax="638" yMax="959">
      <contour>
        <pt x="239" y="730" on="1"/>
        <pt x="239" y="426" on="1"/>
        <pt x="418" y="426" on="1"/>
        <pt x="432" y="456" on="0"/>
        <pt x="450" y="516" on="0"/>
        <pt x="455" y="546" on="1"/>
        <pt x="479" y="546" on="1"/>
        <pt x="479" y="266" on="1"/>
        <pt x="455" y="266" on="1"/>
        <pt x="446" y="328" on="0"/>
        <pt x="418" y="386" on="1"/>
        <pt x="239" y="386" on="1"/>
        <pt x="239" y="40" on="1"/>
        <pt x="521" y="40" on="1"/>
        <pt x="551" y="89" on="0"/>
        <pt x="588" y="185" on="0"/>
        <pt x="605" y="234" on="1"/>
        <pt x="638" y="234" on="1"/>
        <pt x="601" y="0" on="1"/>
        <pt x="49" y="0" on="1"/>
        <pt x="49" y="23" on="1"/>
        <pt x="134" y="42" on="1"/>
        <pt x="134" y="728" on="1"/>
        <pt x="49" y="747" on="1"/>
        <pt x="49" y="770" on="1"/>
        <pt x="605" y="770" on="1"/>
        <pt x="622" y="550" on="1"/>
        <pt x="598" y="550" on="1"/>
        <pt x="586" y="593" on="0"/>
        <pt x="551" y="687" on="0"/>
        <pt x="526" y="730" on="1"/>
      </contour>
      <contour>
        <pt x="303" y="894" on="1"/>
        <pt x="303" y="922" on="0"/>
        <pt x="338" y="959" on="0"/>
        <pt x="367" y="959" on="1"/>
        <pt x="397" y="959" on="0"/>
        <pt x="432" y="922" on="0"/>
        <pt x="432" y="894" on="1"/>
        <pt x="432" y="868" on="0"/>
        <pt x="397" y="830" on="0"/>
        <pt x="367" y="830" on="1"/>
        <pt x="338" y="830" on="0"/>
        <pt x="303" y="868" on="0"/>
      </contour>
    </TTGlyph>
    <TTGlyph name="Edotbelow" xMin="49" yMin="-256" xMax="638" yMax="770">
      <contour>
        <pt x="239" y="730" on="1"/>
        <pt x="239" y="426" on="1"/>
        <pt x="418" y="426" on="1"/>
        <pt x="432" y="456" on="0"/>
        <pt x="450" y="516" on="0"/>
        <pt x="455" y="546" on="1"/>
        <pt x="479" y="546" on="1"/>
        <pt x="479" y="266" on="1"/>
        <pt x="455" y="266" on="1"/>
        <pt x="446" y="328" on="0"/>
        <pt x="418" y="386" on="1"/>
        <pt x="239" y="386" on="1"/>
        <pt x="239" y="40" on="1"/>
        <pt x="521" y="40" on="1"/>
        <pt x="551" y="89" on="0"/>
        <pt x="588" y="185" on="0"/>
        <pt x="605" y="234" on="1"/>
        <pt x="638" y="234" on="1"/>
        <pt x="601" y="0" on="1"/>
        <pt x="49" y="0" on="1"/>
        <pt x="49" y="23" on="1"/>
        <pt x="134" y="42" on="1"/>
        <pt x="134" y="728" on="1"/>
        <pt x="49" y="747" on="1"/>
        <pt x="49" y="770" on="1"/>
        <pt x="605" y="770" on="1"/>
        <pt x="622" y="550" on="1"/>
        <pt x="598" y="550" on="1"/>
        <pt x="586" y="593" on="0"/>
        <pt x="551" y="687" on="0"/>
        <pt x="526" y="730" on="1"/>
      </contour>
      <contour>
        <pt x="294" y="-192" on="1"/>
        <pt x="294" y="-164" on="0"/>
        <pt x="329" y="-127" on="0"/>
        <pt x="358" y="-127" on="1"/>
        <pt x="388" y="-127" on="0"/>
        <pt x="423" y="-164" on="0"/>
        <pt x="423" y="-192" on="1"/>
        <pt x="423" y="-218" on="0"/>
        <pt x="388" y="-256" on="0"/>
        <pt x="358" y="-256" on="1"/>
        <pt x="329" y="-256" on="0"/>
        <pt x="294" y="-218" on="0"/>
      </contour>
    </TTGlyph>
    <TTGlyph name="Egrave" xMin="49" yMin="0" xMax="638" yMax="960">
      <contour>
        <pt x="239" y="730" on="1"/>
        <pt x="239" y="426" on="1"/>
        <pt x="418" y="426" on="1"/>
        <pt x="432" y="456" on="0"/>
        <pt x="450" y="516" on="0"/>
        <pt x="455" y="546" on="1"/>
        <pt x="479" y="546" on="1"/>
        <pt x="479" y="266" on="1"/>
        <pt x="455" y="266" on="1"/>
        <pt x="446" y="328" on="0"/>
        <pt x="418" y="386" on="1"/>
        <pt x="239" y="386" on="1"/>
        <pt x="239" y="40" on="1"/>
        <pt x="521" y="40" on="1"/>
        <pt x="551" y="89" on="0"/>
        <pt x="588" y="185" on="0"/>
        <pt x="605" y="234" on="1"/>
        <pt x="638" y="234" on="1"/>
        <pt x="601" y="0" on="1"/>
        <pt x="49" y="0" on="1"/>
        <pt x="49" y="23" on="1"/>
        <pt x="134" y="42" on="1"/>
        <pt x="134" y="728" on="1"/>
        <pt x="49" y="747" on="1"/>
        <pt x="49" y="770" on="1"/>
        <pt x="605" y="770" on="1"/>
        <pt x="622" y="550" on="1"/>
        <pt x="598" y="550" on="1"/>
        <pt x="586" y="593" on="0"/>
        <pt x="551" y="687" on="0"/>
        <pt x="526" y="730" on="1"/>
      </contour>
      <contour>
        <pt x="441" y="816" on="1"/>
        <pt x="289" y="860" on="1"/>
        <pt x="250" y="871" on="0"/>
        <pt x="221" y="900" on="0"/>
        <pt x="221" y="917" on="1"/>
        <pt x="221" y="936" on="0"/>
        <pt x="247" y="960" on="0"/>
        <pt x="264" y="960" on="1"/>
        <pt x="286" y="960" on="0"/>
        <pt x="308" y="944" on="1"/>
        <pt x="452" y="837" on="1"/>
      </contour>
    </TTGlyph>
    <TTGlyph name="Emacron" xMin="49" yMin="0" xMax="638" yMax="948">
      <contour>
        <pt x="239" y="730" on="1"/>
        <pt x="239" y="426" on="1"/>
        <pt x="418" y="426" on="1"/>
        <pt x="432" y="456" on="0"/>
        <pt x="450" y="516" on="0"/>
        <pt x="455" y="546" on="1"/>
        <pt x="479" y="546" on="1"/>
        <pt x="479" y="266" on="1"/>
        <pt x="455" y="266" on="1"/>
        <pt x="446" y="328" on="0"/>
        <pt x="418" y="386" on="1"/>
        <pt x="239" y="386" on="1"/>
        <pt x="239" y="40" on="1"/>
        <pt x="521" y="40" on="1"/>
        <pt x="551" y="89" on="0"/>
        <pt x="588" y="185" on="0"/>
        <pt x="605" y="234" on="1"/>
        <pt x="638" y="234" on="1"/>
        <pt x="601" y="0" on="1"/>
        <pt x="49" y="0" on="1"/>
        <pt x="49" y="23" on="1"/>
        <pt x="134" y="42" on="1"/>
        <pt x="134" y="728" on="1"/>
        <pt x="49" y="747" on="1"/>
        <pt x="49" y="770" on="1"/>
        <pt x="605" y="770" on="1"/>
        <pt x="622" y="550" on="1"/>
        <pt x="598" y="550" on="1"/>
        <pt x="586" y="593" on="0"/>
        <pt x="551" y="687" on="0"/>
        <pt x="526" y="730" on="1"/>
      </contour>
      <contour>
        <pt x="214" y="877" on="1"/>
        <pt x="214" y="948" on="1"/>
        <pt x="501" y="948" on="1"/>
        <pt x="501" y="877" on="1"/>
      </contour>
    </TTGlyph>
    <TTGlyph name="Eng" xMin="45" yMin="-260" xMax="789" yMax="770">
      <contour>
        <pt x="699" y="120" on="1"/>
        <pt x="699" y="58" on="0"/>
        <pt x="696" y="-21" on="0"/>
        <pt x="688" y="-75" on="0"/>
        <pt x="675" y="-112" on="0"/>
        <pt x="665" y="-131" on="1"/>
        <pt x="630" y="-194" on="0"/>
        <pt x="519" y="-260" on="0"/>
        <pt x="457" y="-260" on="1"/>
        <pt x="401" y="-260" on="0"/>
        <pt x="337" y="-214" on="0"/>
        <pt x="337" y="-173" on="1"/>
        <pt x="337" y="-143" on="0"/>
        <pt x="369" y="-108" on="0"/>
        <pt x="396" y="-108" on="1"/>
        <pt x="417" y="-108" on="0"/>
        <pt x="443" y="-131" on="0"/>
        <pt x="451" y="-154" on="1"/>
        <pt x="462" y="-183" on="0"/>
        <pt x="492" y="-208" on="0"/>
        <pt x="512" y="-208" on="1"/>
        <pt x="547" y="-208" on="0"/>
        <pt x="594" y="-129" on="0"/>
        <pt x="594" y="-48" on="1"/>
        <pt x="594" y="83" on="1"/>
        <pt x="175" y="667" on="1"/>
        <pt x="175" y="42" on="1"/>
        <pt x="264" y="23" on="1"/>
        <pt x="264" y="0" on="1"/>
        <pt x="45" y="0" on="1"/>
        <pt x="45" y="23" on="1"/>
        <pt x="135" y="42" on="1"/>
        <pt x="135" y="728" on="1"/>
        <pt x="45" y="747" on="1"/>
        <pt x="45" y="770" on="1"/>
        <pt x="247" y="770" on="1"/>
        <pt x="659" y="204" on="1"/>
        <pt x="659" y="728" on="1"/>
        <pt x="570" y="747" on="1"/>
        <pt x="570" y="770" on="1"/>
        <pt x="789" y="770" on="1"/>
        <pt x="789" y="747" on="1"/>
        <pt x="699" y="728" on="1"/>
      </contour>
    </TTGlyph>
    <TTGlyph name="Eogonek" xMin="49" yMin="-256" xMax="638" yMax="770">
      <contour>
        <pt x="597" y="-202" on="1"/>
        <pt x="550" y="-256" on="0"/>
        <pt x="487" y="-256" on="1"/>
        <pt x="440" y="-256" on="0"/>
        <pt x="385" y="-209" on="0"/>
        <pt x="385" y="-168" on="1"/>
        <pt x="385" y="-129" on="0"/>
        <pt x="445" y="-41" on="0"/>
        <pt x="499" y="0" on="1"/>
        <pt x="49" y="0" on="1"/>
        <pt x="49" y="23" on="1"/>
        <pt x="134" y="42" on="1"/>
        <pt x="134" y="728" on="1"/>
        <pt x="49" y="747" on="1"/>
        <pt x="49" y="770" on="1"/>
        <pt x="605" y="770" on="1"/>
        <pt x="622" y="550" on="1"/>
        <pt x="598" y="550" on="1"/>
        <pt x="586" y="593" on="0"/>
        <pt x="551" y="687" on="0"/>
        <pt x="526" y="730" on="1"/>
        <pt x="239" y="730" on="1"/>
        <pt x="239" y="426" on="1"/>
        <pt x="418" y="426" on="1"/>
        <pt x="432" y="456" on="0"/>
        <pt x="450" y="516" on="0"/>
        <pt x="455" y="546" on="1"/>
        <pt x="479" y="546" on="1"/>
        <pt x="479" y="266" on="1"/>
        <pt x="455" y="266" on="1"/>
        <pt x="446" y="328" on="0"/>
        <pt x="418" y="386" on="1"/>
        <pt x="239" y="386" on="1"/>
        <pt x="239" y="40" on="1"/>
        <pt x="521" y="40" on="1"/>
        <pt x="551" y="89" on="0"/>
        <pt x="588" y="185" on="0"/>
        <pt x="605" y="234" on="1"/>
        <pt x="638" y="234" on="1"/>
        <pt x="601" y="0" on="1"/>
        <pt x="542" y="0" on="1"/>
        <pt x="473" y="-83" on="0"/>
        <pt x="473" y="-144" on="1"/>
        <pt x="473" y="-201" on="0"/>
        <pt x="526" y="-201" on="1"/>
        <pt x="540" y="-201" on="0"/>
        <pt x="565" y="-191" on="0"/>
        <pt x="582" y="-180" on="1"/>
      </contour>
    </TTGlyph>
    <TTGlyph name="Eth" xMin="50" yMin="0" xMax="754" yMax="770">
      <contour>
        <pt x="50" y="0" on="1"/>
        <pt x="50" y="23" on="1"/>
        <pt x="135" y="42" on="1"/>
        <pt x="135" y="364" on="1"/>
        <pt x="56" y="364" on="1"/>
        <pt x="56" y="429" on="1"/>
        <pt x="135" y="429" on="1"/>
        <pt x="135" y="728" on="1"/>
        <pt x="50" y="747" on="1"/>
        <pt x="50" y="770" on="1"/>
        <pt x="299" y="770" on="1"/>
        <pt x="359" y="770" on="0"/>
        <pt x="452" y="762" on="0"/>
        <pt x="527" y="745" on="0"/>
        <pt x="587" y="717" on="0"/>
        <pt x="613" y="697" on="1"/>
        <pt x="681" y="645" on="0"/>
        <pt x="754" y="482" on="0"/>
        <pt x="754" y="383" on="1"/>
        <pt x="754" y="281" on="0"/>
        <pt x="676" y="110" on="0"/>
        <pt x="606" y="59" on="1"/>
        <pt x="584" y="43" on="0"/>
        <pt x="538" y="21" on="0"/>
        <pt x="485" y="7" on="0"/>
        <pt x="422" y="0" on="0"/>
        <pt x="385" y="0" on="1"/>
      </contour>
      <contour>
        <pt x="344" y="38" on="1"/>
        <pt x="418" y="38" on="0"/>
        <pt x="511" y="75" on="0"/>
        <pt x="547" y="119" on="1"/>
        <pt x="587" y="169" on="0"/>
        <pt x="629" y="310" on="0"/>
        <pt x="629" y="395" on="1"/>
        <pt x="629" y="567" on="0"/>
        <pt x="544" y="657" on="1"/>
        <pt x="506" y="697" on="0"/>
        <pt x="403" y="730" on="0"/>
        <pt x="319" y="730" on="1"/>
        <pt x="240" y="730" on="1"/>
        <pt x="240" y="429" on="1"/>
        <pt x="363" y="429" on="1"/>
        <pt x="363" y="364" on="1"/>
        <pt x="240" y="364" on="1"/>
        <pt x="240" y="98" on="1"/>
        <pt x="240" y="63" on="0"/>
        <pt x="285" y="38" on="0"/>
      </contour>
    </TTGlyph>
    <TTGlyph name="Etilde" xMin="49" yMin="0" xMax="638" yMax="960">
      <contour>
        <pt x="239" y="730" on="1"/>
        <pt x="239" y="426" on="1"/>
        <pt x="418" y="426" on="1"/>
        <pt x="432" y="456" on="0"/>
        <pt x="450" y="516" on="0"/>
        <pt x="455" y="546" on="1"/>
        <pt x="479" y="546" on="1"/>
        <pt x="479" y="266" on="1"/>
        <pt x="455" y="266" on="1"/>
        <pt x="446" y="328" on="0"/>
        <pt x="418" y="386" on="1"/>
        <pt x="239" y="386" on="1"/>
        <pt x="239" y="40" on="1"/>
        <pt x="521" y="40" on="1"/>
        <pt x="551" y="89" on="0"/>
        <pt x="588" y="185" on="0"/>
        <pt x="605" y="234" on="1"/>
        <pt x="638" y="234" on="1"/>
        <pt x="601" y="0" on="1"/>
        <pt x="49" y="0" on="1"/>
        <pt x="49" y="23" on="1"/>
        <pt x="134" y="42" on="1"/>
        <pt x="134" y="728" on="1"/>
        <pt x="49" y="747" on="1"/>
        <pt x="49" y="770" on="1"/>
        <pt x="605" y="770" on="1"/>
        <pt x="622" y="550" on="1"/>
        <pt x="598" y="550" on="1"/>
        <pt x="586" y="593" on="0"/>
        <pt x="551" y="687" on="0"/>
        <pt x="526" y="730" on="1"/>
      </contour>
      <contour>
        <pt x="211" y="843" on="1"/>
        <pt x="211" y="894" on="0"/>
        <pt x="258" y="957" on="0"/>
        <pt x="295" y="957" on="1"/>
        <pt x="312" y="957" on="0"/>
        <pt x="350" y="946" on="0"/>
        <pt x="389" y="933" on="0"/>
        <pt x="427" y="922" on="0"/>
        <pt x="444" y="922" on="1"/>
        <pt x="486" y="922" on="0"/>
        <pt x="494" y="960" on="1"/>
        <pt x="518" y="960" on="1"/>
        <pt x="518" y="908" on="0"/>
        <pt x="471" y="842" on="0"/>
        <pt x="434" y="842" on="1"/>
        <pt x="416" y="842" on="0"/>
        <pt x="379" y="854" on="0"/>
        <pt x="341" y="869" on="0"/>
        <pt x="304" y="881" on="0"/>
        <pt x="286" y="881" on="1"/>
        <pt x="240" y="881" on="0"/>
        <pt x="235" y="843" on="1"/>
      </contour>
    </TTGlyph>
    <TTGlyph name="Euro" xMin="35" yMin="-10" xMax="579" yMax="780">
      <contour>
        <pt x="248" y="300" on="1"/>
        <pt x="261" y="31" on="0"/>
        <pt x="380" y="31" on="1"/>
        <pt x="412" y="31" on="0"/>
        <pt x="450" y="77" on="0"/>
        <pt x="459" y="121" on="1"/>
        <pt x="474" y="189" on="0"/>
        <pt x="524" y="189" on="1"/>
        <pt x="579" y="189" on="0"/>
        <pt x="579" y="127" on="1"/>
        <pt x="579" y="98" on="0"/>
        <pt x="551" y="48" on="0"/>
        <pt x="502" y="11" on="0"/>
        <pt x="436" y="-10" on="0"/>
        <pt x="398" y="-10" on="1"/>
        <pt x="345" y="-10" on="0"/>
        <pt x="255" y="35" on="0"/>
        <pt x="185" y="116" on="0"/>
        <pt x="138" y="231" on="0"/>
        <pt x="129" y="300" on="1"/>
        <pt x="35" y="300" on="1"/>
        <pt x="45" y="344" on="1"/>
        <pt x="125" y="344" on="1"/>
        <pt x="124" y="353" on="0"/>
        <pt x="124" y="372" on="0"/>
        <pt x="124" y="382" on="1"/>
        <pt x="124" y="392" on="0"/>
        <pt x="124" y="411" on="0"/>
        <pt x="125" y="421" on="1"/>
        <pt x="55" y="421" on="1"/>
        <pt x="65" y="465" on="1"/>
        <pt x="129" y="465" on="1"/>
        <pt x="138" y="535" on="0"/>
        <pt x="186" y="651" on="0"/>
        <pt x="258" y="734" on="0"/>
        <pt x="350" y="780" on="0"/>
        <pt x="403" y="780" on="1"/>
        <pt x="440" y="780" on="0"/>
        <pt x="504" y="760" on="0"/>
        <pt x="552" y="725" on="0"/>
        <pt x="579" y="678" on="0"/>
        <pt x="579" y="651" on="1"/>
        <pt x="579" y="623" on="0"/>
        <pt x="550" y="591" on="0"/>
        <pt x="525" y="591" on="1"/>
        <pt x="476" y="591" on="0"/>
        <pt x="464" y="659" on="1"/>
        <pt x="456" y="702" on="0"/>
        <pt x="418" y="739" on="0"/>
        <pt x="385" y="739" on="1"/>
        <pt x="263" y="739" on="0"/>
        <pt x="248" y="465" on="1"/>
        <pt x="496" y="465" on="1"/>
        <pt x="486" y="421" on="1"/>
        <pt x="246" y="421" on="1"/>
        <pt x="246" y="344" on="1"/>
        <pt x="476" y="344" on="1"/>
        <pt x="466" y="300" on="1"/>
      </contour>
    </TTGlyph>
    <TTGlyph name="Euro.tnum" xMin="0" yMin="-10" xMax="544" yMax="780">
      <contour>
        <pt x="213" y="300" on="1"/>
        <pt x="226" y="31" on="0"/>
        <pt x="345" y="31" on="1"/>
        <pt x="377" y="31" on="0"/>
        <pt x="415" y="77" on="0"/>
        <pt x="424" y="121" on="1"/>
        <pt x="439" y="189" on="0"/>
        <pt x="489" y="189" on="1"/>
        <pt x="544" y="189" on="0"/>
        <pt x="544" y="127" on="1"/>
        <pt x="544" y="98" on="0"/>
        <pt x="516" y="48" on="0"/>
        <pt x="467" y="11" on="0"/>
        <pt x="401" y="-10" on="0"/>
        <pt x="363" y="-10" on="1"/>
        <pt x="310" y="-10" on="0"/>
        <pt x="220" y="35" on="0"/>
        <pt x="150" y="116" on="0"/>
        <pt x="103" y="231" on="0"/>
        <pt x="94" y="300" on="1"/>
        <pt x="0" y="300" on="1"/>
        <pt x="10" y="344" on="1"/>
        <pt x="90" y="344" on="1"/>
        <pt x="89" y="353" on="0"/>
        <pt x="89" y="372" on="0"/>
        <pt x="89" y="382" on="1"/>
        <pt x="89" y="392" on="0"/>
        <pt x="89" y="411" on="0"/>
        <pt x="90" y="421" on="1"/>
        <pt x="20" y="421" on="1"/>
        <pt x="30" y="465" on="1"/>
        <pt x="94" y="465" on="1"/>
        <pt x="103" y="535" on="0"/>
        <pt x="151" y="651" on="0"/>
        <pt x="223" y="734" on="0"/>
        <pt x="315" y="780" on="0"/>
        <pt x="368" y="780" on="1"/>
        <pt x="405" y="780" on="0"/>
        <pt x="469" y="760" on="0"/>
        <pt x="517" y="725" on="0"/>
        <pt x="544" y="678" on="0"/>
        <pt x="544" y="651" on="1"/>
        <pt x="544" y="623" on="0"/>
        <pt x="515" y="591" on="0"/>
        <pt x="490" y="591" on="1"/>
        <pt x="441" y="591" on="0"/>
        <pt x="429" y="659" on="1"/>
        <pt x="421" y="702" on="0"/>
        <pt x="383" y="739" on="0"/>
        <pt x="350" y="739" on="1"/>
        <pt x="228" y="739" on="0"/>
        <pt x="213" y="465" on="1"/>
        <pt x="461" y="465" on="1"/>
        <pt x="451" y="421" on="1"/>
        <pt x="211" y="421" on="1"/>
        <pt x="211" y="344" on="1"/>
        <pt x="441" y="344" on="1"/>
        <pt x="431" y="300" on="1"/>
      </contour>
    </TTGlyph>
    <TTGlyph name="F" xMin="49" yMin="0" xMax="622" yMax="770">
      <contour>
        <pt x="239" y="730" on="1"/>
        <pt x="239" y="426" on="1"/>
        <pt x="418" y="426" on="1"/>
        <pt x="432" y="456" on="0"/>
        <pt x="450" y="516" on="0"/>
        <pt x="455" y="546" on="1"/>
        <pt x="479" y="546" on="1"/>
        <pt x="479" y="266" on="1"/>
        <pt x="455" y="266" on="1"/>
        <pt x="446" y="328" on="0"/>
        <pt x="418" y="386" on="1"/>
        <pt x="239" y="386" on="1"/>
        <pt x="239" y="42" on="1"/>
        <pt x="353" y="23" on="1"/>
        <pt x="353" y="0" on="1"/>
        <pt x="49" y="0" on="1"/>
        <pt x="49" y="23" on="1"/>
        <pt x="134" y="42" on="1"/>
        <pt x="134" y="728" on="1"/>
        <pt x="49" y="747" on="1"/>
        <pt x="49" y="770" on="1"/>
        <pt x="605" y="770" on="1"/>
        <pt x="622" y="550" on="1"/>
        <pt x="598" y="550" on="1"/>
        <pt x="586" y="593" on="0"/>
        <pt x="551" y="687" on="0"/>
        <pt x="526" y="730" on="1"/>
      </contour>
    </TTGlyph>
    <TTGlyph name="G" xMin="55" yMin="-10" xMax="780" yMax="780">
      <contour>
        <pt x="691" y="81" on="1"/>
        <pt x="670" y="61" on="0"/>
        <pt x="609" y="28" on="0"/>
        <pt x="536" y="4" on="0"/>
        <pt x="457" y="-10" on="0"/>
        <pt x="418" y="-10" on="1"/>
        <pt x="338" y="-10" on="0"/>
        <pt x="205" y="47" on="0"/>
        <pt x="109" y="149" on="0"/>
        <pt x="55" y="291" on="0"/>
        <pt x="55" y="376" on="1"/>
        <pt x="55" y="463" on="0"/>
        <pt x="111" y="611" on="0"/>
        <pt x="212" y="719" on="0"/>
        <pt x="349" y="780" on="0"/>
        <pt x="430" y="780" on="1"/>
        <pt x="489" y="780" on="0"/>
        <pt x="589" y="748" on="0"/>
        <pt x="622" y="719" on="1"/>
        <pt x="626" y="719" on="1"/>
        <pt x="680" y="770" on="1"/>
        <pt x="702" y="770" on="1"/>
        <pt x="702" y="540" on="1"/>
        <pt x="679" y="540" on="1"/>
        <pt x="655" y="594" on="0"/>
        <pt x="607" y="669" on="0"/>
        <pt x="551" y="715" on="0"/>
        <pt x="486" y="735" on="0"/>
        <pt x="444" y="735" on="1"/>
        <pt x="314" y="735" on="0"/>
        <pt x="183" y="554" on="0"/>
        <pt x="183" y="376" on="1"/>
        <pt x="183" y="36" on="0"/>
        <pt x="435" y="36" on="1"/>
        <pt x="484" y="36" on="0"/>
        <pt x="559" y="66" on="0"/>
        <pt x="578" y="97" on="1"/>
        <pt x="583" y="105" on="0"/>
        <pt x="586" y="123" on="0"/>
        <pt x="586" y="149" on="1"/>
        <pt x="586" y="344" on="1"/>
        <pt x="496" y="363" on="1"/>
        <pt x="496" y="386" on="1"/>
        <pt x="780" y="386" on="1"/>
        <pt x="780" y="363" on="1"/>
        <pt x="691" y="344" on="1"/>
      </contour>
    </TTGlyph>
    <TTGlyph name="Gbreve" xMin="55" yMin="-10" xMax="780" yMax="959">
      <contour>
        <pt x="691" y="81" on="1"/>
        <pt x="670" y="61" on="0"/>
        <pt x="609" y="28" on="0"/>
        <pt x="536" y="4" on="0"/>
        <pt x="457" y="-10" on="0"/>
        <pt x="418" y="-10" on="1"/>
        <pt x="338" y="-10" on="0"/>
        <pt x="205" y="47" on="0"/>
        <pt x="109" y="149" on="0"/>
        <pt x="55" y="291" on="0"/>
        <pt x="55" y="376" on="1"/>
        <pt x="55" y="463" on="0"/>
        <pt x="111" y="611" on="0"/>
        <pt x="212" y="719" on="0"/>
        <pt x="349" y="780" on="0"/>
        <pt x="430" y="780" on="1"/>
        <pt x="489" y="780" on="0"/>
        <pt x="589" y="748" on="0"/>
        <pt x="622" y="719" on="1"/>
        <pt x="626" y="719" on="1"/>
        <pt x="680" y="770" on="1"/>
        <pt x="702" y="770" on="1"/>
        <pt x="702" y="540" on="1"/>
        <pt x="679" y="540" on="1"/>
        <pt x="655" y="594" on="0"/>
        <pt x="607" y="669" on="0"/>
        <pt x="551" y="715" on="0"/>
        <pt x="486" y="735" on="0"/>
        <pt x="444" y="735" on="1"/>
        <pt x="314" y="735" on="0"/>
        <pt x="183" y="554" on="0"/>
        <pt x="183" y="376" on="1"/>
        <pt x="183" y="36" on="0"/>
        <pt x="435" y="36" on="1"/>
        <pt x="484" y="36" on="0"/>
        <pt x="559" y="66" on="0"/>
        <pt x="578" y="97" on="1"/>
        <pt x="583" y="105" on="0"/>
        <pt x="586" y="123" on="0"/>
        <pt x="586" y="149" on="1"/>
        <pt x="586" y="344" on="1"/>
        <pt x="496" y="363" on="1"/>
        <pt x="496" y="386" on="1"/>
        <pt x="780" y="386" on="1"/>
        <pt x="780" y="363" on="1"/>
        <pt x="691" y="344" on="1"/>
      </contour>
      <contour>
        <pt x="335" y="959" on="1"/>
        <pt x="347" y="930" on="0"/>
        <pt x="406" y="904" on="0"/>
        <pt x="441" y="904" on="1"/>
        <pt x="474" y="904" on="0"/>
        <pt x="533" y="930" on="0"/>
        <pt x="550" y="959" on="1"/>
        <pt x="584" y="959" on="1"/>
        <pt x="572" y="916" on="0"/>
        <pt x="535" y="865" on="0"/>
        <pt x="494" y="838" on="0"/>
        <pt x="453" y="830" on="0"/>
        <pt x="437" y="830" on="1"/>
        <pt x="415" y="830" on="0"/>
        <pt x="370" y="843" on="0"/>
        <pt x="332" y="873" on="0"/>
        <pt x="304" y="923" on="0"/>
        <pt x="300" y="959" on="1"/>
      </contour>
    </TTGlyph>
    <TTGlyph name="Gcircumflex" xMin="55" yMin="-10" xMax="780" yMax="960">
      <contour>
        <pt x="691" y="81" on="1"/>
        <pt x="670" y="61" on="0"/>
        <pt x="609" y="28" on="0"/>
        <pt x="536" y="4" on="0"/>
        <pt x="457" y="-10" on="0"/>
        <pt x="418" y="-10" on="1"/>
        <pt x="338" y="-10" on="0"/>
        <pt x="205" y="47" on="0"/>
        <pt x="109" y="149" on="0"/>
        <pt x="55" y="291" on="0"/>
        <pt x="55" y="376" on="1"/>
        <pt x="55" y="463" on="0"/>
        <pt x="111" y="611" on="0"/>
        <pt x="212" y="719" on="0"/>
        <pt x="349" y="780" on="0"/>
        <pt x="430" y="780" on="1"/>
        <pt x="489" y="780" on="0"/>
        <pt x="589" y="748" on="0"/>
        <pt x="622" y="719" on="1"/>
        <pt x="626" y="719" on="1"/>
        <pt x="680" y="770" on="1"/>
        <pt x="702" y="770" on="1"/>
        <pt x="702" y="540" on="1"/>
        <pt x="679" y="540" on="1"/>
        <pt x="655" y="594" on="0"/>
        <pt x="607" y="669" on="0"/>
        <pt x="551" y="715" on="0"/>
        <pt x="486" y="735" on="0"/>
        <pt x="444" y="735" on="1"/>
        <pt x="314" y="735" on="0"/>
        <pt x="183" y="554" on="0"/>
        <pt x="183" y="376" on="1"/>
        <pt x="183" y="36" on="0"/>
        <pt x="435" y="36" on="1"/>
        <pt x="484" y="36" on="0"/>
        <pt x="559" y="66" on="0"/>
        <pt x="578" y="97" on="1"/>
        <pt x="583" y="105" on="0"/>
        <pt x="586" y="123" on="0"/>
        <pt x="586" y="149" on="1"/>
        <pt x="586" y="344" on="1"/>
        <pt x="496" y="363" on="1"/>
        <pt x="496" y="386" on="1"/>
        <pt x="780" y="386" on="1"/>
        <pt x="780" y="363" on="1"/>
        <pt x="691" y="344" on="1"/>
      </contour>
      <contour>
        <pt x="437" y="960" on="1"/>
        <pt x="454" y="960" on="0"/>
        <pt x="478" y="947" on="0"/>
        <pt x="492" y="933" on="1"/>
        <pt x="585" y="837" on="1"/>
        <pt x="566" y="820" on="1"/>
        <pt x="437" y="878" on="1"/>
        <pt x="310" y="820" on="1"/>
        <pt x="290" y="837" on="1"/>
        <pt x="384" y="933" on="1"/>
        <pt x="397" y="946" on="0"/>
        <pt x="418" y="960" on="0"/>
      </contour>
    </TTGlyph>
    <TTGlyph name="Gcommaaccent" xMin="55" yMin="-246" xMax="780" yMax="780">
      <contour>
        <pt x="691" y="81" on="1"/>
        <pt x="670" y="61" on="0"/>
        <pt x="609" y="28" on="0"/>
        <pt x="536" y="4" on="0"/>
        <pt x="457" y="-10" on="0"/>
        <pt x="418" y="-10" on="1"/>
        <pt x="338" y="-10" on="0"/>
        <pt x="205" y="47" on="0"/>
        <pt x="109" y="149" on="0"/>
        <pt x="55" y="291" on="0"/>
        <pt x="55" y="376" on="1"/>
        <pt x="55" y="463" on="0"/>
        <pt x="111" y="611" on="0"/>
        <pt x="212" y="719" on="0"/>
        <pt x="349" y="780" on="0"/>
        <pt x="430" y="780" on="1"/>
        <pt x="489" y="780" on="0"/>
        <pt x="589" y="748" on="0"/>
        <pt x="622" y="719" on="1"/>
        <pt x="626" y="719" on="1"/>
        <pt x="680" y="770" on="1"/>
        <pt x="702" y="770" on="1"/>
        <pt x="702" y="540" on="1"/>
        <pt x="679" y="540" on="1"/>
        <pt x="655" y="594" on="0"/>
        <pt x="607" y="669" on="0"/>
        <pt x="551" y="715" on="0"/>
        <pt x="486" y="735" on="0"/>
        <pt x="444" y="735" on="1"/>
        <pt x="314" y="735" on="0"/>
        <pt x="183" y="554" on="0"/>
        <pt x="183" y="376" on="1"/>
        <pt x="183" y="36" on="0"/>
        <pt x="435" y="36" on="1"/>
        <pt x="484" y="36" on="0"/>
        <pt x="559" y="66" on="0"/>
        <pt x="578" y="97" on="1"/>
        <pt x="583" y="105" on="0"/>
        <pt x="586" y="123" on="0"/>
        <pt x="586" y="149" on="1"/>
        <pt x="586" y="344" on="1"/>
        <pt x="496" y="363" on="1"/>
        <pt x="496" y="386" on="1"/>
        <pt x="780" y="386" on="1"/>
        <pt x="780" y="363" on="1"/>
        <pt x="691" y="344" on="1"/>
      </contour>
      <contour>
        <pt x="377" y="-222" on="1"/>
        <pt x="396" y="-209" on="0"/>
        <pt x="420" y="-180" on="0"/>
        <pt x="420" y="-170" on="1"/>
        <pt x="420" y="-157" on="0"/>
        <pt x="405" y="-143" on="0"/>
        <pt x="386" y="-130" on="0"/>
        <pt x="371" y="-113" on="0"/>
        <pt x="371" y="-95" on="1"/>
        <pt x="371" y="-73" on="0"/>
        <pt x="403" y="-44" on="0"/>
        <pt x="427" y="-44" on="1"/>
        <pt x="451" y="-44" on="0"/>
        <pt x="481" y="-83" on="0"/>
        <pt x="481" y="-110" on="1"/>
        <pt x="481" y="-194" on="0"/>
        <pt x="393" y="-246" on="1"/>
      </contour>
    </TTGlyph>
    <TTGlyph name="Gdotaccent" xMin="55" yMin="-10" xMax="780" yMax="959">
      <contour>
        <pt x="691" y="81" on="1"/>
        <pt x="670" y="61" on="0"/>
        <pt x="609" y="28" on="0"/>
        <pt x="536" y="4" on="0"/>
        <pt x="457" y="-10" on="0"/>
        <pt x="418" y="-10" on="1"/>
        <pt x="338" y="-10" on="0"/>
        <pt x="205" y="47" on="0"/>
        <pt x="109" y="149" on="0"/>
        <pt x="55" y="291" on="0"/>
        <pt x="55" y="376" on="1"/>
        <pt x="55" y="463" on="0"/>
        <pt x="111" y="611" on="0"/>
        <pt x="212" y="719" on="0"/>
        <pt x="349" y="780" on="0"/>
        <pt x="430" y="780" on="1"/>
        <pt x="489" y="780" on="0"/>
        <pt x="589" y="748" on="0"/>
        <pt x="622" y="719" on="1"/>
        <pt x="626" y="719" on="1"/>
        <pt x="680" y="770" on="1"/>
        <pt x="702" y="770" on="1"/>
        <pt x="702" y="540" on="1"/>
        <pt x="679" y="540" on="1"/>
        <pt x="655" y="594" on="0"/>
        <pt x="607" y="669" on="0"/>
        <pt x="551" y="715" on="0"/>
        <pt x="486" y="735" on="0"/>
        <pt x="444" y="735" on="1"/>
        <pt x="314" y="735" on="0"/>
        <pt x="183" y="554" on="0"/>
        <pt x="183" y="376" on="1"/>
        <pt x="183" y="36" on="0"/>
        <pt x="435" y="36" on="1"/>
        <pt x="484" y="36" on="0"/>
        <pt x="559" y="66" on="0"/>
        <pt x="578" y="97" on="1"/>
        <pt x="583" y="105" on="0"/>
        <pt x="586" y="123" on="0"/>
        <pt x="586" y="149" on="1"/>
        <pt x="586" y="344" on="1"/>
        <pt x="496" y="363" on="1"/>
        <pt x="496" y="386" on="1"/>
        <pt x="780" y="386" on="1"/>
        <pt x="780" y="363" on="1"/>
        <pt x="691" y="344" on="1"/>
      </contour>
      <contour>
        <pt x="380" y="894" on="1"/>
        <pt x="380" y="922" on="0"/>
        <pt x="415" y="959" on="0"/>
        <pt x="444" y="959" on="1"/>
        <pt x="474" y="959" on="0"/>
        <pt x="509" y="922" on="0"/>
        <pt x="509" y="894" on="1"/>
        <pt x="509" y="868" on="0"/>
        <pt x="474" y="830" on="0"/>
        <pt x="444" y="830" on="1"/>
        <pt x="415" y="830" on="0"/>
        <pt x="380" y="868" on="0"/>
      </contour>
    </TTGlyph>
    <TTGlyph name="H" xMin="45" yMin="0" xMax="812" yMax="770">
      <contour>
        <pt x="618" y="385" on="1"/>
        <pt x="240" y="385" on="1"/>
        <pt x="240" y="42" on="1"/>
        <pt x="329" y="23" on="1"/>
        <pt x="329" y="0" on="1"/>
        <pt x="45" y="0" on="1"/>
        <pt x="45" y="23" on="1"/>
        <pt x="135" y="42" on="1"/>
        <pt x="135" y="728" on="1"/>
        <pt x="45" y="747" on="1"/>
        <pt x="45" y="770" on="1"/>
        <pt x="329" y="770" on="1"/>
        <pt x="329" y="747" on="1"/>
        <pt x="240" y="728" on="1"/>
        <pt x="240" y="425" on="1"/>
        <pt x="618" y="425" on="1"/>
        <pt x="618" y="728" on="1"/>
        <pt x="528" y="747" on="1"/>
        <pt x="528" y="770" on="1"/>
        <pt x="812" y="770" on="1"/>
        <pt x="812" y="745" on="1"/>
        <pt x="723" y="728" on="1"/>
        <pt x="723" y="42" on="1"/>
        <pt x="812" y="21" on="1"/>
        <pt x="812" y="0" on="1"/>
        <pt x="528" y="0" on="1"/>
        <pt x="528" y="23" on="1"/>
        <pt x="618" y="42" on="1"/>
      </contour>
    </TTGlyph>
    <TTGlyph name="Hbar" xMin="45" yMin="0" xMax="813" yMax="770">
      <contour>
        <pt x="135" y="547" on="1"/>
        <pt x="55" y="547" on="1"/>
        <pt x="55" y="612" on="1"/>
        <pt x="135" y="612" on="1"/>
        <pt x="135" y="728" on="1"/>
        <pt x="45" y="747" on="1"/>
        <pt x="45" y="770" on="1"/>
        <pt x="329" y="770" on="1"/>
        <pt x="329" y="747" on="1"/>
        <pt x="240" y="728" on="1"/>
        <pt x="240" y="612" on="1"/>
        <pt x="618" y="612" on="1"/>
        <pt x="618" y="728" on="1"/>
        <pt x="528" y="747" on="1"/>
        <pt x="528" y="770" on="1"/>
        <pt x="812" y="770" on="1"/>
        <pt x="812" y="745" on="1"/>
        <pt x="723" y="728" on="1"/>
        <pt x="723" y="612" on="1"/>
        <pt x="813" y="612" on="1"/>
        <pt x="813" y="547" on="1"/>
        <pt x="723" y="547" on="1"/>
        <pt x="723" y="42" on="1"/>
        <pt x="812" y="21" on="1"/>
        <pt x="812" y="0" on="1"/>
        <pt x="528" y="0" on="1"/>
        <pt x="528" y="23" on="1"/>
        <pt x="618" y="42" on="1"/>
        <pt x="618" y="385" on="1"/>
        <pt x="240" y="385" on="1"/>
        <pt x="240" y="42" on="1"/>
        <pt x="329" y="23" on="1"/>
        <pt x="329" y="0" on="1"/>
        <pt x="45" y="0" on="1"/>
        <pt x="45" y="23" on="1"/>
        <pt x="135" y="42" on="1"/>
      </contour>
      <contour>
        <pt x="240" y="425" on="1"/>
        <pt x="618" y="425" on="1"/>
        <pt x="618" y="547" on="1"/>
        <pt x="240" y="547" on="1"/>
      </contour>
    </TTGlyph>
    <TTGlyph name="Hcircumflex" xMin="45" yMin="0" xMax="812" yMax="960">
      <contour>
        <pt x="618" y="385" on="1"/>
        <pt x="240" y="385" on="1"/>
        <pt x="240" y="42" on="1"/>
        <pt x="329" y="23" on="1"/>
        <pt x="329" y="0" on="1"/>
        <pt x="45" y="0" on="1"/>
        <pt x="45" y="23" on="1"/>
        <pt x="135" y="42" on="1"/>
        <pt x="135" y="728" on="1"/>
        <pt x="45" y="747" on="1"/>
        <pt x="45" y="770" on="1"/>
        <pt x="329" y="770" on="1"/>
        <pt x="329" y="747" on="1"/>
        <pt x="240" y="728" on="1"/>
        <pt x="240" y="425" on="1"/>
        <pt x="618" y="425" on="1"/>
        <pt x="618" y="728" on="1"/>
        <pt x="528" y="747" on="1"/>
        <pt x="528" y="770" on="1"/>
        <pt x="812" y="770" on="1"/>
        <pt x="812" y="745" on="1"/>
        <pt x="723" y="728" on="1"/>
        <pt x="723" y="42" on="1"/>
        <pt x="812" y="21" on="1"/>
        <pt x="812" y="0" on="1"/>
        <pt x="528" y="0" on="1"/>
        <pt x="528" y="23" on="1"/>
        <pt x="618" y="42" on="1"/>
      </contour>
      <contour>
        <pt x="432" y="960" on="1"/>
        <pt x="449" y="960" on="0"/>
        <pt x="473" y="947" on="0"/>
        <pt x="487" y="933" on="1"/>
        <pt x="580" y="837" on="1"/>
        <pt x="561" y="820" on="1"/>
        <pt x="432" y="878" on="1"/>
        <pt x="305" y="820" on="1"/>
        <pt x="285" y="837" on="1"/>
        <pt x="379" y="933" on="1"/>
        <pt x="392" y="946" on="0"/>
        <pt x="413" y="960" on="0"/>
      </contour>
    </TTGlyph>
    <TTGlyph name="Hdotbelow" xMin="45" yMin="-256" xMax="812" yMax="770">
      <contour>
        <pt x="618" y="385" on="1"/>
        <pt x="240" y="385" on="1"/>
        <pt x="240" y="42" on="1"/>
        <pt x="329" y="23" on="1"/>
        <pt x="329" y="0" on="1"/>
        <pt x="45" y="0" on="1"/>
        <pt x="45" y="23" on="1"/>
        <pt x="135" y="42" on="1"/>
        <pt x="135" y="728" on="1"/>
        <pt x="45" y="747" on="1"/>
        <pt x="45" y="770" on="1"/>
        <pt x="329" y="770" on="1"/>
        <pt x="329" y="747" on="1"/>
        <pt x="240" y="728" on="1"/>
        <pt x="240" y="425" on="1"/>
        <pt x="618" y="425" on="1"/>
        <pt x="618" y="728" on="1"/>
        <pt x="528" y="747" on="1"/>
        <pt x="528" y="770" on="1"/>
        <pt x="812" y="770" on="1"/>
        <pt x="812" y="745" on="1"/>
        <pt x="723" y="728" on="1"/>
        <pt x="723" y="42" on="1"/>
        <pt x="812" y="21" on="1"/>
        <pt x="812" y="0" on="1"/>
        <pt x="528" y="0" on="1"/>
        <pt x="528" y="23" on="1"/>
        <pt x="618" y="42" on="1"/>
      </contour>
      <contour>
        <pt x="368" y="-192" on="1"/>
        <pt x="368" y="-164" on="0"/>
        <pt x="403" y="-127" on="0"/>
        <pt x="432" y="-127" on="1"/>
        <pt x="462" y="-127" on="0"/>
        <pt x="497" y="-164" on="0"/>
        <pt x="497" y="-192" on="1"/>
        <pt x="497" y="-218" on="0"/>
        <pt x="462" y="-256" on="0"/>
        <pt x="432" y="-256" on="1"/>
        <pt x="403" y="-256" on="0"/>
        <pt x="368" y="-218" on="0"/>
      </contour>
    </TTGlyph>
    <TTGlyph name="I" xMin="45" yMin="0" xMax="329" yMax="770">
      <contour>
        <pt x="135" y="728" on="1"/>
        <pt x="45" y="747" on="1"/>
        <pt x="45" y="770" on="1"/>
        <pt x="329" y="770" on="1"/>
        <pt x="329" y="747" on="1"/>
        <pt x="240" y="728" on="1"/>
        <pt x="240" y="42" on="1"/>
        <pt x="329" y="23" on="1"/>
        <pt x="329" y="0" on="1"/>
        <pt x="45" y="0" on="1"/>
        <pt x="45" y="23" on="1"/>
        <pt x="135" y="42" on="1"/>
      </contour>
    </TTGlyph>
    <TTGlyph name="IJ" xMin="45" yMin="-260" xMax="696" yMax="770">
      <contour>
        <pt x="135" y="728" on="1"/>
        <pt x="45" y="747" on="1"/>
        <pt x="45" y="770" on="1"/>
        <pt x="329" y="770" on="1"/>
        <pt x="329" y="747" on="1"/>
        <pt x="240" y="728" on="1"/>
        <pt x="240" y="42" on="1"/>
        <pt x="329" y="23" on="1"/>
        <pt x="329" y="0" on="1"/>
        <pt x="45" y="0" on="1"/>
        <pt x="45" y="23" on="1"/>
        <pt x="135" y="42" on="1"/>
      </contour>
      <contour>
        <pt x="607" y="155" on="1"/>
        <pt x="607" y="81" on="0"/>
        <pt x="605" y="-11" on="0"/>
        <pt x="597" y="-72" on="0"/>
        <pt x="584" y="-111" on="0"/>
        <pt x="573" y="-131" on="1"/>
        <pt x="538" y="-194" on="0"/>
        <pt x="427" y="-260" on="0"/>
        <pt x="365" y="-260" on="1"/>
        <pt x="309" y="-260" on="0"/>
        <pt x="245" y="-214" on="0"/>
        <pt x="245" y="-173" on="1"/>
        <pt x="245" y="-143" on="0"/>
        <pt x="277" y="-108" on="0"/>
        <pt x="304" y="-108" on="1"/>
        <pt x="325" y="-108" on="0"/>
        <pt x="351" y="-131" on="0"/>
        <pt x="359" y="-154" on="1"/>
        <pt x="370" y="-183" on="0"/>
        <pt x="400" y="-208" on="0"/>
        <pt x="420" y="-208" on="1"/>
        <pt x="455" y="-208" on="0"/>
        <pt x="502" y="-129" on="0"/>
        <pt x="502" y="-48" on="1"/>
        <pt x="502" y="728" on="1"/>
        <pt x="412" y="747" on="1"/>
        <pt x="412" y="770" on="1"/>
        <pt x="696" y="770" on="1"/>
        <pt x="696" y="747" on="1"/>
        <pt x="607" y="728" on="1"/>
      </contour>
    </TTGlyph>
    <TTGlyph name="Iacute" xMin="45" yMin="0" xMax="329" yMax="970">
      <contour>
        <pt x="135" y="728" on="1"/>
        <pt x="45" y="747" on="1"/>
        <pt x="45" y="770" on="1"/>
        <pt x="329" y="770" on="1"/>
        <pt x="329" y="747" on="1"/>
        <pt x="240" y="728" on="1"/>
        <pt x="240" y="42" on="1"/>
        <pt x="329" y="23" on="1"/>
        <pt x="329" y="0" on="1"/>
        <pt x="45" y="0" on="1"/>
        <pt x="45" y="23" on="1"/>
        <pt x="135" y="42" on="1"/>
      </contour>
      <contour>
        <pt x="74" y="847" on="1"/>
        <pt x="218" y="954" on="1"/>
        <pt x="240" y="970" on="0"/>
        <pt x="262" y="970" on="1"/>
        <pt x="279" y="970" on="0"/>
        <pt x="305" y="946" on="0"/>
        <pt x="305" y="927" on="1"/>
        <pt x="305" y="910" on="0"/>
        <pt x="276" y="881" on="0"/>
        <pt x="237" y="870" on="1"/>
        <pt x="85" y="826" on="1"/>
      </contour>
    </TTGlyph>
    <TTGlyph name="Ibreve" xMin="45" yMin="0" xMax="330" yMax="959">
      <contour>
        <pt x="135" y="728" on="1"/>
        <pt x="45" y="747" on="1"/>
        <pt x="45" y="770" on="1"/>
        <pt x="329" y="770" on="1"/>
        <pt x="329" y="747" on="1"/>
        <pt x="240" y="728" on="1"/>
        <pt x="240" y="42" on="1"/>
        <pt x="329" y="23" on="1"/>
        <pt x="329" y="0" on="1"/>
        <pt x="45" y="0" on="1"/>
        <pt x="45" y="23" on="1"/>
        <pt x="135" y="42" on="1"/>
      </contour>
      <contour>
        <pt x="81" y="959" on="1"/>
        <pt x="93" y="930" on="0"/>
        <pt x="152" y="904" on="0"/>
        <pt x="187" y="904" on="1"/>
        <pt x="220" y="904" on="0"/>
        <pt x="279" y="930" on="0"/>
        <pt x="296" y="959" on="1"/>
        <pt x="330" y="959" on="1"/>
        <pt x="318" y="916" on="0"/>
        <pt x="281" y="865" on="0"/>
        <pt x="240" y="838" on="0"/>
        <pt x="199" y="830" on="0"/>
        <pt x="183" y="830" on="1"/>
        <pt x="161" y="830" on="0"/>
        <pt x="116" y="843" on="0"/>
        <pt x="78" y="873" on="0"/>
        <pt x="50" y="923" on="0"/>
        <pt x="46" y="959" on="1"/>
      </contour>
    </TTGlyph>
    <TTGlyph name="Icircumflex" xMin="41" yMin="0" xMax="336" yMax="961">
      <contour>
        <pt x="135" y="728" on="1"/>
        <pt x="45" y="747" on="1"/>
        <pt x="45" y="770" on="1"/>
        <pt x="329" y="770" on="1"/>
        <pt x="329" y="747" on="1"/>
        <pt x="240" y="728" on="1"/>
        <pt x="240" y="42" on="1"/>
        <pt x="329" y="23" on="1"/>
        <pt x="329" y="0" on="1"/>
        <pt x="45" y="0" on="1"/>
        <pt x="45" y="23" on="1"/>
        <pt x="135" y="42" on="1"/>
      </contour>
      <contour>
        <pt x="188" y="961" on="1"/>
        <pt x="205" y="961" on="0"/>
        <pt x="229" y="948" on="0"/>
        <pt x="243" y="934" on="1"/>
        <pt x="336" y="838" on="1"/>
        <pt x="317" y="821" on="1"/>
        <pt x="188" y="879" on="1"/>
        <pt x="61" y="821" on="1"/>
        <pt x="41" y="838" on="1"/>
        <pt x="135" y="934" on="1"/>
        <pt x="148" y="947" on="0"/>
        <pt x="169" y="961" on="0"/>
      </contour>
    </TTGlyph>
    <TTGlyph name="Idieresis" xMin="40" yMin="0" xMax="337" yMax="967">
      <contour>
        <pt x="135" y="728" on="1"/>
        <pt x="45" y="747" on="1"/>
        <pt x="45" y="770" on="1"/>
        <pt x="329" y="770" on="1"/>
        <pt x="329" y="747" on="1"/>
        <pt x="240" y="728" on="1"/>
        <pt x="240" y="42" on="1"/>
        <pt x="329" y="23" on="1"/>
        <pt x="329" y="0" on="1"/>
        <pt x="45" y="0" on="1"/>
        <pt x="45" y="23" on="1"/>
        <pt x="135" y="42" on="1"/>
      </contour>
      <contour>
        <pt x="40" y="912" on="1"/>
        <pt x="40" y="936" on="0"/>
        <pt x="70" y="967" on="0"/>
        <pt x="95" y="967" on="1"/>
        <pt x="121" y="967" on="0"/>
        <pt x="150" y="936" on="0"/>
        <pt x="150" y="912" on="1"/>
        <pt x="150" y="889" on="0"/>
        <pt x="121" y="857" on="0"/>
        <pt x="95" y="857" on="1"/>
        <pt x="70" y="857" on="0"/>
        <pt x="40" y="889" on="0"/>
      </contour>
      <contour>
        <pt x="227" y="912" on="1"/>
        <pt x="227" y="936" on="0"/>
        <pt x="257" y="967" on="0"/>
        <pt x="282" y="967" on="1"/>
        <pt x="308" y="967" on="0"/>
        <pt x="337" y="936" on="0"/>
        <pt x="337" y="912" on="1"/>
        <pt x="337" y="889" on="0"/>
        <pt x="308" y="857" on="0"/>
        <pt x="282" y="857" on="1"/>
        <pt x="257" y="857" on="0"/>
        <pt x="227" y="889" on="0"/>
      </contour>
    </TTGlyph>
    <TTGlyph name="Idotaccent" xMin="45" yMin="0" xMax="329" yMax="959">
      <contour>
        <pt x="135" y="728" on="1"/>
        <pt x="45" y="747" on="1"/>
        <pt x="45" y="770" on="1"/>
        <pt x="329" y="770" on="1"/>
        <pt x="329" y="747" on="1"/>
        <pt x="240" y="728" on="1"/>
        <pt x="240" y="42" on="1"/>
        <pt x="329" y="23" on="1"/>
        <pt x="329" y="0" on="1"/>
        <pt x="45" y="0" on="1"/>
        <pt x="45" y="23" on="1"/>
        <pt x="135" y="42" on="1"/>
      </contour>
      <contour>
        <pt x="124" y="894" on="1"/>
        <pt x="124" y="922" on="0"/>
        <pt x="159" y="959" on="0"/>
        <pt x="188" y="959" on="1"/>
        <pt x="218" y="959" on="0"/>
        <pt x="253" y="922" on="0"/>
        <pt x="253" y="894" on="1"/>
        <pt x="253" y="868" on="0"/>
        <pt x="218" y="830" on="0"/>
        <pt x="188" y="830" on="1"/>
        <pt x="159" y="830" on="0"/>
        <pt x="124" y="868" on="0"/>
      </contour>
    </TTGlyph>
    <TTGlyph name="Idotbelow" xMin="45" yMin="-256" xMax="329" yMax="770">
      <contour>
        <pt x="135" y="728" on="1"/>
        <pt x="45" y="747" on="1"/>
        <pt x="45" y="770" on="1"/>
        <pt x="329" y="770" on="1"/>
        <pt x="329" y="747" on="1"/>
        <pt x="240" y="728" on="1"/>
        <pt x="240" y="42" on="1"/>
        <pt x="329" y="23" on="1"/>
        <pt x="329" y="0" on="1"/>
        <pt x="45" y="0" on="1"/>
        <pt x="45" y="23" on="1"/>
        <pt x="135" y="42" on="1"/>
      </contour>
      <contour>
        <pt x="124" y="-192" on="1"/>
        <pt x="124" y="-164" on="0"/>
        <pt x="159" y="-127" on="0"/>
        <pt x="188" y="-127" on="1"/>
        <pt x="218" y="-127" on="0"/>
        <pt x="253" y="-164" on="0"/>
        <pt x="253" y="-192" on="1"/>
        <pt x="253" y="-218" on="0"/>
        <pt x="218" y="-256" on="0"/>
        <pt x="188" y="-256" on="1"/>
        <pt x="159" y="-256" on="0"/>
        <pt x="124" y="-218" on="0"/>
      </contour>
    </TTGlyph>
    <TTGlyph name="Igrave" xMin="45" yMin="0" xMax="329" yMax="960">
      <contour>
        <pt x="135" y="728" on="1"/>
        <pt x="45" y="747" on="1"/>
        <pt x="45" y="770" on="1"/>
        <pt x="329" y="770" on="1"/>
        <pt x="329" y="747" on="1"/>
        <pt x="240" y="728" on="1"/>
        <pt x="240" y="42" on="1"/>
        <pt x="329" y="23" on="1"/>
        <pt x="329" y="0" on="1"/>
        <pt x="45" y="0" on="1"/>
        <pt x="45" y="23" on="1"/>
        <pt x="135" y="42" on="1"/>
      </contour>
      <contour>
        <pt x="293" y="816" on="1"/>
        <pt x="141" y="860" on="1"/>
        <pt x="102" y="871" on="0"/>
        <pt x="73" y="900" on="0"/>
        <pt x="73" y="917" on="1"/>
        <pt x="73" y="936" on="0"/>
        <pt x="99" y="960" on="0"/>
        <pt x="116" y="960" on="1"/>
        <pt x="138" y="960" on="0"/>
        <pt x="160" y="944" on="1"/>
        <pt x="304" y="837" on="1"/>
      </contour>
    </TTGlyph>
    <TTGlyph name="Imacron" xMin="45" yMin="0" xMax="333" yMax="948">
      <contour>
        <pt x="135" y="728" on="1"/>
        <pt x="45" y="747" on="1"/>
        <pt x="45" y="770" on="1"/>
        <pt x="329" y="770" on="1"/>
        <pt x="329" y="747" on="1"/>
        <pt x="240" y="728" on="1"/>
        <pt x="240" y="42" on="1"/>
        <pt x="329" y="23" on="1"/>
        <pt x="329" y="0" on="1"/>
        <pt x="45" y="0" on="1"/>
        <pt x="45" y="23" on="1"/>
        <pt x="135" y="42" on="1"/>
      </contour>
      <contour>
        <pt x="46" y="877" on="1"/>
        <pt x="46" y="948" on="1"/>
        <pt x="333" y="948" on="1"/>
        <pt x="333" y="877" on="1"/>
      </contour>
    </TTGlyph>
    <TTGlyph name="Iogonek" xMin="45" yMin="-256" xMax="329" yMax="770">
      <contour>
        <pt x="263" y="-202" on="1"/>
        <pt x="216" y="-256" on="0"/>
        <pt x="153" y="-256" on="1"/>
        <pt x="106" y="-256" on="0"/>
        <pt x="51" y="-209" on="0"/>
        <pt x="51" y="-168" on="1"/>
        <pt x="51" y="-129" on="0"/>
        <pt x="111" y="-41" on="0"/>
        <pt x="165" y="0" on="1"/>
        <pt x="45" y="0" on="1"/>
        <pt x="45" y="23" on="1"/>
        <pt x="135" y="42" on="1"/>
        <pt x="135" y="728" on="1"/>
        <pt x="45" y="747" on="1"/>
        <pt x="45" y="770" on="1"/>
        <pt x="329" y="770" on="1"/>
        <pt x="329" y="747" on="1"/>
        <pt x="240" y="728" on="1"/>
        <pt x="240" y="42" on="1"/>
        <pt x="329" y="23" on="1"/>
        <pt x="329" y="0" on="1"/>
        <pt x="208" y="0" on="1"/>
        <pt x="139" y="-83" on="0"/>
        <pt x="139" y="-144" on="1"/>
        <pt x="139" y="-201" on="0"/>
        <pt x="192" y="-201" on="1"/>
        <pt x="206" y="-201" on="0"/>
        <pt x="231" y="-191" on="0"/>
        <pt x="248" y="-180" on="1"/>
      </contour>
    </TTGlyph>
    <TTGlyph name="Itilde" xMin="35" yMin="0" xMax="342" yMax="960">
      <contour>
        <pt x="135" y="728" on="1"/>
        <pt x="45" y="747" on="1"/>
        <pt x="45" y="770" on="1"/>
        <pt x="329" y="770" on="1"/>
        <pt x="329" y="747" on="1"/>
        <pt x="240" y="728" on="1"/>
        <pt x="240" y="42" on="1"/>
        <pt x="329" y="23" on="1"/>
        <pt x="329" y="0" on="1"/>
        <pt x="45" y="0" on="1"/>
        <pt x="45" y="23" on="1"/>
        <pt x="135" y="42" on="1"/>
      </contour>
      <contour>
        <pt x="35" y="843" on="1"/>
        <pt x="35" y="894" on="0"/>
        <pt x="82" y="957" on="0"/>
        <pt x="119" y="957" on="1"/>
        <pt x="136" y="957" on="0"/>
        <pt x="174" y="946" on="0"/>
        <pt x="213" y="933" on="0"/>
        <pt x="251" y="922" on="0"/>
        <pt x="268" y="922" on="1"/>
        <pt x="310" y="922" on="0"/>
        <pt x="318" y="960" on="1"/>
        <pt x="342" y="960" on="1"/>
        <pt x="342" y="908" on="0"/>
        <pt x="295" y="842" on="0"/>
        <pt x="258" y="842" on="1"/>
        <pt x="240" y="842" on="0"/>
        <pt x="203" y="854" on="0"/>
        <pt x="165" y="869" on="0"/>
        <pt x="128" y="881" on="0"/>
        <pt x="110" y="881" on="1"/>
        <pt x="64" y="881" on="0"/>
        <pt x="59" y="843" on="1"/>
      </contour>
    </TTGlyph>
    <TTGlyph name="J" xMin="-129" yMin="-260" xMax="322" yMax="770">
      <contour>
        <pt x="233" y="155" on="1"/>
        <pt x="233" y="81" on="0"/>
        <pt x="231" y="-11" on="0"/>
        <pt x="223" y="-72" on="0"/>
        <pt x="210" y="-111" on="0"/>
        <pt x="199" y="-131" on="1"/>
        <pt x="164" y="-194" on="0"/>
        <pt x="53" y="-260" on="0"/>
        <pt x="-9" y="-260" on="1"/>
        <pt x="-65" y="-260" on="0"/>
        <pt x="-129" y="-214" on="0"/>
        <pt x="-129" y="-173" on="1"/>
        <pt x="-129" y="-143" on="0"/>
        <pt x="-97" y="-108" on="0"/>
        <pt x="-70" y="-108" on="1"/>
        <pt x="-49" y="-108" on="0"/>
        <pt x="-23" y="-131" on="0"/>
        <pt x="-15" y="-154" on="1"/>
        <pt x="-4" y="-183" on="0"/>
        <pt x="26" y="-208" on="0"/>
        <pt x="46" y="-208" on="1"/>
        <pt x="81" y="-208" on="0"/>
        <pt x="128" y="-129" on="0"/>
        <pt x="128" y="-48" on="1"/>
        <pt x="128" y="728" on="1"/>
        <pt x="38" y="747" on="1"/>
        <pt x="38" y="770" on="1"/>
        <pt x="322" y="770" on="1"/>
        <pt x="322" y="747" on="1"/>
        <pt x="233" y="728" on="1"/>
      </contour>
    </TTGlyph>
    <TTGlyph name="Jcircumflex" xMin="-129" yMin="-260" xMax="329" yMax="960">
      <contour>
        <pt x="233" y="155" on="1"/>
        <pt x="233" y="81" on="0"/>
        <pt x="231" y="-11" on="0"/>
        <pt x="223" y="-72" on="0"/>
        <pt x="210" y="-111" on="0"/>
        <pt x="199" y="-131" on="1"/>
        <pt x="164" y="-194" on="0"/>
        <pt x="53" y="-260" on="0"/>
        <pt x="-9" y="-260" on="1"/>
        <pt x="-65" y="-260" on="0"/>
        <pt x="-129" y="-214" on="0"/>
        <pt x="-129" y="-173" on="1"/>
        <pt x="-129" y="-143" on="0"/>
        <pt x="-97" y="-108" on="0"/>
        <pt x="-70" y="-108" on="1"/>
        <pt x="-49" y="-108" on="0"/>
        <pt x="-23" y="-131" on="0"/>
        <pt x="-15" y="-154" on="1"/>
        <pt x="-4" y="-183" on="0"/>
        <pt x="26" y="-208" on="0"/>
        <pt x="46" y="-208" on="1"/>
        <pt x="81" y="-208" on="0"/>
        <pt x="128" y="-129" on="0"/>
        <pt x="128" y="-48" on="1"/>
        <pt x="128" y="728" on="1"/>
        <pt x="38" y="747" on="1"/>
        <pt x="38" y="770" on="1"/>
        <pt x="322" y="770" on="1"/>
        <pt x="322" y="747" on="1"/>
        <pt x="233" y="728" on="1"/>
      </contour>
      <contour>
        <pt x="181" y="960" on="1"/>
        <pt x="198" y="960" on="0"/>
        <pt x="222" y="947" on="0"/>
        <pt x="236" y="933" on="1"/>
        <pt x="329" y="837" on="1"/>
        <pt x="310" y="820" on="1"/>
        <pt x="181" y="878" on="1"/>
        <pt x="54" y="820" on="1"/>
        <pt x="34" y="837" on="1"/>
        <pt x="128" y="933" on="1"/>
        <pt x="141" y="946" on="0"/>
        <pt x="162" y="960" on="0"/>
      </contour>
    </TTGlyph>
    <TTGlyph name="K" xMin="45" yMin="0" xMax="807" yMax="770">
      <contour>
        <pt x="45" y="23" on="1"/>
        <pt x="135" y="42" on="1"/>
        <pt x="135" y="728" on="1"/>
        <pt x="45" y="747" on="1"/>
        <pt x="45" y="770" on="1"/>
        <pt x="329" y="770" on="1"/>
        <pt x="329" y="747" on="1"/>
        <pt x="240" y="728" on="1"/>
        <pt x="240" y="370" on="1"/>
        <pt x="523" y="687" on="1"/>
        <pt x="539" y="704" on="0"/>
        <pt x="539" y="717" on="1"/>
        <pt x="539" y="730" on="0"/>
        <pt x="500" y="744" on="0"/>
        <pt x="455" y="747" on="1"/>
        <pt x="455" y="770" on="1"/>
        <pt x="719" y="770" on="1"/>
        <pt x="719" y="747" on="1"/>
        <pt x="684" y="741" on="0"/>
        <pt x="639" y="731" on="0"/>
        <pt x="608" y="717" on="0"/>
        <pt x="585" y="699" on="0"/>
        <pt x="573" y="685" on="1"/>
        <pt x="375" y="459" on="1"/>
        <pt x="696" y="42" on="1"/>
        <pt x="807" y="23" on="1"/>
        <pt x="807" y="0" on="1"/>
        <pt x="590" y="0" on="1"/>
        <pt x="305" y="379" on="1"/>
        <pt x="240" y="305" on="1"/>
        <pt x="240" y="42" on="1"/>
        <pt x="329" y="23" on="1"/>
        <pt x="329" y="0" on="1"/>
        <pt x="45" y="0" on="1"/>
      </contour>
    </TTGlyph>
    <TTGlyph name="Kcommaaccent" xMin="45" yMin="-246" xMax="807" yMax="770">
      <contour>
        <pt x="45" y="23" on="1"/>
        <pt x="135" y="42" on="1"/>
        <pt x="135" y="728" on="1"/>
        <pt x="45" y="747" on="1"/>
        <pt x="45" y="770" on="1"/>
        <pt x="329" y="770" on="1"/>
        <pt x="329" y="747" on="1"/>
        <pt x="240" y="728" on="1"/>
        <pt x="240" y="370" on="1"/>
        <pt x="523" y="687" on="1"/>
        <pt x="539" y="704" on="0"/>
        <pt x="539" y="717" on="1"/>
        <pt x="539" y="730" on="0"/>
        <pt x="500" y="744" on="0"/>
        <pt x="455" y="747" on="1"/>
        <pt x="455" y="770" on="1"/>
        <pt x="719" y="770" on="1"/>
        <pt x="719" y="747" on="1"/>
        <pt x="684" y="741" on="0"/>
        <pt x="639" y="731" on="0"/>
        <pt x="608" y="717" on="0"/>
        <pt x="585" y="699" on="0"/>
        <pt x="573" y="685" on="1"/>
        <pt x="375" y="459" on="1"/>
        <pt x="696" y="42" on="1"/>
        <pt x="807" y="23" on="1"/>
        <pt x="807" y="0" on="1"/>
        <pt x="590" y="0" on="1"/>
        <pt x="305" y="379" on="1"/>
        <pt x="240" y="305" on="1"/>
        <pt x="240" y="42" on="1"/>
        <pt x="329" y="23" on="1"/>
        <pt x="329" y="0" on="1"/>
        <pt x="45" y="0" on="1"/>
      </contour>
      <contour>
        <pt x="400" y="-222" on="1"/>
        <pt x="419" y="-209" on="0"/>
        <pt x="443" y="-180" on="0"/>
        <pt x="443" y="-170" on="1"/>
        <pt x="443" y="-157" on="0"/>
        <pt x="428" y="-143" on="0"/>
        <pt x="409" y="-130" on="0"/>
        <pt x="394" y="-113" on="0"/>
        <pt x="394" y="-95" on="1"/>
        <pt x="394" y="-73" on="0"/>
        <pt x="426" y="-44" on="0"/>
        <pt x="450" y="-44" on="1"/>
        <pt x="474" y="-44" on="0"/>
        <pt x="504" y="-83" on="0"/>
        <pt x="504" y="-110" on="1"/>
        <pt x="504" y="-194" on="0"/>
        <pt x="416" y="-246" on="1"/>
      </contour>
    </TTGlyph>
    <TTGlyph name="L" xMin="49" yMin="0" xMax="638" yMax="770">
      <contour>
        <pt x="239" y="728" on="1"/>
        <pt x="239" y="40" on="1"/>
        <pt x="528" y="40" on="1"/>
        <pt x="558" y="90" on="0"/>
        <pt x="595" y="189" on="0"/>
        <pt x="612" y="239" on="1"/>
        <pt x="638" y="239" on="1"/>
        <pt x="601" y="0" on="1"/>
        <pt x="49" y="0" on="1"/>
        <pt x="49" y="23" on="1"/>
        <pt x="134" y="42" on="1"/>
        <pt x="134" y="728" on="1"/>
        <pt x="49" y="747" on="1"/>
        <pt x="49" y="770" on="1"/>
        <pt x="334" y="770" on="1"/>
        <pt x="334" y="747" on="1"/>
      </contour>
    </TTGlyph>
    <TTGlyph name="Lacute" xMin="49" yMin="0" xMax="638" yMax="960">
      <contour>
        <pt x="239" y="728" on="1"/>
        <pt x="239" y="40" on="1"/>
        <pt x="528" y="40" on="1"/>
        <pt x="558" y="90" on="0"/>
        <pt x="595" y="189" on="0"/>
        <pt x="612" y="239" on="1"/>
        <pt x="638" y="239" on="1"/>
        <pt x="601" y="0" on="1"/>
        <pt x="49" y="0" on="1"/>
        <pt x="49" y="23" on="1"/>
        <pt x="134" y="42" on="1"/>
        <pt x="134" y="728" on="1"/>
        <pt x="49" y="747" on="1"/>
        <pt x="49" y="770" on="1"/>
        <pt x="334" y="770" on="1"/>
        <pt x="334" y="747" on="1"/>
      </contour>
      <contour>
        <pt x="74" y="837" on="1"/>
        <pt x="218" y="944" on="1"/>
        <pt x="240" y="960" on="0"/>
        <pt x="262" y="960" on="1"/>
        <pt x="279" y="960" on="0"/>
        <pt x="305" y="936" on="0"/>
        <pt x="305" y="917" on="1"/>
        <pt x="305" y="900" on="0"/>
        <pt x="276" y="871" on="0"/>
        <pt x="237" y="860" on="1"/>
        <pt x="85" y="816" on="1"/>
      </contour>
    </TTGlyph>
    <TTGlyph name="Lcaron" xMin="40" yMin="0" xMax="638" yMax="970">
      <contour>
        <pt x="239" y="728" on="1"/>
        <pt x="239" y="40" on="1"/>
        <pt x="528" y="40" on="1"/>
        <pt x="558" y="90" on="0"/>
        <pt x="595" y="189" on="0"/>
        <pt x="612" y="239" on="1"/>
        <pt x="638" y="239" on="1"/>
        <pt x="601" y="0" on="1"/>
        <pt x="49" y="0" on="1"/>
        <pt x="49" y="23" on="1"/>
        <pt x="134" y="42" on="1"/>
        <pt x="134" y="728" on="1"/>
        <pt x="49" y="747" on="1"/>
        <pt x="49" y="770" on="1"/>
        <pt x="334" y="770" on="1"/>
        <pt x="334" y="747" on="1"/>
      </contour>
      <contour>
        <pt x="187" y="830" on="1"/>
        <pt x="168" y="830" on="0"/>
        <pt x="147" y="844" on="0"/>
        <pt x="134" y="857" on="1"/>
        <pt x="40" y="953" on="1"/>
        <pt x="60" y="970" on="1"/>
        <pt x="187" y="912" on="1"/>
        <pt x="316" y="970" on="1"/>
        <pt x="335" y="953" on="1"/>
        <pt x="242" y="857" on="1"/>
        <pt x="228" y="843" on="0"/>
        <pt x="204" y="830" on="0"/>
      </contour>
    </TTGlyph>
    <TTGlyph name="Lcommaaccent" xMin="49" yMin="-246" xMax="638" yMax="770">
      <contour>
        <pt x="239" y="728" on="1"/>
        <pt x="239" y="40" on="1"/>
        <pt x="528" y="40" on="1"/>
        <pt x="558" y="90" on="0"/>
        <pt x="595" y="189" on="0"/>
        <pt x="612" y="239" on="1"/>
        <pt x="638" y="239" on="1"/>
        <pt x="601" y="0" on="1"/>
        <pt x="49" y="0" on="1"/>
        <pt x="49" y="23" on="1"/>
        <pt x="134" y="42" on="1"/>
        <pt x="134" y="728" on="1"/>
        <pt x="49" y="747" on="1"/>
        <pt x="49" y="770" on="1"/>
        <pt x="334" y="770" on="1"/>
        <pt x="334" y="747" on="1"/>
      </contour>
      <contour>
        <pt x="295" y="-222" on="1"/>
        <pt x="314" y="-209" on="0"/>
        <pt x="338" y="-180" on="0"/>
        <pt x="338" y="-170" on="1"/>
        <pt x="338" y="-157" on="0"/>
        <pt x="323" y="-143" on="0"/>
        <pt x="304" y="-130" on="0"/>
        <pt x="289" y="-113" on="0"/>
        <pt x="289" y="-95" on="1"/>
        <pt x="289" y="-73" on="0"/>
        <pt x="321" y="-44" on="0"/>
        <pt x="345" y="-44" on="1"/>
        <pt x="369" y="-44" on="0"/>
        <pt x="399" y="-83" on="0"/>
        <pt x="399" y="-110" on="1"/>
        <pt x="399" y="-194" on="0"/>
        <pt x="311" y="-246" on="1"/>
      </contour>
    </TTGlyph>
    <TTGlyph name="Ldot" xMin="49" yMin="0" xMax="638" yMax="770">
      <contour>
        <pt x="239" y="728" on="1"/>
        <pt x="239" y="40" on="1"/>
        <pt x="528" y="40" on="1"/>
        <pt x="558" y="90" on="0"/>
        <pt x="595" y="189" on="0"/>
        <pt x="612" y="239" on="1"/>
        <pt x="638" y="239" on="1"/>
        <pt x="601" y="0" on="1"/>
        <pt x="49" y="0" on="1"/>
        <pt x="49" y="23" on="1"/>
        <pt x="134" y="42" on="1"/>
        <pt x="134" y="728" on="1"/>
        <pt x="49" y="747" on="1"/>
        <pt x="49" y="770" on="1"/>
        <pt x="334" y="770" on="1"/>
        <pt x="334" y="747" on="1"/>
      </contour>
      <contour>
        <pt x="357" y="287" on="1"/>
        <pt x="357" y="317" on="0"/>
        <pt x="394" y="357" on="0"/>
        <pt x="425" y="357" on="1"/>
        <pt x="457" y="357" on="0"/>
        <pt x="495" y="317" on="0"/>
        <pt x="495" y="287" on="1"/>
        <pt x="495" y="259" on="0"/>
        <pt x="457" y="219" on="0"/>
        <pt x="425" y="219" on="1"/>
        <pt x="394" y="219" on="0"/>
        <pt x="357" y="259" on="0"/>
      </contour>
    </TTGlyph>
    <TTGlyph name="Lslash" xMin="50" yMin="0" xMax="639" yMax="770">
      <contour>
        <pt x="240" y="728" on="1"/>
        <pt x="240" y="468" on="1"/>
        <pt x="335" y="519" on="1"/>
        <pt x="335" y="454" on="1"/>
        <pt x="240" y="403" on="1"/>
        <pt x="240" y="40" on="1"/>
        <pt x="529" y="40" on="1"/>
        <pt x="559" y="90" on="0"/>
        <pt x="596" y="189" on="0"/>
        <pt x="613" y="239" on="1"/>
        <pt x="639" y="239" on="1"/>
        <pt x="602" y="0" on="1"/>
        <pt x="50" y="0" on="1"/>
        <pt x="50" y="23" on="1"/>
        <pt x="135" y="42" on="1"/>
        <pt x="135" y="347" on="1"/>
        <pt x="59" y="306" on="1"/>
        <pt x="59" y="371" on="1"/>
        <pt x="135" y="412" on="1"/>
        <pt x="135" y="728" on="1"/>
        <pt x="50" y="747" on="1"/>
        <pt x="50" y="770" on="1"/>
        <pt x="335" y="770" on="1"/>
        <pt x="335" y="747" on="1"/>
      </contour>
    </TTGlyph>
    <TTGlyph name="M" xMin="45" yMin="-10" xMax="967" yMax="770">
      <contour>
        <pt x="135" y="728" on="1"/>
        <pt x="45" y="747" on="1"/>
        <pt x="45" y="770" on="1"/>
        <pt x="255" y="770" on="1"/>
        <pt x="504" y="177" on="1"/>
        <pt x="509" y="177" on="1"/>
        <pt x="758" y="770" on="1"/>
        <pt x="967" y="770" on="1"/>
        <pt x="967" y="747" on="1"/>
        <pt x="878" y="728" on="1"/>
        <pt x="878" y="42" on="1"/>
        <pt x="967" y="23" on="1"/>
        <pt x="967" y="0" on="1"/>
        <pt x="683" y="0" on="1"/>
        <pt x="683" y="23" on="1"/>
        <pt x="773" y="42" on="1"/>
        <pt x="773" y="656" on="1"/>
        <pt x="769" y="656" on="1"/>
        <pt x="485" y="-10" on="1"/>
        <pt x="458" y="-10" on="1"/>
        <pt x="179" y="660" on="1"/>
        <pt x="175" y="660" on="1"/>
        <pt x="175" y="42" on="1"/>
        <pt x="264" y="23" on="1"/>
        <pt x="264" y="0" on="1"/>
        <pt x="45" y="0" on="1"/>
        <pt x="45" y="23" on="1"/>
        <pt x="135" y="42" on="1"/>
      </contour>
    </TTGlyph>
    <TTGlyph name="N" xMin="45" yMin="-20" xMax="789" yMax="770">
      <contour>
        <pt x="699" y="-20" on="1"/>
        <pt x="668" y="-20" on="1"/>
        <pt x="175" y="667" on="1"/>
        <pt x="175" y="42" on="1"/>
        <pt x="264" y="23" on="1"/>
        <pt x="264" y="0" on="1"/>
        <pt x="45" y="0" on="1"/>
        <pt x="45" y="23" on="1"/>
        <pt x="135" y="42" on="1"/>
        <pt x="135" y="728" on="1"/>
        <pt x="45" y="747" on="1"/>
        <pt x="45" y="770" on="1"/>
        <pt x="247" y="770" on="1"/>
        <pt x="659" y="204" on="1"/>
        <pt x="659" y="728" on="1"/>
        <pt x="570" y="747" on="1"/>
        <pt x="570" y="770" on="1"/>
        <pt x="789" y="770" on="1"/>
        <pt x="789" y="747" on="1"/>
        <pt x="699" y="728" on="1"/>
      </contour>
    </TTGlyph>
    <TTGlyph name="Nacute" xMin="45" yMin="-20" xMax="789" yMax="960">
      <contour>
        <pt x="699" y="-20" on="1"/>
        <pt x="668" y="-20" on="1"/>
        <pt x="175" y="667" on="1"/>
        <pt x="175" y="42" on="1"/>
        <pt x="264" y="23" on="1"/>
        <pt x="264" y="0" on="1"/>
        <pt x="45" y="0" on="1"/>
        <pt x="45" y="23" on="1"/>
        <pt x="135" y="42" on="1"/>
        <pt x="135" y="728" on="1"/>
        <pt x="45" y="747" on="1"/>
        <pt x="45" y="770" on="1"/>
        <pt x="247" y="770" on="1"/>
        <pt x="659" y="204" on="1"/>
        <pt x="659" y="728" on="1"/>
        <pt x="570" y="747" on="1"/>
        <pt x="570" y="770" on="1"/>
        <pt x="789" y="770" on="1"/>
        <pt x="789" y="747" on="1"/>
        <pt x="699" y="728" on="1"/>
      </contour>
      <contour>
        <pt x="363" y="837" on="1"/>
        <pt x="507" y="944" on="1"/>
        <pt x="529" y="960" on="0"/>
        <pt x="551" y="960" on="1"/>
        <pt x="568" y="960" on="0"/>
        <pt x="594" y="936" on="0"/>
        <pt x="594" y="917" on="1"/>
        <pt x="594" y="900" on="0"/>
        <pt x="565" y="871" on="0"/>
        <pt x="526" y="860" on="1"/>
        <pt x="374" y="816" on="1"/>
      </contour>
    </TTGlyph>
    <TTGlyph name="Ncaron" xMin="45" yMin="-20" xMax="789" yMax="970">
      <contour>
        <pt x="699" y="-20" on="1"/>
        <pt x="668" y="-20" on="1"/>
        <pt x="175" y="667" on="1"/>
        <pt x="175" y="42" on="1"/>
        <pt x="264" y="23" on="1"/>
        <pt x="264" y="0" on="1"/>
        <pt x="45" y="0" on="1"/>
        <pt x="45" y="23" on="1"/>
        <pt x="135" y="42" on="1"/>
        <pt x="135" y="728" on="1"/>
        <pt x="45" y="747" on="1"/>
        <pt x="45" y="770" on="1"/>
        <pt x="247" y="770" on="1"/>
        <pt x="659" y="204" on="1"/>
        <pt x="659" y="728" on="1"/>
        <pt x="570" y="747" on="1"/>
        <pt x="570" y="770" on="1"/>
        <pt x="789" y="770" on="1"/>
        <pt x="789" y="747" on="1"/>
        <pt x="699" y="728" on="1"/>
      </contour>
      <contour>
        <pt x="426" y="830" on="1"/>
        <pt x="407" y="830" on="0"/>
        <pt x="386" y="844" on="0"/>
        <pt x="373" y="857" on="1"/>
        <pt x="279" y="953" on="1"/>
        <pt x="299" y="970" on="1"/>
        <pt x="426" y="912" on="1"/>
        <pt x="555" y="970" on="1"/>
        <pt x="574" y="953" on="1"/>
        <pt x="481" y="857" on="1"/>
        <pt x="467" y="843" on="0"/>
        <pt x="443" y="830" on="0"/>
      </contour>
    </TTGlyph>
    <TTGlyph name="Ncommaaccent" xMin="45" yMin="-246" xMax="789" yMax="770">
      <contour>
        <pt x="699" y="-20" on="1"/>
        <pt x="668" y="-20" on="1"/>
        <pt x="175" y="667" on="1"/>
        <pt x="175" y="42" on="1"/>
        <pt x="264" y="23" on="1"/>
        <pt x="264" y="0" on="1"/>
        <pt x="45" y="0" on="1"/>
        <pt x="45" y="23" on="1"/>
        <pt x="135" y="42" on="1"/>
        <pt x="135" y="728" on="1"/>
        <pt x="45" y="747" on="1"/>
        <pt x="45" y="770" on="1"/>
        <pt x="247" y="770" on="1"/>
        <pt x="659" y="204" on="1"/>
        <pt x="659" y="728" on="1"/>
        <pt x="570" y="747" on="1"/>
        <pt x="570" y="770" on="1"/>
        <pt x="789" y="770" on="1"/>
        <pt x="789" y="747" on="1"/>
        <pt x="699" y="728" on="1"/>
      </contour>
      <contour>
        <pt x="392" y="-222" on="1"/>
        <pt x="411" y="-209" on="0"/>
        <pt x="435" y="-180" on="0"/>
        <pt x="435" y="-170" on="1"/>
        <pt x="435" y="-157" on="0"/>
        <pt x="420" y="-143" on="0"/>
        <pt x="401" y="-130" on="0"/>
        <pt x="386" y="-113" on="0"/>
        <pt x="386" y="-95" on="1"/>
        <pt x="386" y="-73" on="0"/>
        <pt x="418" y="-44" on="0"/>
        <pt x="442" y="-44" on="1"/>
        <pt x="466" y="-44" on="0"/>
        <pt x="496" y="-83" on="0"/>
        <pt x="496" y="-110" on="1"/>
        <pt x="496" y="-194" on="0"/>
        <pt x="408" y="-246" on="1"/>
      </contour>
    </TTGlyph>
    <TTGlyph name="Ndotaccent" xMin="45" yMin="-20" xMax="789" yMax="959">
      <contour>
        <pt x="699" y="-20" on="1"/>
        <pt x="668" y="-20" on="1"/>
        <pt x="175" y="667" on="1"/>
        <pt x="175" y="42" on="1"/>
        <pt x="264" y="23" on="1"/>
        <pt x="264" y="0" on="1"/>
        <pt x="45" y="0" on="1"/>
        <pt x="45" y="23" on="1"/>
        <pt x="135" y="42" on="1"/>
        <pt x="135" y="728" on="1"/>
        <pt x="45" y="747" on="1"/>
        <pt x="45" y="770" on="1"/>
        <pt x="247" y="770" on="1"/>
        <pt x="659" y="204" on="1"/>
        <pt x="659" y="728" on="1"/>
        <pt x="570" y="747" on="1"/>
        <pt x="570" y="770" on="1"/>
        <pt x="789" y="770" on="1"/>
        <pt x="789" y="747" on="1"/>
        <pt x="699" y="728" on="1"/>
      </contour>
      <contour>
        <pt x="379" y="894" on="1"/>
        <pt x="379" y="922" on="0"/>
        <pt x="414" y="959" on="0"/>
        <pt x="443" y="959" on="1"/>
        <pt x="473" y="959" on="0"/>
        <pt x="508" y="922" on="0"/>
        <pt x="508" y="894" on="1"/>
        <pt x="508" y="868" on="0"/>
        <pt x="473" y="830" on="0"/>
        <pt x="443" y="830" on="1"/>
        <pt x="414" y="830" on="0"/>
        <pt x="379" y="868" on="0"/>
      </contour>
    </TTGlyph>
    <TTGlyph name="Ntilde" xMin="45" yMin="-20" xMax="789" yMax="960">
      <contour>
        <pt x="699" y="-20" on="1"/>
        <pt x="668" y="-20" on="1"/>
        <pt x="175" y="667" on="1"/>
        <pt x="175" y="42" on="1"/>
        <pt x="264" y="23" on="1"/>
        <pt x="264" y="0" on="1"/>
        <pt x="45" y="0" on="1"/>
        <pt x="45" y="23" on="1"/>
        <pt x="135" y="42" on="1"/>
        <pt x="135" y="728" on="1"/>
        <pt x="45" y="747" on="1"/>
        <pt x="45" y="770" on="1"/>
        <pt x="247" y="770" on="1"/>
        <pt x="659" y="204" on="1"/>
        <pt x="659" y="728" on="1"/>
        <pt x="570" y="747" on="1"/>
        <pt x="570" y="770" on="1"/>
        <pt x="789" y="770" on="1"/>
        <pt x="789" y="747" on="1"/>
        <pt x="699" y="728" on="1"/>
      </contour>
      <contour>
        <pt x="273" y="843" on="1"/>
        <pt x="273" y="894" on="0"/>
        <pt x="320" y="957" on="0"/>
        <pt x="357" y="957" on="1"/>
        <pt x="374" y="957" on="0"/>
        <pt x="412" y="946" on="0"/>
        <pt x="451" y="933" on="0"/>
        <pt x="489" y="922" on="0"/>
        <pt x="506" y="922" on="1"/>
        <pt x="548" y="922" on="0"/>
        <pt x="556" y="960" on="1"/>
        <pt x="580" y="960" on="1"/>
        <pt x="580" y="908" on="0"/>
        <pt x="533" y="842" on="0"/>
        <pt x="496" y="842" on="1"/>
        <pt x="478" y="842" on="0"/>
        <pt x="441" y="854" on="0"/>
        <pt x="403" y="869" on="0"/>
        <pt x="366" y="881" on="0"/>
        <pt x="348" y="881" on="1"/>
        <pt x="302" y="881" on="0"/>
        <pt x="297" y="843" on="1"/>
      </contour>
    </TTGlyph>
    <TTGlyph name="O" xMin="55" yMin="-10" xMax="781" yMax="780">
      <contour>
        <pt x="418" y="780" on="1"/>
        <pt x="496" y="780" on="0"/>
        <pt x="628" y="720" on="0"/>
        <pt x="726" y="614" on="0"/>
        <pt x="781" y="469" on="0"/>
        <pt x="781" y="385" on="1"/>
        <pt x="781" y="301" on="0"/>
        <pt x="726" y="156" on="0"/>
        <pt x="628" y="50" on="0"/>
        <pt x="496" y="-10" on="0"/>
        <pt x="418" y="-10" on="1"/>
        <pt x="340" y="-10" on="0"/>
        <pt x="208" y="50" on="0"/>
        <pt x="110" y="156" on="0"/>
        <pt x="55" y="301" on="0"/>
        <pt x="55" y="385" on="1"/>
        <pt x="55" y="469" on="0"/>
        <pt x="110" y="614" on="0"/>
        <pt x="208" y="720" on="0"/>
        <pt x="340" y="780" on="0"/>
      </contour>
      <contour>
        <pt x="181" y="386" on="1"/>
        <pt x="181" y="304" on="0"/>
        <pt x="213" y="174" on="0"/>
        <pt x="275" y="83" on="0"/>
        <pt x="362" y="35" on="0"/>
        <pt x="418" y="35" on="1"/>
        <pt x="473" y="35" on="0"/>
        <pt x="561" y="83" on="0"/>
        <pt x="623" y="174" on="0"/>
        <pt x="655" y="305" on="0"/>
        <pt x="655" y="388" on="1"/>
        <pt x="655" y="470" on="0"/>
        <pt x="623" y="599" on="0"/>
        <pt x="562" y="688" on="0"/>
        <pt x="474" y="735" on="0"/>
        <pt x="419" y="735" on="1"/>
        <pt x="363" y="735" on="0"/>
        <pt x="275" y="688" on="0"/>
        <pt x="213" y="598" on="0"/>
        <pt x="181" y="468" on="0"/>
      </contour>
    </TTGlyph>
    <TTGlyph name="OE" xMin="55" yMin="-10" xMax="1092" yMax="780">
      <contour>
        <pt x="693" y="730" on="1"/>
        <pt x="693" y="426" on="1"/>
        <pt x="872" y="426" on="1"/>
        <pt x="886" y="456" on="0"/>
        <pt x="904" y="516" on="0"/>
        <pt x="909" y="546" on="1"/>
        <pt x="933" y="546" on="1"/>
        <pt x="933" y="266" on="1"/>
        <pt x="909" y="266" on="1"/>
        <pt x="900" y="328" on="0"/>
        <pt x="872" y="386" on="1"/>
        <pt x="693" y="386" on="1"/>
        <pt x="693" y="40" on="1"/>
        <pt x="975" y="40" on="1"/>
        <pt x="1005" y="89" on="0"/>
        <pt x="1042" y="185" on="0"/>
        <pt x="1059" y="234" on="1"/>
        <pt x="1092" y="234" on="1"/>
        <pt x="1055" y="0" on="1"/>
        <pt x="530" y="0" on="1"/>
        <pt x="504" y="-5" on="0"/>
        <pt x="452" y="-10" on="0"/>
        <pt x="427" y="-10" on="1"/>
        <pt x="346" y="-10" on="0"/>
        <pt x="209" y="49" on="0"/>
        <pt x="110" y="154" on="0"/>
        <pt x="55" y="299" on="0"/>
        <pt x="55" y="385" on="1"/>
        <pt x="55" y="471" on="0"/>
        <pt x="110" y="616" on="0"/>
        <pt x="209" y="721" on="0"/>
        <pt x="346" y="780" on="0"/>
        <pt x="427" y="780" on="1"/>
        <pt x="451" y="780" on="0"/>
        <pt x="500" y="775" on="0"/>
        <pt x="525" y="770" on="1"/>
        <pt x="1059" y="770" on="1"/>
        <pt x="1076" y="550" on="1"/>
        <pt x="1052" y="550" on="1"/>
        <pt x="1040" y="593" on="0"/>
        <pt x="1005" y="687" on="0"/>
        <pt x="980" y="730" on="1"/>
      </contour>
      <contour>
        <pt x="423" y="35" on="1"/>
        <pt x="471" y="35" on="0"/>
        <pt x="558" y="67" on="0"/>
        <pt x="588" y="96" on="1"/>
        <pt x="588" y="670" on="1"/>
        <pt x="558" y="701" on="0"/>
        <pt x="474" y="735" on="0"/>
        <pt x="424" y="735" on="1"/>
        <pt x="307" y="735" on="0"/>
        <pt x="181" y="554" on="0"/>
        <pt x="181" y="386" on="1"/>
        <pt x="181" y="218" on="0"/>
        <pt x="308" y="35" on="0"/>
      </contour>
    </TTGlyph>
    <TTGlyph name="Oacute" xMin="55" yMin="-10" xMax="781" yMax="960">
      <contour>
        <pt x="418" y="780" on="1"/>
        <pt x="496" y="780" on="0"/>
        <pt x="628" y="720" on="0"/>
        <pt x="726" y="614" on="0"/>
        <pt x="781" y="469" on="0"/>
        <pt x="781" y="385" on="1"/>
        <pt x="781" y="301" on="0"/>
        <pt x="726" y="156" on="0"/>
        <pt x="628" y="50" on="0"/>
        <pt x="496" y="-10" on="0"/>
        <pt x="418" y="-10" on="1"/>
        <pt x="340" y="-10" on="0"/>
        <pt x="208" y="50" on="0"/>
        <pt x="110" y="156" on="0"/>
        <pt x="55" y="301" on="0"/>
        <pt x="55" y="385" on="1"/>
        <pt x="55" y="469" on="0"/>
        <pt x="110" y="614" on="0"/>
        <pt x="208" y="720" on="0"/>
        <pt x="340" y="780" on="0"/>
      </contour>
      <contour>
        <pt x="181" y="386" on="1"/>
        <pt x="181" y="304" on="0"/>
        <pt x="213" y="174" on="0"/>
        <pt x="275" y="83" on="0"/>
        <pt x="362" y="35" on="0"/>
        <pt x="418" y="35" on="1"/>
        <pt x="473" y="35" on="0"/>
        <pt x="561" y="83" on="0"/>
        <pt x="623" y="174" on="0"/>
        <pt x="655" y="305" on="0"/>
        <pt x="655" y="388" on="1"/>
        <pt x="655" y="470" on="0"/>
        <pt x="623" y="599" on="0"/>
        <pt x="562" y="688" on="0"/>
        <pt x="474" y="735" on="0"/>
        <pt x="419" y="735" on="1"/>
        <pt x="363" y="735" on="0"/>
        <pt x="275" y="688" on="0"/>
        <pt x="213" y="598" on="0"/>
        <pt x="181" y="468" on="0"/>
      </contour>
      <contour>
        <pt x="310" y="837" on="1"/>
        <pt x="454" y="944" on="1"/>
        <pt x="476" y="960" on="0"/>
        <pt x="498" y="960" on="1"/>
        <pt x="515" y="960" on="0"/>
        <pt x="541" y="936" on="0"/>
        <pt x="541" y="917" on="1"/>
        <pt x="541" y="900" on="0"/>
        <pt x="512" y="871" on="0"/>
        <pt x="473" y="860" on="1"/>
        <pt x="321" y="816" on="1"/>
      </contour>
    </TTGlyph>
    <TTGlyph name="Obreve" xMin="55" yMin="-10" xMax="781" yMax="959">
      <contour>
        <pt x="418" y="780" on="1"/>
        <pt x="496" y="780" on="0"/>
        <pt x="628" y="720" on="0"/>
        <pt x="726" y="614" on="0"/>
        <pt x="781" y="469" on="0"/>
        <pt x="781" y="385" on="1"/>
        <pt x="781" y="301" on="0"/>
        <pt x="726" y="156" on="0"/>
        <pt x="628" y="50" on="0"/>
        <pt x="496" y="-10" on="0"/>
        <pt x="418" y="-10" on="1"/>
        <pt x="340" y="-10" on="0"/>
        <pt x="208" y="50" on="0"/>
        <pt x="110" y="156" on="0"/>
        <pt x="55" y="301" on="0"/>
        <pt x="55" y="385" on="1"/>
        <pt x="55" y="469" on="0"/>
        <pt x="110" y="614" on="0"/>
        <pt x="208" y="720" on="0"/>
        <pt x="340" y="780" on="0"/>
      </contour>
      <contour>
        <pt x="181" y="386" on="1"/>
        <pt x="181" y="304" on="0"/>
        <pt x="213" y="174" on="0"/>
        <pt x="275" y="83" on="0"/>
        <pt x="362" y="35" on="0"/>
        <pt x="418" y="35" on="1"/>
        <pt x="473" y="35" on="0"/>
        <pt x="561" y="83" on="0"/>
        <pt x="623" y="174" on="0"/>
        <pt x="655" y="305" on="0"/>
        <pt x="655" y="388" on="1"/>
        <pt x="655" y="470" on="0"/>
        <pt x="623" y="599" on="0"/>
        <pt x="562" y="688" on="0"/>
        <pt x="474" y="735" on="0"/>
        <pt x="419" y="735" on="1"/>
        <pt x="363" y="735" on="0"/>
        <pt x="275" y="688" on="0"/>
        <pt x="213" y="598" on="0"/>
        <pt x="181" y="468" on="0"/>
      </contour>
      <contour>
        <pt x="317" y="959" on="1"/>
        <pt x="329" y="930" on="0"/>
        <pt x="388" y="904" on="0"/>
        <pt x="423" y="904" on="1"/>
        <pt x="456" y="904" on="0"/>
        <pt x="515" y="930" on="0"/>
        <pt x="532" y="959" on="1"/>
        <pt x="566" y="959" on="1"/>
        <pt x="554" y="916" on="0"/>
        <pt x="517" y="865" on="0"/>
        <pt x="476" y="838" on="0"/>
        <pt x="435" y="830" on="0"/>
        <pt x="419" y="830" on="1"/>
        <pt x="397" y="830" on="0"/>
        <pt x="352" y="843" on="0"/>
        <pt x="314" y="873" on="0"/>
        <pt x="286" y="923" on="0"/>
        <pt x="282" y="959" on="1"/>
      </contour>
    </TTGlyph>
    <TTGlyph name="Ocircumflex" xMin="55" yMin="-10" xMax="781" yMax="960">
      <contour>
        <pt x="418" y="780" on="1"/>
        <pt x="496" y="780" on="0"/>
        <pt x="628" y="720" on="0"/>
        <pt x="726" y="614" on="0"/>
        <pt x="781" y="469" on="0"/>
        <pt x="781" y="385" on="1"/>
        <pt x="781" y="301" on="0"/>
        <pt x="726" y="156" on="0"/>
        <pt x="628" y="50" on="0"/>
        <pt x="496" y="-10" on="0"/>
        <pt x="418" y="-10" on="1"/>
        <pt x="340" y="-10" on="0"/>
        <pt x="208" y="50" on="0"/>
        <pt x="110" y="156" on="0"/>
        <pt x="55" y="301" on="0"/>
        <pt x="55" y="385" on="1"/>
        <pt x="55" y="469" on="0"/>
        <pt x="110" y="614" on="0"/>
        <pt x="208" y="720" on="0"/>
        <pt x="340" y="780" on="0"/>
      </contour>
      <contour>
        <pt x="181" y="386" on="1"/>
        <pt x="181" y="304" on="0"/>
        <pt x="213" y="174" on="0"/>
        <pt x="275" y="83" on="0"/>
        <pt x="362" y="35" on="0"/>
        <pt x="418" y="35" on="1"/>
        <pt x="473" y="35" on="0"/>
        <pt x="561" y="83" on="0"/>
        <pt x="623" y="174" on="0"/>
        <pt x="655" y="305" on="0"/>
        <pt x="655" y="388" on="1"/>
        <pt x="655" y="470" on="0"/>
        <pt x="623" y="599" on="0"/>
        <pt x="562" y="688" on="0"/>
        <pt x="474" y="735" on="0"/>
        <pt x="419" y="735" on="1"/>
        <pt x="363" y="735" on="0"/>
        <pt x="275" y="688" on="0"/>
        <pt x="213" y="598" on="0"/>
        <pt x="181" y="468" on="0"/>
      </contour>
      <contour>
        <pt x="424" y="960" on="1"/>
        <pt x="441" y="960" on="0"/>
        <pt x="465" y="947" on="0"/>
        <pt x="479" y="933" on="1"/>
        <pt x="572" y="837" on="1"/>
        <pt x="553" y="820" on="1"/>
        <pt x="424" y="878" on="1"/>
        <pt x="297" y="820" on="1"/>
        <pt x="277" y="837" on="1"/>
        <pt x="371" y="933" on="1"/>
        <pt x="384" y="946" on="0"/>
        <pt x="405" y="960" on="0"/>
      </contour>
    </TTGlyph>
    <TTGlyph name="Odieresis" xMin="55" yMin="-10" xMax="781" yMax="940">
      <contour>
        <pt x="418" y="780" on="1"/>
        <pt x="496" y="780" on="0"/>
        <pt x="628" y="720" on="0"/>
        <pt x="726" y="614" on="0"/>
        <pt x="781" y="469" on="0"/>
        <pt x="781" y="385" on="1"/>
        <pt x="781" y="301" on="0"/>
        <pt x="726" y="156" on="0"/>
        <pt x="628" y="50" on="0"/>
        <pt x="496" y="-10" on="0"/>
        <pt x="418" y="-10" on="1"/>
        <pt x="340" y="-10" on="0"/>
        <pt x="208" y="50" on="0"/>
        <pt x="110" y="156" on="0"/>
        <pt x="55" y="301" on="0"/>
        <pt x="55" y="385" on="1"/>
        <pt x="55" y="469" on="0"/>
        <pt x="110" y="614" on="0"/>
        <pt x="208" y="720" on="0"/>
        <pt x="340" y="780" on="0"/>
      </contour>
      <contour>
        <pt x="181" y="386" on="1"/>
        <pt x="181" y="304" on="0"/>
        <pt x="213" y="174" on="0"/>
        <pt x="275" y="83" on="0"/>
        <pt x="362" y="35" on="0"/>
        <pt x="418" y="35" on="1"/>
        <pt x="473" y="35" on="0"/>
        <pt x="561" y="83" on="0"/>
        <pt x="623" y="174" on="0"/>
        <pt x="655" y="305" on="0"/>
        <pt x="655" y="388" on="1"/>
        <pt x="655" y="470" on="0"/>
        <pt x="623" y="599" on="0"/>
        <pt x="562" y="688" on="0"/>
        <pt x="474" y="735" on="0"/>
        <pt x="419" y="735" on="1"/>
        <pt x="363" y="735" on="0"/>
        <pt x="275" y="688" on="0"/>
        <pt x="213" y="598" on="0"/>
        <pt x="181" y="468" on="0"/>
      </contour>
      <contour>
        <pt x="276" y="885" on="1"/>
        <pt x="276" y="909" on="0"/>
        <pt x="306" y="940" on="0"/>
        <pt x="331" y="940" on="1"/>
        <pt x="357" y="940" on="0"/>
        <pt x="386" y="909" on="0"/>
        <pt x="386" y="885" on="1"/>
        <pt x="386" y="862" on="0"/>
        <pt x="357" y="830" on="0"/>
        <pt x="331" y="830" on="1"/>
        <pt x="306" y="830" on="0"/>
        <pt x="276" y="862" on="0"/>
      </contour>
      <contour>
        <pt x="463" y="885" on="1"/>
        <pt x="463" y="909" on="0"/>
        <pt x="493" y="940" on="0"/>
        <pt x="518" y="940" on="1"/>
        <pt x="544" y="940" on="0"/>
        <pt x="573" y="909" on="0"/>
        <pt x="573" y="885" on="1"/>
        <pt x="573" y="862" on="0"/>
        <pt x="544" y="830" on="0"/>
        <pt x="518" y="830" on="1"/>
        <pt x="493" y="830" on="0"/>
        <pt x="463" y="862" on="0"/>
      </contour>
    </TTGlyph>
    <TTGlyph name="Odotbelow" xMin="55" yMin="-256" xMax="781" yMax="780">
      <contour>
        <pt x="418" y="780" on="1"/>
        <pt x="496" y="780" on="0"/>
        <pt x="628" y="720" on="0"/>
        <pt x="726" y="614" on="0"/>
        <pt x="781" y="469" on="0"/>
        <pt x="781" y="385" on="1"/>
        <pt x="781" y="301" on="0"/>
        <pt x="726" y="156" on="0"/>
        <pt x="628" y="50" on="0"/>
        <pt x="496" y="-10" on="0"/>
        <pt x="418" y="-10" on="1"/>
        <pt x="340" y="-10" on="0"/>
        <pt x="208" y="50" on="0"/>
        <pt x="110" y="156" on="0"/>
        <pt x="55" y="301" on="0"/>
        <pt x="55" y="385" on="1"/>
        <pt x="55" y="469" on="0"/>
        <pt x="110" y="614" on="0"/>
        <pt x="208" y="720" on="0"/>
        <pt x="340" y="780" on="0"/>
      </contour>
      <contour>
        <pt x="181" y="386" on="1"/>
        <pt x="181" y="304" on="0"/>
        <pt x="213" y="174" on="0"/>
        <pt x="275" y="83" on="0"/>
        <pt x="362" y="35" on="0"/>
        <pt x="418" y="35" on="1"/>
        <pt x="473" y="35" on="0"/>
        <pt x="561" y="83" on="0"/>
        <pt x="623" y="174" on="0"/>
        <pt x="655" y="305" on="0"/>
        <pt x="655" y="388" on="1"/>
        <pt x="655" y="470" on="0"/>
        <pt x="623" y="599" on="0"/>
        <pt x="562" y="688" on="0"/>
        <pt x="474" y="735" on="0"/>
        <pt x="419" y="735" on="1"/>
        <pt x="363" y="735" on="0"/>
        <pt x="275" y="688" on="0"/>
        <pt x="213" y="598" on="0"/>
        <pt x="181" y="468" on="0"/>
      </contour>
      <contour>
        <pt x="355" y="-192" on="1"/>
        <pt x="355" y="-164" on="0"/>
        <pt x="390" y="-127" on="0"/>
        <pt x="419" y="-127" on="1"/>
        <pt x="449" y="-127" on="0"/>
        <pt x="484" y="-164" on="0"/>
        <pt x="484" y="-192" on="1"/>
        <pt x="484" y="-218" on="0"/>
        <pt x="449" y="-256" on="0"/>
        <pt x="419" y="-256" on="1"/>
        <pt x="390" y="-256" on="0"/>
        <pt x="355" y="-218" on="0"/>
      </contour>
    </TTGlyph>
    <TTGlyph name="Ograve" xMin="55" yMin="-10" xMax="781" yMax="960">
      <contour>
        <pt x="418" y="780" on="1"/>
        <pt x="496" y="780" on="0"/>
        <pt x="628" y="720" on="0"/>
        <pt x="726" y="614" on="0"/>
        <pt x="781" y="469" on="0"/>
        <pt x="781" y="385" on="1"/>
        <pt x="781" y="301" on="0"/>
        <pt x="726" y="156" on="0"/>
        <pt x="628" y="50" on="0"/>
        <pt x="496" y="-10" on="0"/>
        <pt x="418" y="-10" on="1"/>
        <pt x="340" y="-10" on="0"/>
        <pt x="208" y="50" on="0"/>
        <pt x="110" y="156" on="0"/>
        <pt x="55" y="301" on="0"/>
        <pt x="55" y="385" on="1"/>
        <pt x="55" y="469" on="0"/>
        <pt x="110" y="614" on="0"/>
        <pt x="208" y="720" on="0"/>
        <pt x="340" y="780" on="0"/>
      </contour>
      <contour>
        <pt x="181" y="386" on="1"/>
        <pt x="181" y="304" on="0"/>
        <pt x="213" y="174" on="0"/>
        <pt x="275" y="83" on="0"/>
        <pt x="362" y="35" on="0"/>
        <pt x="418" y="35" on="1"/>
        <pt x="473" y="35" on="0"/>
        <pt x="561" y="83" on="0"/>
        <pt x="623" y="174" on="0"/>
        <pt x="655" y="305" on="0"/>
        <pt x="655" y="388" on="1"/>
        <pt x="655" y="470" on="0"/>
        <pt x="623" y="599" on="0"/>
        <pt x="562" y="688" on="0"/>
        <pt x="474" y="735" on="0"/>
        <pt x="419" y="735" on="1"/>
        <pt x="363" y="735" on="0"/>
        <pt x="275" y="688" on="0"/>
        <pt x="213" y="598" on="0"/>
        <pt x="181" y="468" on="0"/>
      </contour>
      <contour>
        <pt x="518" y="816" on="1"/>
        <pt x="366" y="860" on="1"/>
        <pt x="327" y="871" on="0"/>
        <pt x="298" y="900" on="0"/>
        <pt x="298" y="917" on="1"/>
        <pt x="298" y="936" on="0"/>
        <pt x="324" y="960" on="0"/>
        <pt x="341" y="960" on="1"/>
        <pt x="363" y="960" on="0"/>
        <pt x="385" y="944" on="1"/>
        <pt x="529" y="837" on="1"/>
      </contour>
    </TTGlyph>
    <TTGlyph name="Ohungarumlaut" xMin="55" yMin="-10" xMax="781" yMax="960">
      <contour>
        <pt x="418" y="780" on="1"/>
        <pt x="496" y="780" on="0"/>
        <pt x="628" y="720" on="0"/>
        <pt x="726" y="614" on="0"/>
        <pt x="781" y="469" on="0"/>
        <pt x="781" y="385" on="1"/>
        <pt x="781" y="301" on="0"/>
        <pt x="726" y="156" on="0"/>
        <pt x="628" y="50" on="0"/>
        <pt x="496" y="-10" on="0"/>
        <pt x="418" y="-10" on="1"/>
        <pt x="340" y="-10" on="0"/>
        <pt x="208" y="50" on="0"/>
        <pt x="110" y="156" on="0"/>
        <pt x="55" y="301" on="0"/>
        <pt x="55" y="385" on="1"/>
        <pt x="55" y="469" on="0"/>
        <pt x="110" y="614" on="0"/>
        <pt x="208" y="720" on="0"/>
        <pt x="340" y="780" on="0"/>
      </contour>
      <contour>
        <pt x="181" y="386" on="1"/>
        <pt x="181" y="304" on="0"/>
        <pt x="213" y="174" on="0"/>
        <pt x="275" y="83" on="0"/>
        <pt x="362" y="35" on="0"/>
        <pt x="418" y="35" on="1"/>
        <pt x="473" y="35" on="0"/>
        <pt x="561" y="83" on="0"/>
        <pt x="623" y="174" on="0"/>
        <pt x="655" y="305" on="0"/>
        <pt x="655" y="388" on="1"/>
        <pt x="655" y="470" on="0"/>
        <pt x="623" y="599" on="0"/>
        <pt x="562" y="688" on="0"/>
        <pt x="474" y="735" on="0"/>
        <pt x="419" y="735" on="1"/>
        <pt x="363" y="735" on="0"/>
        <pt x="275" y="688" on="0"/>
        <pt x="213" y="598" on="0"/>
        <pt x="181" y="468" on="0"/>
      </contour>
      <contour>
        <pt x="291" y="837" on="1"/>
        <pt x="370" y="924" on="1"/>
        <pt x="403" y="960" on="0"/>
        <pt x="431" y="960" on="1"/>
        <pt x="449" y="960" on="0"/>
        <pt x="472" y="936" on="0"/>
        <pt x="472" y="918" on="1"/>
        <pt x="472" y="901" on="0"/>
        <pt x="445" y="877" on="0"/>
        <pt x="404" y="860" on="1"/>
        <pt x="302" y="816" on="1"/>
      </contour>
      <contour>
        <pt x="465" y="837" on="1"/>
        <pt x="544" y="924" on="1"/>
        <pt x="577" y="960" on="0"/>
        <pt x="605" y="960" on="1"/>
        <pt x="623" y="960" on="0"/>
        <pt x="646" y="936" on="0"/>
        <pt x="646" y="918" on="1"/>
        <pt x="646" y="901" on="0"/>
        <pt x="619" y="877" on="0"/>
        <pt x="578" y="860" on="1"/>
        <pt x="476" y="816" on="1"/>
      </contour>
    </TTGlyph>
    <TTGlyph name="Omacron" xMin="55" yMin="-10" xMax="781" yMax="948">
      <contour>
        <pt x="418" y="780" on="1"/>
        <pt x="496" y="780" on="0"/>
        <pt x="628" y="720" on="0"/>
        <pt x="726" y="614" on="0"/>
        <pt x="781" y="469" on="0"/>
        <pt x="781" y="385" on="1"/>
        <pt x="781" y="301" on="0"/>
        <pt x="726" y="156" on="0"/>
        <pt x="628" y="50" on="0"/>
        <pt x="496" y="-10" on="0"/>
        <pt x="418" y="-10" on="1"/>
        <pt x="340" y="-10" on="0"/>
        <pt x="208" y="50" on="0"/>
        <pt x="110" y="156" on="0"/>
        <pt x="55" y="301" on="0"/>
        <pt x="55" y="385" on="1"/>
        <pt x="55" y="469" on="0"/>
        <pt x="110" y="614" on="0"/>
        <pt x="208" y="720" on="0"/>
        <pt x="340" y="780" on="0"/>
      </contour>
      <contour>
        <pt x="181" y="386" on="1"/>
        <pt x="181" y="304" on="0"/>
        <pt x="213" y="174" on="0"/>
        <pt x="275" y="83" on="0"/>
        <pt x="362" y="35" on="0"/>
        <pt x="418" y="35" on="1"/>
        <pt x="473" y="35" on="0"/>
        <pt x="561" y="83" on="0"/>
        <pt x="623" y="174" on="0"/>
        <pt x="655" y="305" on="0"/>
        <pt x="655" y="388" on="1"/>
        <pt x="655" y="470" on="0"/>
        <pt x="623" y="599" on="0"/>
        <pt x="562" y="688" on="0"/>
        <pt x="474" y="735" on="0"/>
        <pt x="419" y="735" on="1"/>
        <pt x="363" y="735" on="0"/>
        <pt x="275" y="688" on="0"/>
        <pt x="213" y="598" on="0"/>
        <pt x="181" y="468" on="0"/>
      </contour>
      <contour>
        <pt x="284" y="877" on="1"/>
        <pt x="284" y="948" on="1"/>
        <pt x="571" y="948" on="1"/>
        <pt x="571" y="877" on="1"/>
      </contour>
    </TTGlyph>
    <TTGlyph name="Oogonek" xMin="55" yMin="-256" xMax="781" yMax="780">
      <contour>
        <pt x="502" y="-202" on="1"/>
        <pt x="455" y="-256" on="0"/>
        <pt x="392" y="-256" on="1"/>
        <pt x="345" y="-256" on="0"/>
        <pt x="290" y="-209" on="0"/>
        <pt x="290" y="-168" on="1"/>
        <pt x="290" y="-131" on="0"/>
        <pt x="344" y="-47" on="0"/>
        <pt x="392" y="-9" on="1"/>
        <pt x="319" y="-4" on="0"/>
        <pt x="196" y="59" on="0"/>
        <pt x="106" y="164" on="0"/>
        <pt x="55" y="304" on="0"/>
        <pt x="55" y="385" on="1"/>
        <pt x="55" y="469" on="0"/>
        <pt x="110" y="614" on="0"/>
        <pt x="208" y="720" on="0"/>
        <pt x="340" y="780" on="0"/>
        <pt x="418" y="780" on="1"/>
        <pt x="496" y="780" on="0"/>
        <pt x="628" y="720" on="0"/>
        <pt x="726" y="614" on="0"/>
        <pt x="781" y="469" on="0"/>
        <pt x="781" y="385" on="1"/>
        <pt x="781" y="304" on="0"/>
        <pt x="730" y="163" on="0"/>
        <pt x="638" y="58" on="0"/>
        <pt x="513" y="-5" on="0"/>
        <pt x="440" y="-9" on="1"/>
        <pt x="378" y="-84" on="0"/>
        <pt x="378" y="-144" on="1"/>
        <pt x="378" y="-201" on="0"/>
        <pt x="431" y="-201" on="1"/>
        <pt x="445" y="-201" on="0"/>
        <pt x="470" y="-191" on="0"/>
        <pt x="487" y="-180" on="1"/>
      </contour>
      <contour>
        <pt x="181" y="386" on="1"/>
        <pt x="181" y="304" on="0"/>
        <pt x="213" y="174" on="0"/>
        <pt x="275" y="83" on="0"/>
        <pt x="362" y="35" on="0"/>
        <pt x="418" y="35" on="1"/>
        <pt x="473" y="35" on="0"/>
        <pt x="561" y="83" on="0"/>
        <pt x="623" y="174" on="0"/>
        <pt x="655" y="305" on="0"/>
        <pt x="655" y="388" on="1"/>
        <pt x="655" y="470" on="0"/>
        <pt x="623" y="599" on="0"/>
        <pt x="562" y="688" on="0"/>
        <pt x="474" y="735" on="0"/>
        <pt x="419" y="735" on="1"/>
        <pt x="363" y="735" on="0"/>
        <pt x="275" y="688" on="0"/>
        <pt x="213" y="598" on="0"/>
        <pt x="181" y="468" on="0"/>
      </contour>
    </TTGlyph>
    <TTGlyph name="Oslash" xMin="56" yMin="-10" xMax="782" yMax="780">
      <contour>
        <pt x="419" y="-10" on="1"/>
        <pt x="349" y="-10" on="0"/>
        <pt x="229" y="38" on="0"/>
        <pt x="182" y="81" on="1"/>
        <pt x="112" y="0" on="1"/>
        <pt x="57" y="0" on="1"/>
        <pt x="152" y="111" on="1"/>
        <pt x="107" y="164" on="0"/>
        <pt x="56" y="304" on="0"/>
        <pt x="56" y="385" on="1"/>
        <pt x="56" y="469" on="0"/>
        <pt x="111" y="614" on="0"/>
        <pt x="209" y="720" on="0"/>
        <pt x="341" y="780" on="0"/>
        <pt x="419" y="780" on="1"/>
        <pt x="487" y="780" on="0"/>
        <pt x="604" y="734" on="0"/>
        <pt x="651" y="692" on="1"/>
        <pt x="718" y="770" on="1"/>
        <pt x="774" y="770" on="1"/>
        <pt x="681" y="662" on="1"/>
        <pt x="729" y="609" on="0"/>
        <pt x="782" y="468" on="0"/>
        <pt x="782" y="385" on="1"/>
        <pt x="782" y="301" on="0"/>
        <pt x="727" y="156" on="0"/>
        <pt x="629" y="50" on="0"/>
        <pt x="497" y="-10" on="0"/>
      </contour>
      <contour>
        <pt x="600" y="633" on="1"/>
        <pt x="569" y="683" on="0"/>
        <pt x="479" y="735" on="0"/>
        <pt x="420" y="735" on="1"/>
        <pt x="364" y="735" on="0"/>
        <pt x="276" y="688" on="0"/>
        <pt x="214" y="598" on="0"/>
        <pt x="182" y="468" on="0"/>
        <pt x="182" y="386" on="1"/>
        <pt x="182" y="266" on="0"/>
        <pt x="215" y="185" on="1"/>
      </contour>
      <contour>
        <pt x="419" y="35" on="1"/>
        <pt x="474" y="35" on="0"/>
        <pt x="562" y="83" on="0"/>
        <pt x="624" y="174" on="0"/>
        <pt x="656" y="305" on="0"/>
        <pt x="656" y="388" on="1"/>
        <pt x="656" y="508" on="0"/>
        <pt x="621" y="592" on="1"/>
        <pt x="235" y="144" on="1"/>
        <pt x="266" y="91" on="0"/>
        <pt x="359" y="35" on="0"/>
      </contour>
    </TTGlyph>
    <TTGlyph name="Oslashacute" xMin="56" yMin="-10" xMax="782" yMax="960">
      <contour>
        <pt x="419" y="-10" on="1"/>
        <pt x="349" y="-10" on="0"/>
        <pt x="229" y="38" on="0"/>
        <pt x="182" y="81" on="1"/>
        <pt x="112" y="0" on="1"/>
        <pt x="57" y="0" on="1"/>
        <pt x="152" y="111" on="1"/>
        <pt x="107" y="164" on="0"/>
        <pt x="56" y="304" on="0"/>
        <pt x="56" y="385" on="1"/>
        <pt x="56" y="469" on="0"/>
        <pt x="111" y="614" on="0"/>
        <pt x="209" y="720" on="0"/>
        <pt x="341" y="780" on="0"/>
        <pt x="419" y="780" on="1"/>
        <pt x="487" y="780" on="0"/>
        <pt x="604" y="734" on="0"/>
        <pt x="651" y="692" on="1"/>
        <pt x="718" y="770" on="1"/>
        <pt x="774" y="770" on="1"/>
        <pt x="681" y="662" on="1"/>
        <pt x="729" y="609" on="0"/>
        <pt x="782" y="468" on="0"/>
        <pt x="782" y="385" on="1"/>
        <pt x="782" y="301" on="0"/>
        <pt x="727" y="156" on="0"/>
        <pt x="629" y="50" on="0"/>
        <pt x="497" y="-10" on="0"/>
      </contour>
      <contour>
        <pt x="600" y="633" on="1"/>
        <pt x="569" y="683" on="0"/>
        <pt x="479" y="735" on="0"/>
        <pt x="420" y="735" on="1"/>
        <pt x="364" y="735" on="0"/>
        <pt x="276" y="688" on="0"/>
        <pt x="214" y="598" on="0"/>
        <pt x="182" y="468" on="0"/>
        <pt x="182" y="386" on="1"/>
        <pt x="182" y="266" on="0"/>
        <pt x="215" y="185" on="1"/>
      </contour>
      <contour>
        <pt x="419" y="35" on="1"/>
        <pt x="474" y="35" on="0"/>
        <pt x="562" y="83" on="0"/>
        <pt x="624" y="174" on="0"/>
        <pt x="656" y="305" on="0"/>
        <pt x="656" y="388" on="1"/>
        <pt x="656" y="508" on="0"/>
        <pt x="621" y="592" on="1"/>
        <pt x="235" y="144" on="1"/>
        <pt x="266" y="91" on="0"/>
        <pt x="359" y="35" on="0"/>
      </contour>
      <contour>
        <pt x="317" y="837" on="1"/>
        <pt x="461" y="944" on="1"/>
        <pt x="483" y="960" on="0"/>
        <pt x="505" y="960" on="1"/>
        <pt x="522" y="960" on="0"/>
        <pt x="548" y="936" on="0"/>
        <pt x="548" y="917" on="1"/>
        <pt x="548" y="900" on="0"/>
        <pt x="519" y="871" on="0"/>
        <pt x="480" y="860" on="1"/>
        <pt x="328" y="816" on="1"/>
      </contour>
    </TTGlyph>
    <TTGlyph name="Otilde" xMin="55" yMin="-10" xMax="781" yMax="960">
      <contour>
        <pt x="418" y="780" on="1"/>
        <pt x="496" y="780" on="0"/>
        <pt x="628" y="720" on="0"/>
        <pt x="726" y="614" on="0"/>
        <pt x="781" y="469" on="0"/>
        <pt x="781" y="385" on="1"/>
        <pt x="781" y="301" on="0"/>
        <pt x="726" y="156" on="0"/>
        <pt x="628" y="50" on="0"/>
        <pt x="496" y="-10" on="0"/>
        <pt x="418" y="-10" on="1"/>
        <pt x="340" y="-10" on="0"/>
        <pt x="208" y="50" on="0"/>
        <pt x="110" y="156" on="0"/>
        <pt x="55" y="301" on="0"/>
        <pt x="55" y="385" on="1"/>
        <pt x="55" y="469" on="0"/>
        <pt x="110" y="614" on="0"/>
        <pt x="208" y="720" on="0"/>
        <pt x="340" y="780" on="0"/>
      </contour>
      <contour>
        <pt x="181" y="386" on="1"/>
        <pt x="181" y="304" on="0"/>
        <pt x="213" y="174" on="0"/>
        <pt x="275" y="83" on="0"/>
        <pt x="362" y="35" on="0"/>
        <pt x="418" y="35" on="1"/>
        <pt x="473" y="35" on="0"/>
        <pt x="561" y="83" on="0"/>
        <pt x="623" y="174" on="0"/>
        <pt x="655" y="305" on="0"/>
        <pt x="655" y="388" on="1"/>
        <pt x="655" y="470" on="0"/>
        <pt x="623" y="599" on="0"/>
        <pt x="562" y="688" on="0"/>
        <pt x="474" y="735" on="0"/>
        <pt x="419" y="735" on="1"/>
        <pt x="363" y="735" on="0"/>
        <pt x="275" y="688" on="0"/>
        <pt x="213" y="598" on="0"/>
        <pt x="181" y="468" on="0"/>
      </contour>
      <contour>
        <pt x="273" y="843" on="1"/>
        <pt x="273" y="894" on="0"/>
        <pt x="320" y="957" on="0"/>
        <pt x="357" y="957" on="1"/>
        <pt x="374" y="957" on="0"/>
        <pt x="412" y="946" on="0"/>
        <pt x="451" y="933" on="0"/>
        <pt x="489" y="922" on="0"/>
        <pt x="506" y="922" on="1"/>
        <pt x="548" y="922" on="0"/>
        <pt x="556" y="960" on="1"/>
        <pt x="580" y="960" on="1"/>
        <pt x="580" y="908" on="0"/>
        <pt x="533" y="842" on="0"/>
        <pt x="496" y="842" on="1"/>
        <pt x="478" y="842" on="0"/>
        <pt x="441" y="854" on="0"/>
        <pt x="403" y="869" on="0"/>
        <pt x="366" y="881" on="0"/>
        <pt x="348" y="881" on="1"/>
        <pt x="302" y="881" on="0"/>
        <pt x="297" y="843" on="1"/>
      </contour>
    </TTGlyph>
    <TTGlyph name="P" xMin="49" yMin="0" xMax="627" yMax="770">
      <contour>
        <pt x="49" y="770" on="1"/>
        <pt x="360" y="770" on="1"/>
        <pt x="419" y="770" on="0"/>
        <pt x="517" y="740" on="0"/>
        <pt x="588" y="682" on="0"/>
        <pt x="627" y="596" on="0"/>
        <pt x="627" y="541" on="1"/>
        <pt x="627" y="490" on="0"/>
        <pt x="588" y="411" on="0"/>
        <pt x="515" y="357" on="0"/>
        <pt x="410" y="330" on="0"/>
        <pt x="345" y="330" on="1"/>
        <pt x="239" y="330" on="1"/>
        <pt x="239" y="42" on="1"/>
        <pt x="353" y="23" on="1"/>
        <pt x="353" y="0" on="1"/>
        <pt x="49" y="0" on="1"/>
        <pt x="49" y="23" on="1"/>
        <pt x="134" y="42" on="1"/>
        <pt x="134" y="728" on="1"/>
        <pt x="49" y="747" on="1"/>
      </contour>
      <contour>
        <pt x="239" y="369" on="1"/>
        <pt x="314" y="369" on="1"/>
        <pt x="377" y="369" on="0"/>
        <pt x="450" y="397" on="0"/>
        <pt x="472" y="423" on="1"/>
        <pt x="495" y="449" on="0"/>
        <pt x="512" y="516" on="0"/>
        <pt x="512" y="551" on="1"/>
        <pt x="512" y="616" on="0"/>
        <pt x="464" y="701" on="0"/>
        <pt x="420" y="718" on="1"/>
        <pt x="403" y="725" on="0"/>
        <pt x="362" y="730" on="0"/>
        <pt x="331" y="730" on="1"/>
        <pt x="239" y="730" on="1"/>
      </contour>
    </TTGlyph>
    <TTGlyph name="Q" xMin="55" yMin="-164" xMax="808" yMax="780">
      <contour>
        <pt x="418" y="780" on="1"/>
        <pt x="496" y="780" on="0"/>
        <pt x="628" y="720" on="0"/>
        <pt x="726" y="614" on="0"/>
        <pt x="781" y="469" on="0"/>
        <pt x="781" y="385" on="1"/>
        <pt x="781" y="310" on="0"/>
        <pt x="736" y="178" on="0"/>
        <pt x="654" y="76" on="0"/>
        <pt x="539" y="13" on="0"/>
        <pt x="469" y="7" on="1"/>
        <pt x="469" y="3" on="1"/>
        <pt x="494" y="-3" on="0"/>
        <pt x="544" y="-26" on="0"/>
        <pt x="596" y="-50" on="0"/>
        <pt x="652" y="-67" on="0"/>
        <pt x="683" y="-67" on="1"/>
        <pt x="717" y="-67" on="0"/>
        <pt x="761" y="-41" on="0"/>
        <pt x="781" y="-14" on="1"/>
        <pt x="808" y="-24" on="1"/>
        <pt x="777" y="-95" on="0"/>
        <pt x="682" y="-164" on="0"/>
        <pt x="630" y="-164" on="1"/>
        <pt x="599" y="-164" on="0"/>
        <pt x="550" y="-141" on="0"/>
        <pt x="508" y="-108" on="0"/>
        <pt x="469" y="-68" on="0"/>
        <pt x="428" y="-35" on="0"/>
        <pt x="381" y="-12" on="0"/>
        <pt x="352" y="-12" on="1"/>
        <pt x="320" y="-12" on="0"/>
        <pt x="290" y="-38" on="0"/>
        <pt x="290" y="-57" on="1"/>
        <pt x="290" y="-66" on="0"/>
        <pt x="295" y="-77" on="0"/>
        <pt x="302" y="-88" on="0"/>
        <pt x="307" y="-101" on="0"/>
        <pt x="307" y="-110" on="1"/>
        <pt x="307" y="-132" on="0"/>
        <pt x="278" y="-160" on="0"/>
        <pt x="256" y="-160" on="1"/>
        <pt x="233" y="-160" on="0"/>
        <pt x="206" y="-130" on="0"/>
        <pt x="206" y="-105" on="1"/>
        <pt x="206" y="-69" on="0"/>
        <pt x="265" y="-7" on="0"/>
        <pt x="316" y="13" on="1"/>
        <pt x="316" y="17" on="1"/>
        <pt x="257" y="30" on="0"/>
        <pt x="161" y="97" on="0"/>
        <pt x="93" y="194" on="0"/>
        <pt x="55" y="317" on="0"/>
        <pt x="55" y="385" on="1"/>
        <pt x="55" y="469" on="0"/>
        <pt x="110" y="614" on="0"/>
        <pt x="208" y="720" on="0"/>
        <pt x="340" y="780" on="0"/>
      </contour>
      <contour>
        <pt x="181" y="386" on="1"/>
        <pt x="181" y="304" on="0"/>
        <pt x="213" y="174" on="0"/>
        <pt x="275" y="83" on="0"/>
        <pt x="362" y="35" on="0"/>
        <pt x="418" y="35" on="1"/>
        <pt x="473" y="35" on="0"/>
        <pt x="561" y="83" on="0"/>
        <pt x="623" y="174" on="0"/>
        <pt x="655" y="304" on="0"/>
        <pt x="655" y="387" on="1"/>
        <pt x="655" y="552" on="0"/>
        <pt x="531" y="735" on="0"/>
        <pt x="419" y="735" on="1"/>
        <pt x="363" y="735" on="0"/>
        <pt x="275" y="688" on="0"/>
        <pt x="213" y="598" on="0"/>
        <pt x="181" y="468" on="0"/>
      </contour>
    </TTGlyph>
    <TTGlyph name="R" xMin="49" yMin="0" xMax="776" yMax="770">
      <contour>
        <pt x="49" y="23" on="1"/>
        <pt x="134" y="42" on="1"/>
        <pt x="134" y="728" on="1"/>
        <pt x="49" y="747" on="1"/>
        <pt x="49" y="770" on="1"/>
        <pt x="350" y="770" on="1"/>
        <pt x="409" y="770" on="0"/>
        <pt x="507" y="741" on="0"/>
        <pt x="578" y="686" on="0"/>
        <pt x="617" y="604" on="0"/>
        <pt x="617" y="551" on="1"/>
        <pt x="617" y="476" on="0"/>
        <pt x="529" y="381" on="0"/>
        <pt x="449" y="362" on="1"/>
        <pt x="662" y="42" on="1"/>
        <pt x="776" y="23" on="1"/>
        <pt x="776" y="0" on="1"/>
        <pt x="559" y="0" on="1"/>
        <pt x="335" y="350" on="1"/>
        <pt x="239" y="350" on="1"/>
        <pt x="239" y="42" on="1"/>
        <pt x="353" y="23" on="1"/>
        <pt x="353" y="0" on="1"/>
        <pt x="49" y="0" on="1"/>
      </contour>
      <contour>
        <pt x="304" y="389" on="1"/>
        <pt x="367" y="389" on="0"/>
        <pt x="439" y="418" on="0"/>
        <pt x="462" y="443" on="1"/>
        <pt x="484" y="468" on="0"/>
        <pt x="502" y="529" on="0"/>
        <pt x="502" y="561" on="1"/>
        <pt x="502" y="622" on="0"/>
        <pt x="454" y="701" on="0"/>
        <pt x="410" y="718" on="1"/>
        <pt x="393" y="725" on="0"/>
        <pt x="352" y="730" on="0"/>
        <pt x="321" y="730" on="1"/>
        <pt x="239" y="730" on="1"/>
        <pt x="239" y="389" on="1"/>
      </contour>
    </TTGlyph>
    <TTGlyph name="Racute" xMin="49" yMin="0" xMax="776" yMax="960">
      <contour>
        <pt x="49" y="23" on="1"/>
        <pt x="134" y="42" on="1"/>
        <pt x="134" y="728" on="1"/>
        <pt x="49" y="747" on="1"/>
        <pt x="49" y="770" on="1"/>
        <pt x="350" y="770" on="1"/>
        <pt x="409" y="770" on="0"/>
        <pt x="507" y="741" on="0"/>
        <pt x="578" y="686" on="0"/>
        <pt x="617" y="604" on="0"/>
        <pt x="617" y="551" on="1"/>
        <pt x="617" y="476" on="0"/>
        <pt x="529" y="381" on="0"/>
        <pt x="449" y="362" on="1"/>
        <pt x="662" y="42" on="1"/>
        <pt x="776" y="23" on="1"/>
        <pt x="776" y="0" on="1"/>
        <pt x="559" y="0" on="1"/>
        <pt x="335" y="350" on="1"/>
        <pt x="239" y="350" on="1"/>
        <pt x="239" y="42" on="1"/>
        <pt x="353" y="23" on="1"/>
        <pt x="353" y="0" on="1"/>
        <pt x="49" y="0" on="1"/>
      </contour>
      <contour>
        <pt x="304" y="389" on="1"/>
        <pt x="367" y="389" on="0"/>
        <pt x="439" y="418" on="0"/>
        <pt x="462" y="443" on="1"/>
        <pt x="484" y="468" on="0"/>
        <pt x="502" y="529" on="0"/>
        <pt x="502" y="561" on="1"/>
        <pt x="502" y="622" on="0"/>
        <pt x="454" y="701" on="0"/>
        <pt x="410" y="718" on="1"/>
        <pt x="393" y="725" on="0"/>
        <pt x="352" y="730" on="0"/>
        <pt x="321" y="730" on="1"/>
        <pt x="239" y="730" on="1"/>
        <pt x="239" y="389" on="1"/>
      </contour>
      <contour>
        <pt x="225" y="837" on="1"/>
        <pt x="369" y="944" on="1"/>
        <pt x="391" y="960" on="0"/>
        <pt x="413" y="960" on="1"/>
        <pt x="430" y="960" on="0"/>
        <pt x="456" y="936" on="0"/>
        <pt x="456" y="917" on="1"/>
        <pt x="456" y="900" on="0"/>
        <pt x="427" y="871" on="0"/>
        <pt x="388" y="860" on="1"/>
        <pt x="236" y="816" on="1"/>
      </contour>
    </TTGlyph>
    <TTGlyph name="Rcaron" xMin="49" yMin="0" xMax="776" yMax="970">
      <contour>
        <pt x="49" y="23" on="1"/>
        <pt x="134" y="42" on="1"/>
        <pt x="134" y="728" on="1"/>
        <pt x="49" y="747" on="1"/>
        <pt x="49" y="770" on="1"/>
        <pt x="350" y="770" on="1"/>
        <pt x="409" y="770" on="0"/>
        <pt x="507" y="741" on="0"/>
        <pt x="578" y="686" on="0"/>
        <pt x="617" y="604" on="0"/>
        <pt x="617" y="551" on="1"/>
        <pt x="617" y="476" on="0"/>
        <pt x="529" y="381" on="0"/>
        <pt x="449" y="362" on="1"/>
        <pt x="662" y="42" on="1"/>
        <pt x="776" y="23" on="1"/>
        <pt x="776" y="0" on="1"/>
        <pt x="559" y="0" on="1"/>
        <pt x="335" y="350" on="1"/>
        <pt x="239" y="350" on="1"/>
        <pt x="239" y="42" on="1"/>
        <pt x="353" y="23" on="1"/>
        <pt x="353" y="0" on="1"/>
        <pt x="49" y="0" on="1"/>
      </contour>
      <contour>
        <pt x="304" y="389" on="1"/>
        <pt x="367" y="389" on="0"/>
        <pt x="439" y="418" on="0"/>
        <pt x="462" y="443" on="1"/>
        <pt x="484" y="468" on="0"/>
        <pt x="502" y="529" on="0"/>
        <pt x="502" y="561" on="1"/>
        <pt x="502" y="622" on="0"/>
        <pt x="454" y="701" on="0"/>
        <pt x="410" y="718" on="1"/>
        <pt x="393" y="725" on="0"/>
        <pt x="352" y="730" on="0"/>
        <pt x="321" y="730" on="1"/>
        <pt x="239" y="730" on="1"/>
        <pt x="239" y="389" on="1"/>
      </contour>
      <contour>
        <pt x="327" y="830" on="1"/>
        <pt x="308" y="830" on="0"/>
        <pt x="287" y="844" on="0"/>
        <pt x="274" y="857" on="1"/>
        <pt x="180" y="953" on="1"/>
        <pt x="200" y="970" on="1"/>
        <pt x="327" y="912" on="1"/>
        <pt x="456" y="970" on="1"/>
        <pt x="475" y="953" on="1"/>
        <pt x="382" y="857" on="1"/>
        <pt x="368" y="843" on="0"/>
        <pt x="344" y="830" on="0"/>
      </contour>
    </TTGlyph>
    <TTGlyph name="Rcommaaccent" xMin="49" yMin="-246" xMax="776" yMax="770">
      <contour>
        <pt x="49" y="23" on="1"/>
        <pt x="134" y="42" on="1"/>
        <pt x="134" y="728" on="1"/>
        <pt x="49" y="747" on="1"/>
        <pt x="49" y="770" on="1"/>
        <pt x="350" y="770" on="1"/>
        <pt x="409" y="770" on="0"/>
        <pt x="507" y="741" on="0"/>
        <pt x="578" y="686" on="0"/>
        <pt x="617" y="604" on="0"/>
        <pt x="617" y="551" on="1"/>
        <pt x="617" y="476" on="0"/>
        <pt x="529" y="381" on="0"/>
        <pt x="449" y="362" on="1"/>
        <pt x="662" y="42" on="1"/>
        <pt x="776" y="23" on="1"/>
        <pt x="776" y="0" on="1"/>
        <pt x="559" y="0" on="1"/>
        <pt x="335" y="350" on="1"/>
        <pt x="239" y="350" on="1"/>
        <pt x="239" y="42" on="1"/>
        <pt x="353" y="23" on="1"/>
        <pt x="353" y="0" on="1"/>
        <pt x="49" y="0" on="1"/>
      </contour>
      <contour>
        <pt x="304" y="389" on="1"/>
        <pt x="367" y="389" on="0"/>
        <pt x="439" y="418" on="0"/>
        <pt x="462" y="443" on="1"/>
        <pt x="484" y="468" on="0"/>
        <pt x="502" y="529" on="0"/>
        <pt x="502" y="561" on="1"/>
        <pt x="502" y="622" on="0"/>
        <pt x="454" y="701" on="0"/>
        <pt x="410" y="718" on="1"/>
        <pt x="393" y="725" on="0"/>
        <pt x="352" y="730" on="0"/>
        <pt x="321" y="730" on="1"/>
        <pt x="239" y="730" on="1"/>
        <pt x="239" y="389" on="1"/>
      </contour>
      <contour>
        <pt x="394" y="-222" on="1"/>
        <pt x="413" y="-209" on="0"/>
        <pt x="437" y="-180" on="0"/>
        <pt x="437" y="-170" on="1"/>
        <pt x="437" y="-157" on="0"/>
        <pt x="422" y="-143" on="0"/>
        <pt x="403" y="-130" on="0"/>
        <pt x="388" y="-113" on="0"/>
        <pt x="388" y="-95" on="1"/>
        <pt x="388" y="-73" on="0"/>
        <pt x="420" y="-44" on="0"/>
        <pt x="444" y="-44" on="1"/>
        <pt x="468" y="-44" on="0"/>
        <pt x="498" y="-83" on="0"/>
        <pt x="498" y="-110" on="1"/>
        <pt x="498" y="-194" on="0"/>
        <pt x="410" y="-246" on="1"/>
      </contour>
    </TTGlyph>
    <TTGlyph name="Rdotbelow" xMin="49" yMin="-256" xMax="776" yMax="770">
      <contour>
        <pt x="49" y="23" on="1"/>
        <pt x="134" y="42" on="1"/>
        <pt x="134" y="728" on="1"/>
        <pt x="49" y="747" on="1"/>
        <pt x="49" y="770" on="1"/>
        <pt x="350" y="770" on="1"/>
        <pt x="409" y="770" on="0"/>
        <pt x="507" y="741" on="0"/>
        <pt x="578" y="686" on="0"/>
        <pt x="617" y="604" on="0"/>
        <pt x="617" y="551" on="1"/>
        <pt x="617" y="476" on="0"/>
        <pt x="529" y="381" on="0"/>
        <pt x="449" y="362" on="1"/>
        <pt x="662" y="42" on="1"/>
        <pt x="776" y="23" on="1"/>
        <pt x="776" y="0" on="1"/>
        <pt x="559" y="0" on="1"/>
        <pt x="335" y="350" on="1"/>
        <pt x="239" y="350" on="1"/>
        <pt x="239" y="42" on="1"/>
        <pt x="353" y="23" on="1"/>
        <pt x="353" y="0" on="1"/>
        <pt x="49" y="0" on="1"/>
      </contour>
      <contour>
        <pt x="304" y="389" on="1"/>
        <pt x="367" y="389" on="0"/>
        <pt x="439" y="418" on="0"/>
        <pt x="462" y="443" on="1"/>
        <pt x="484" y="468" on="0"/>
        <pt x="502" y="529" on="0"/>
        <pt x="502" y="561" on="1"/>
        <pt x="502" y="622" on="0"/>
        <pt x="454" y="701" on="0"/>
        <pt x="410" y="718" on="1"/>
        <pt x="393" y="725" on="0"/>
        <pt x="352" y="730" on="0"/>
        <pt x="321" y="730" on="1"/>
        <pt x="239" y="730" on="1"/>
        <pt x="239" y="389" on="1"/>
      </contour>
      <contour>
        <pt x="370" y="-192" on="1"/>
        <pt x="370" y="-164" on="0"/>
        <pt x="405" y="-127" on="0"/>
        <pt x="434" y="-127" on="1"/>
        <pt x="464" y="-127" on="0"/>
        <pt x="499" y="-164" on="0"/>
        <pt x="499" y="-192" on="1"/>
        <pt x="499" y="-218" on="0"/>
        <pt x="464" y="-256" on="0"/>
        <pt x="434" y="-256" on="1"/>
        <pt x="405" y="-256" on="0"/>
        <pt x="370" y="-218" on="0"/>
      </contour>
    </TTGlyph>
    <TTGlyph name="S" xMin="63" yMin="-9" xMax="539" yMax="780">
      <contour>
        <pt x="302" y="780" on="1"/>
        <pt x="347" y="780" on="0"/>
        <pt x="420" y="750" on="0"/>
        <pt x="453" y="718" on="1"/>
        <pt x="485" y="770" on="1"/>
        <pt x="505" y="770" on="1"/>
        <pt x="514" y="550" on="1"/>
        <pt x="488" y="550" on="1"/>
        <pt x="464" y="646" on="0"/>
        <pt x="376" y="737" on="0"/>
        <pt x="307" y="737" on="1"/>
        <pt x="250" y="737" on="0"/>
        <pt x="184" y="677" on="0"/>
        <pt x="184" y="623" on="1"/>
        <pt x="184" y="586" on="0"/>
        <pt x="215" y="532" on="0"/>
        <pt x="264" y="489" on="0"/>
        <pt x="328" y="454" on="0"/>
        <pt x="395" y="418" on="0"/>
        <pt x="459" y="379" on="0"/>
        <pt x="508" y="328" on="0"/>
        <pt x="539" y="262" on="0"/>
        <pt x="539" y="217" on="1"/>
        <pt x="539" y="169" on="0"/>
        <pt x="502" y="86" on="0"/>
        <pt x="438" y="26" on="0"/>
        <pt x="351" y="-9" on="0"/>
        <pt x="301" y="-9" on="1"/>
        <pt x="260" y="-9" on="0"/>
        <pt x="184" y="15" on="0"/>
        <pt x="141" y="41" on="1"/>
        <pt x="101" y="0" on="1"/>
        <pt x="81" y="0" on="1"/>
        <pt x="63" y="256" on="1"/>
        <pt x="88" y="262" on="1"/>
        <pt x="118" y="141" on="0"/>
        <pt x="216" y="34" on="0"/>
        <pt x="298" y="34" on="1"/>
        <pt x="367" y="34" on="0"/>
        <pt x="447" y="100" on="0"/>
        <pt x="447" y="158" on="1"/>
        <pt x="447" y="195" on="0"/>
        <pt x="415" y="250" on="0"/>
        <pt x="364" y="294" on="0"/>
        <pt x="297" y="331" on="0"/>
        <pt x="228" y="367" on="0"/>
        <pt x="162" y="407" on="0"/>
        <pt x="111" y="459" on="0"/>
        <pt x="79" y="525" on="0"/>
        <pt x="79" y="569" on="1"/>
        <pt x="79" y="614" on="0"/>
        <pt x="113" y="692" on="0"/>
        <pt x="173" y="748" on="0"/>
        <pt x="254" y="780" on="0"/>
      </contour>
    </TTGlyph>
    <TTGlyph name="Sacute" xMin="63" yMin="-9" xMax="539" yMax="960">
      <contour>
        <pt x="302" y="780" on="1"/>
        <pt x="347" y="780" on="0"/>
        <pt x="420" y="750" on="0"/>
        <pt x="453" y="718" on="1"/>
        <pt x="485" y="770" on="1"/>
        <pt x="505" y="770" on="1"/>
        <pt x="514" y="550" on="1"/>
        <pt x="488" y="550" on="1"/>
        <pt x="464" y="646" on="0"/>
        <pt x="376" y="737" on="0"/>
        <pt x="307" y="737" on="1"/>
        <pt x="250" y="737" on="0"/>
        <pt x="184" y="677" on="0"/>
        <pt x="184" y="623" on="1"/>
        <pt x="184" y="586" on="0"/>
        <pt x="215" y="532" on="0"/>
        <pt x="264" y="489" on="0"/>
        <pt x="328" y="454" on="0"/>
        <pt x="395" y="418" on="0"/>
        <pt x="459" y="379" on="0"/>
        <pt x="508" y="328" on="0"/>
        <pt x="539" y="262" on="0"/>
        <pt x="539" y="217" on="1"/>
        <pt x="539" y="169" on="0"/>
        <pt x="502" y="86" on="0"/>
        <pt x="438" y="26" on="0"/>
        <pt x="351" y="-9" on="0"/>
        <pt x="301" y="-9" on="1"/>
        <pt x="260" y="-9" on="0"/>
        <pt x="184" y="15" on="0"/>
        <pt x="141" y="41" on="1"/>
        <pt x="101" y="0" on="1"/>
        <pt x="81" y="0" on="1"/>
        <pt x="63" y="256" on="1"/>
        <pt x="88" y="262" on="1"/>
        <pt x="118" y="141" on="0"/>
        <pt x="216" y="34" on="0"/>
        <pt x="298" y="34" on="1"/>
        <pt x="367" y="34" on="0"/>
        <pt x="447" y="100" on="0"/>
        <pt x="447" y="158" on="1"/>
        <pt x="447" y="195" on="0"/>
        <pt x="415" y="250" on="0"/>
        <pt x="364" y="294" on="0"/>
        <pt x="297" y="331" on="0"/>
        <pt x="228" y="367" on="0"/>
        <pt x="162" y="407" on="0"/>
        <pt x="111" y="459" on="0"/>
        <pt x="79" y="525" on="0"/>
        <pt x="79" y="569" on="1"/>
        <pt x="79" y="614" on="0"/>
        <pt x="113" y="692" on="0"/>
        <pt x="173" y="748" on="0"/>
        <pt x="254" y="780" on="0"/>
      </contour>
      <contour>
        <pt x="197" y="837" on="1"/>
        <pt x="341" y="944" on="1"/>
        <pt x="363" y="960" on="0"/>
        <pt x="385" y="960" on="1"/>
        <pt x="402" y="960" on="0"/>
        <pt x="428" y="936" on="0"/>
        <pt x="428" y="917" on="1"/>
        <pt x="428" y="900" on="0"/>
        <pt x="399" y="871" on="0"/>
        <pt x="360" y="860" on="1"/>
        <pt x="208" y="816" on="1"/>
      </contour>
    </TTGlyph>
    <TTGlyph name="Scaron" xMin="63" yMin="-9" xMax="539" yMax="970">
      <contour>
        <pt x="302" y="780" on="1"/>
        <pt x="347" y="780" on="0"/>
        <pt x="420" y="750" on="0"/>
        <pt x="453" y="718" on="1"/>
        <pt x="485" y="770" on="1"/>
        <pt x="505" y="770" on="1"/>
        <pt x="514" y="550" on="1"/>
        <pt x="488" y="550" on="1"/>
        <pt x="464" y="646" on="0"/>
        <pt x="376" y="737" on="0"/>
        <pt x="307" y="737" on="1"/>
        <pt x="250" y="737" on="0"/>
        <pt x="184" y="677" on="0"/>
        <pt x="184" y="623" on="1"/>
        <pt x="184" y="586" on="0"/>
        <pt x="215" y="532" on="0"/>
        <pt x="264" y="489" on="0"/>
        <pt x="328" y="454" on="0"/>
        <pt x="395" y="418" on="0"/>
        <pt x="459" y="379" on="0"/>
        <pt x="508" y="328" on="0"/>
        <pt x="539" y="262" on="0"/>
        <pt x="539" y="217" on="1"/>
        <pt x="539" y="169" on="0"/>
        <pt x="502" y="86" on="0"/>
        <pt x="438" y="26" on="0"/>
        <pt x="351" y="-9" on="0"/>
        <pt x="301" y="-9" on="1"/>
        <pt x="260" y="-9" on="0"/>
        <pt x="184" y="15" on="0"/>
        <pt x="141" y="41" on="1"/>
        <pt x="101" y="0" on="1"/>
        <pt x="81" y="0" on="1"/>
        <pt x="63" y="256" on="1"/>
        <pt x="88" y="262" on="1"/>
        <pt x="118" y="141" on="0"/>
        <pt x="216" y="34" on="0"/>
        <pt x="298" y="34" on="1"/>
        <pt x="367" y="34" on="0"/>
        <pt x="447" y="100" on="0"/>
        <pt x="447" y="158" on="1"/>
        <pt x="447" y="195" on="0"/>
        <pt x="415" y="250" on="0"/>
        <pt x="364" y="294" on="0"/>
        <pt x="297" y="331" on="0"/>
        <pt x="228" y="367" on="0"/>
        <pt x="162" y="407" on="0"/>
        <pt x="111" y="459" on="0"/>
        <pt x="79" y="525" on="0"/>
        <pt x="79" y="569" on="1"/>
        <pt x="79" y="614" on="0"/>
        <pt x="113" y="692" on="0"/>
        <pt x="173" y="748" on="0"/>
        <pt x="254" y="780" on="0"/>
      </contour>
      <contour>
        <pt x="316" y="830" on="1"/>
        <pt x="297" y="830" on="0"/>
        <pt x="276" y="844" on="0"/>
        <pt x="263" y="857" on="1"/>
        <pt x="169" y="953" on="1"/>
        <pt x="189" y="970" on="1"/>
        <pt x="316" y="912" on="1"/>
        <pt x="445" y="970" on="1"/>
        <pt x="464" y="953" on="1"/>
        <pt x="371" y="857" on="1"/>
        <pt x="357" y="843" on="0"/>
        <pt x="333" y="830" on="0"/>
      </contour>
    </TTGlyph>
    <TTGlyph name="Schwa" xMin="47" yMin="-10" xMax="716" yMax="781">
      <contour>
        <pt x="57" y="324" on="1"/>
        <pt x="589" y="324" on="1"/>
        <pt x="589" y="335" on="0"/>
        <pt x="590" y="348" on="0"/>
        <pt x="590" y="365" on="1"/>
        <pt x="590" y="525" on="0"/>
        <pt x="460" y="696" on="0"/>
        <pt x="335" y="696" on="1"/>
        <pt x="260" y="696" on="0"/>
        <pt x="147" y="636" on="0"/>
        <pt x="104" y="580" on="1"/>
        <pt x="87" y="558" on="1"/>
        <pt x="63" y="573" on="1"/>
        <pt x="71" y="593" on="1"/>
        <pt x="88" y="635" on="0"/>
        <pt x="150" y="704" on="0"/>
        <pt x="231" y="754" on="0"/>
        <pt x="328" y="781" on="0"/>
        <pt x="381" y="781" on="1"/>
        <pt x="456" y="781" on="0"/>
        <pt x="579" y="725" on="0"/>
        <pt x="668" y="624" on="0"/>
        <pt x="716" y="483" on="0"/>
        <pt x="716" y="397" on="1"/>
        <pt x="716" y="306" on="0"/>
        <pt x="662" y="156" on="0"/>
        <pt x="563" y="49" on="0"/>
        <pt x="425" y="-10" on="0"/>
        <pt x="340" y="-10" on="1"/>
        <pt x="200" y="-10" on="0"/>
        <pt x="50" y="154" on="0"/>
        <pt x="47" y="315" on="1"/>
      </contour>
      <contour>
        <pt x="350" y="35" on="1"/>
        <pt x="452" y="35" on="0"/>
        <pt x="571" y="159" on="0"/>
        <pt x="586" y="284" on="1"/>
        <pt x="182" y="270" on="1"/>
        <pt x="180" y="259" on="0"/>
        <pt x="178" y="230" on="0"/>
        <pt x="178" y="218" on="1"/>
        <pt x="178" y="124" on="0"/>
        <pt x="265" y="35" on="0"/>
      </contour>
    </TTGlyph>
    <TTGlyph name="Scircumflex" xMin="63" yMin="-9" xMax="539" yMax="960">
      <contour>
        <pt x="302" y="780" on="1"/>
        <pt x="347" y="780" on="0"/>
        <pt x="420" y="750" on="0"/>
        <pt x="453" y="718" on="1"/>
        <pt x="485" y="770" on="1"/>
        <pt x="505" y="770" on="1"/>
        <pt x="514" y="550" on="1"/>
        <pt x="488" y="550" on="1"/>
        <pt x="464" y="646" on="0"/>
        <pt x="376" y="737" on="0"/>
        <pt x="307" y="737" on="1"/>
        <pt x="250" y="737" on="0"/>
        <pt x="184" y="677" on="0"/>
        <pt x="184" y="623" on="1"/>
        <pt x="184" y="586" on="0"/>
        <pt x="215" y="532" on="0"/>
        <pt x="264" y="489" on="0"/>
        <pt x="328" y="454" on="0"/>
        <pt x="395" y="418" on="0"/>
        <pt x="459" y="379" on="0"/>
        <pt x="508" y="328" on="0"/>
        <pt x="539" y="262" on="0"/>
        <pt x="539" y="217" on="1"/>
        <pt x="539" y="169" on="0"/>
        <pt x="502" y="86" on="0"/>
        <pt x="438" y="26" on="0"/>
        <pt x="351" y="-9" on="0"/>
        <pt x="301" y="-9" on="1"/>
        <pt x="260" y="-9" on="0"/>
        <pt x="184" y="15" on="0"/>
        <pt x="141" y="41" on="1"/>
        <pt x="101" y="0" on="1"/>
        <pt x="81" y="0" on="1"/>
        <pt x="63" y="256" on="1"/>
        <pt x="88" y="262" on="1"/>
        <pt x="118" y="141" on="0"/>
        <pt x="216" y="34" on="0"/>
        <pt x="298" y="34" on="1"/>
        <pt x="367" y="34" on="0"/>
        <pt x="447" y="100" on="0"/>
        <pt x="447" y="158" on="1"/>
        <pt x="447" y="195" on="0"/>
        <pt x="415" y="250" on="0"/>
        <pt x="364" y="294" on="0"/>
        <pt x="297" y="331" on="0"/>
        <pt x="228" y="367" on="0"/>
        <pt x="162" y="407" on="0"/>
        <pt x="111" y="459" on="0"/>
        <pt x="79" y="525" on="0"/>
        <pt x="79" y="569" on="1"/>
        <pt x="79" y="614" on="0"/>
        <pt x="113" y="692" on="0"/>
        <pt x="173" y="748" on="0"/>
        <pt x="254" y="780" on="0"/>
      </contour>
      <contour>
        <pt x="308" y="960" on="1"/>
        <pt x="325" y="960" on="0"/>
        <pt x="349" y="947" on="0"/>
        <pt x="363" y="933" on="1"/>
        <pt x="456" y="837" on="1"/>
        <pt x="437" y="820" on="1"/>
        <pt x="308" y="878" on="1"/>
        <pt x="181" y="820" on="1"/>
        <pt x="161" y="837" on="1"/>
        <pt x="255" y="933" on="1"/>
        <pt x="268" y="946" on="0"/>
        <pt x="289" y="960" on="0"/>
      </contour>
    </TTGlyph>
    <TTGlyph name="Sdotbelow" xMin="63" yMin="-256" xMax="539" yMax="780">
      <contour>
        <pt x="302" y="780" on="1"/>
        <pt x="347" y="780" on="0"/>
        <pt x="420" y="750" on="0"/>
        <pt x="453" y="718" on="1"/>
        <pt x="485" y="770" on="1"/>
        <pt x="505" y="770" on="1"/>
        <pt x="514" y="550" on="1"/>
        <pt x="488" y="550" on="1"/>
        <pt x="464" y="646" on="0"/>
        <pt x="376" y="737" on="0"/>
        <pt x="307" y="737" on="1"/>
        <pt x="250" y="737" on="0"/>
        <pt x="184" y="677" on="0"/>
        <pt x="184" y="623" on="1"/>
        <pt x="184" y="586" on="0"/>
        <pt x="215" y="532" on="0"/>
        <pt x="264" y="489" on="0"/>
        <pt x="328" y="454" on="0"/>
        <pt x="395" y="418" on="0"/>
        <pt x="459" y="379" on="0"/>
        <pt x="508" y="328" on="0"/>
        <pt x="539" y="262" on="0"/>
        <pt x="539" y="217" on="1"/>
        <pt x="539" y="169" on="0"/>
        <pt x="502" y="86" on="0"/>
        <pt x="438" y="26" on="0"/>
        <pt x="351" y="-9" on="0"/>
        <pt x="301" y="-9" on="1"/>
        <pt x="260" y="-9" on="0"/>
        <pt x="184" y="15" on="0"/>
        <pt x="141" y="41" on="1"/>
        <pt x="101" y="0" on="1"/>
        <pt x="81" y="0" on="1"/>
        <pt x="63" y="256" on="1"/>
        <pt x="88" y="262" on="1"/>
        <pt x="118" y="141" on="0"/>
        <pt x="216" y="34" on="0"/>
        <pt x="298" y="34" on="1"/>
        <pt x="367" y="34" on="0"/>
        <pt x="447" y="100" on="0"/>
        <pt x="447" y="158" on="1"/>
        <pt x="447" y="195" on="0"/>
        <pt x="415" y="250" on="0"/>
        <pt x="364" y="294" on="0"/>
        <pt x="297" y="331" on="0"/>
        <pt x="228" y="367" on="0"/>
        <pt x="162" y="407" on="0"/>
        <pt x="111" y="459" on="0"/>
        <pt x="79" y="525" on="0"/>
        <pt x="79" y="569" on="1"/>
        <pt x="79" y="614" on="0"/>
        <pt x="113" y="692" on="0"/>
        <pt x="173" y="748" on="0"/>
        <pt x="254" y="780" on="0"/>
      </contour>
      <contour>
        <pt x="244" y="-192" on="1"/>
        <pt x="244" y="-164" on="0"/>
        <pt x="279" y="-127" on="0"/>
        <pt x="308" y="-127" on="1"/>
        <pt x="338" y="-127" on="0"/>
        <pt x="373" y="-164" on="0"/>
        <pt x="373" y="-192" on="1"/>
        <pt x="373" y="-218" on="0"/>
        <pt x="338" y="-256" on="0"/>
        <pt x="308" y="-256" on="1"/>
        <pt x="279" y="-256" on="0"/>
        <pt x="244" y="-218" on="0"/>
      </contour>
    </TTGlyph>
    <TTGlyph name="T" xMin="9" yMin="0" xMax="745" yMax="770">
      <contour>
        <pt x="216" y="23" on="1"/>
        <pt x="326" y="42" on="1"/>
        <pt x="326" y="730" on="1"/>
        <pt x="125" y="730" on="1"/>
        <pt x="93" y="687" on="0"/>
        <pt x="48" y="593" on="0"/>
        <pt x="33" y="550" on="1"/>
        <pt x="9" y="550" on="1"/>
        <pt x="46" y="770" on="1"/>
        <pt x="708" y="770" on="1"/>
        <pt x="745" y="550" on="1"/>
        <pt x="721" y="550" on="1"/>
        <pt x="706" y="593" on="0"/>
        <pt x="661" y="687" on="0"/>
        <pt x="629" y="730" on="1"/>
        <pt x="431" y="730" on="1"/>
        <pt x="431" y="42" on="1"/>
        <pt x="540" y="23" on="1"/>
        <pt x="540" y="0" on="1"/>
        <pt x="216" y="0" on="1"/>
      </contour>
    </TTGlyph>
    <TTGlyph name="Tbar" xMin="9" yMin="0" xMax="745" yMax="770">
      <contour>
        <pt x="216" y="23" on="1"/>
        <pt x="326" y="42" on="1"/>
        <pt x="326" y="377" on="1"/>
        <pt x="166" y="377" on="1"/>
        <pt x="166" y="442" on="1"/>
        <pt x="326" y="442" on="1"/>
        <pt x="326" y="730" on="1"/>
        <pt x="125" y="730" on="1"/>
        <pt x="93" y="687" on="0"/>
        <pt x="48" y="593" on="0"/>
        <pt x="33" y="550" on="1"/>
        <pt x="9" y="550" on="1"/>
        <pt x="46" y="770" on="1"/>
        <pt x="708" y="770" on="1"/>
        <pt x="745" y="550" on="1"/>
        <pt x="721" y="550" on="1"/>
        <pt x="706" y="593" on="0"/>
        <pt x="661" y="687" on="0"/>
        <pt x="629" y="730" on="1"/>
        <pt x="431" y="730" on="1"/>
        <pt x="431" y="442" on="1"/>
        <pt x="591" y="442" on="1"/>
        <pt x="591" y="377" on="1"/>
        <pt x="431" y="377" on="1"/>
        <pt x="431" y="42" on="1"/>
        <pt x="540" y="23" on="1"/>
        <pt x="540" y="0" on="1"/>
        <pt x="216" y="0" on="1"/>
      </contour>
    </TTGlyph>
    <TTGlyph name="Tcaron" xMin="9" yMin="0" xMax="745" yMax="960">
      <contour>
        <pt x="216" y="23" on="1"/>
        <pt x="326" y="42" on="1"/>
        <pt x="326" y="730" on="1"/>
        <pt x="125" y="730" on="1"/>
        <pt x="93" y="687" on="0"/>
        <pt x="48" y="593" on="0"/>
        <pt x="33" y="550" on="1"/>
        <pt x="9" y="550" on="1"/>
        <pt x="46" y="770" on="1"/>
        <pt x="708" y="770" on="1"/>
        <pt x="745" y="550" on="1"/>
        <pt x="721" y="550" on="1"/>
        <pt x="706" y="593" on="0"/>
        <pt x="661" y="687" on="0"/>
        <pt x="629" y="730" on="1"/>
        <pt x="431" y="730" on="1"/>
        <pt x="431" y="42" on="1"/>
        <pt x="540" y="23" on="1"/>
        <pt x="540" y="0" on="1"/>
        <pt x="216" y="0" on="1"/>
      </contour>
      <contour>
        <pt x="378" y="820" on="1"/>
        <pt x="359" y="820" on="0"/>
        <pt x="338" y="834" on="0"/>
        <pt x="325" y="847" on="1"/>
        <pt x="231" y="943" on="1"/>
        <pt x="251" y="960" on="1"/>
        <pt x="378" y="902" on="1"/>
        <pt x="507" y="960" on="1"/>
        <pt x="526" y="943" on="1"/>
        <pt x="433" y="847" on="1"/>
        <pt x="419" y="833" on="0"/>
        <pt x="395" y="820" on="0"/>
      </contour>
    </TTGlyph>
    <TTGlyph name="Tdotbelow" xMin="9" yMin="-258" xMax="745" yMax="770">
      <contour>
        <pt x="216" y="23" on="1"/>
        <pt x="326" y="42" on="1"/>
        <pt x="326" y="730" on="1"/>
        <pt x="125" y="730" on="1"/>
        <pt x="93" y="687" on="0"/>
        <pt x="48" y="593" on="0"/>
        <pt x="33" y="550" on="1"/>
        <pt x="9" y="550" on="1"/>
        <pt x="46" y="770" on="1"/>
        <pt x="708" y="770" on="1"/>
        <pt x="745" y="550" on="1"/>
        <pt x="721" y="550" on="1"/>
        <pt x="706" y="593" on="0"/>
        <pt x="661" y="687" on="0"/>
        <pt x="629" y="730" on="1"/>
        <pt x="431" y="730" on="1"/>
        <pt x="431" y="42" on="1"/>
        <pt x="540" y="23" on="1"/>
        <pt x="540" y="0" on="1"/>
        <pt x="216" y="0" on="1"/>
      </contour>
      <contour>
        <pt x="315" y="-194" on="1"/>
        <pt x="315" y="-166" on="0"/>
        <pt x="350" y="-129" on="0"/>
        <pt x="379" y="-129" on="1"/>
        <pt x="409" y="-129" on="0"/>
        <pt x="444" y="-166" on="0"/>
        <pt x="444" y="-194" on="1"/>
        <pt x="444" y="-220" on="0"/>
        <pt x="409" y="-258" on="0"/>
        <pt x="379" y="-258" on="1"/>
        <pt x="350" y="-258" on="0"/>
        <pt x="315" y="-220" on="0"/>
      </contour>
    </TTGlyph>
</ttFont>
